{
.appVersion = "1342";
DisplayStrings = (

glyphs = (
{
glyphname = A;
lastChange = "2022-01-18 09:13:17 +0000";
layers = (
{
anchors = (
{
name = bottom;
position = "{305, 0}";
},
{
name = ogonek;
position = "{612, 10}";
},
{
name = top;
position = "{377, 680}";
}
);
layerId = "B0B60A8F-2DEB-4A58-A43B-60A0DADABD8F";
paths = (
{
closed = 1;
nodes = (
"36 -14 OFFCURVE",
"136 22 OFFCURVE",
"142 72 CURVE SMOOTH",
"147 112 OFFCURVE",
"144 132 OFFCURVE",
"171 189 CURVE SMOOTH",
"366 599 LINE",
"347 587 LINE",
"434 170 LINE SMOOTH",
"463 32 OFFCURVE",
"494 -12 OFFCURVE",
"524 -12 CURVE SMOOTH",
"559 -12 OFFCURVE",
"630 17 OFFCURVE",
"630 44 CURVE SMOOTH",
"630 56 OFFCURVE",
"616 67 OFFCURVE",
"602 87 CURVE SMOOTH",
"589 107 OFFCURVE",
"576 144 OFFCURVE",
"558 207 CURVE SMOOTH",
"516 355 OFFCURVE",
"485 512 OFFCURVE",
"462 665 CURVE SMOOTH",
"458 690 OFFCURVE",
"447 694 OFFCURVE",
"436 694 CURVE SMOOTH",
"369 694 OFFCURVE",
"304 657 OFFCURVE",
"290 628 CURVE SMOOTH",
"-7 29 LINE SMOOTH",
"-12 18 OFFCURVE",
"-15 10 OFFCURVE",
"-15 3 CURVE SMOOTH",
"-15 -9 OFFCURVE",
"-6 -14 OFFCURVE",
"12 -14 CURVE SMOOTH"
);
},
{
closed = 1;
nodes = (
"510 190 LINE",
"510 265 LINE",
"138 265 LINE",
"138 190 LINE"
);
}
);
width = 650;
},
{
associatedMasterId = "B0B60A8F-2DEB-4A58-A43B-60A0DADABD8F";
layerId = "E8B8A5C7-F07F-4AEB-9E60-71CCEB13C2CE";
name = "Apr 6 21, 10:46";
paths = (
{
closed = 1;
nodes = (
"-17 18 OFFCURVE",
"-20 10 OFFCURVE",
"-20 3 CURVE SMOOTH",
"-20 -9 OFFCURVE",
"-11 -14 OFFCURVE",
"7 -14 CURVE SMOOTH",
"31 -14 OFFCURVE",
"121 24 OFFCURVE",
"127 74 CURVE SMOOTH",
"132 114 OFFCURVE",
"134 132 OFFCURVE",
"160 189 CURVE SMOOTH",
"343 599 LINE",
"325 587 LINE",
"399 170 LINE SMOOTH",
"424 31 OFFCURVE",
"463 -12 OFFCURVE",
"493 -12 CURVE SMOOTH",
"528 -12 OFFCURVE",
"595 27 OFFCURVE",
"595 54 CURVE SMOOTH",
"595 66 OFFCURVE",
"586 72 OFFCURVE",
"572 92 CURVE SMOOTH",
"559 112 OFFCURVE",
"543 144 OFFCURVE",
"527 207 CURVE SMOOTH",
"489 359 OFFCURVE",
"459 512 OFFCURVE",
"436 665 CURVE SMOOTH",
"432 690 OFFCURVE",
"417 694 OFFCURVE",
"410 694 CURVE SMOOTH",
"372 694 OFFCURVE",
"297 684 OFFCURVE",
"285 659 CURVE SMOOTH",
"-12 29 LINE SMOOTH"
);
},
{
closed = 1;
nodes = (
"133 190 LINE",
"469 190 LINE",
"469 265 LINE",
"133 265 LINE"
);
}
);
width = 614;
},
{
anchors = (
{
name = bottom;
position = "{306, 0}";
},
{
name = ogonek;
position = "{613, 10}";
},
{
name = top;
position = "{378, 680}";
}
);
background = {
paths = (
{
closed = 1;
nodes = (
"-11 18 OFFCURVE",
"-14 10 OFFCURVE",
"-14 3 CURVE SMOOTH",
"-14 -9 OFFCURVE",
"-5 -14 OFFCURVE",
"13 -14 CURVE SMOOTH",
"37 -14 OFFCURVE",
"137 22 OFFCURVE",
"143 72 CURVE SMOOTH",
"148 112 OFFCURVE",
"145 132 OFFCURVE",
"172 189 CURVE SMOOTH",
"367 599 LINE",
"348 587 LINE",
"435 170 LINE SMOOTH",
"464 32 OFFCURVE",
"495 -12 OFFCURVE",
"525 -12 CURVE SMOOTH",
"560 -12 OFFCURVE",
"631 17 OFFCURVE",
"631 44 CURVE SMOOTH",
"631 56 OFFCURVE",
"617 67 OFFCURVE",
"603 87 CURVE SMOOTH",
"590 107 OFFCURVE",
"577 144 OFFCURVE",
"559 207 CURVE SMOOTH",
"517 355 OFFCURVE",
"483 512 OFFCURVE",
"460 665 CURVE SMOOTH",
"456 690 OFFCURVE",
"445 694 OFFCURVE",
"434 694 CURVE SMOOTH",
"367 694 OFFCURVE",
"305 657 OFFCURVE",
"291 628 CURVE SMOOTH",
"-6 29 LINE SMOOTH"
);
},
{
closed = 1;
nodes = (
"139 190 LINE",
"511 190 LINE",
"511 265 LINE",
"139 265 LINE"
);
}
);
};
layerId = "42CFE912-843B-4D25-82F4-9ABC3064997D";
paths = (
{
closed = 1;
nodes = (
"36 -14 OFFCURVE",
"152 22 OFFCURVE",
"158 72 CURVE SMOOTH",
"163 112 OFFCURVE",
"160 132 OFFCURVE",
"187 189 CURVE SMOOTH",
"377 599 LINE",
"329 587 LINE",
"416 170 LINE SMOOTH",
"445 32 OFFCURVE",
"476 -12 OFFCURVE",
"510 -12 CURVE SMOOTH",
"550 -12 OFFCURVE",
"655 29 OFFCURVE",
"655 59 CURVE SMOOTH",
"655 71 OFFCURVE",
"641 82 OFFCURVE",
"627 102 CURVE SMOOTH",
"614 122 OFFCURVE",
"601 159 OFFCURVE",
"583 222 CURVE SMOOTH",
"541 370 OFFCURVE",
"508 512 OFFCURVE",
"485 665 CURVE SMOOTH",
"481 690 OFFCURVE",
"468 696 OFFCURVE",
"450 696 CURVE SMOOTH",
"380 696 OFFCURVE",
"308 665 OFFCURVE",
"288 624 CURVE SMOOTH",
"-7 29 LINE SMOOTH",
"-12 18 OFFCURVE",
"-15 10 OFFCURVE",
"-15 3 CURVE SMOOTH",
"-15 -9 OFFCURVE",
"-6 -14 OFFCURVE",
"12 -14 CURVE SMOOTH"
);
},
{
closed = 1;
nodes = (
"516 190 LINE",
"516 280 LINE",
"144 280 LINE",
"144 190 LINE"
);
}
);
width = 674;
}
);
leftKerningGroup = A;
rightKerningGroup = A;
unicode = 0041;
},
{
glyphname = AE;
lastChange = "2022-01-18 09:13:17 +0000";
layers = (
{
anchors = (
{
name = bottom;
position = "{275, 0}";
},
{
name = ogonek;
position = "{841, 10}";
},
{
name = top;
position = "{347, 680}";
},
{
name = topleft;
position = "{490, 680}";
}
);
associatedMasterId = "B0B60A8F-2DEB-4A58-A43B-60A0DADABD8F";
layerId = "56CA6396-BD9E-4354-A5BA-54157A3F721D";
name = "Apr 7 21, 14:12";
paths = (
{
closed = 1;
nodes = (
"-17 18 OFFCURVE",
"-20 10 OFFCURVE",
"-20 3 CURVE SMOOTH",
"-20 -9 OFFCURVE",
"-11 -14 OFFCURVE",
"7 -14 CURVE SMOOTH",
"31 -14 OFFCURVE",
"131 22 OFFCURVE",
"137 72 CURVE SMOOTH",
"142 112 OFFCURVE",
"139 132 OFFCURVE",
"166 189 CURVE SMOOTH",
"361 599 LINE",
"342 587 LINE",
"432 170 LINE SMOOTH",
"462 32 OFFCURVE",
"489 -12 OFFCURVE",
"519 -12 CURVE SMOOTH",
"554 -12 OFFCURVE",
"631 32 OFFCURVE",
"631 59 CURVE SMOOTH",
"631 71 OFFCURVE",
"611 77 OFFCURVE",
"597 97 CURVE SMOOTH",
"584 117 OFFCURVE",
"571 144 OFFCURVE",
"553 207 CURVE SMOOTH",
"511 355 OFFCURVE",
"477 512 OFFCURVE",
"454 665 CURVE SMOOTH",
"450 690 OFFCURVE",
"439 694 OFFCURVE",
"428 694 CURVE SMOOTH",
"361 694 OFFCURVE",
"299 657 OFFCURVE",
"285 628 CURVE SMOOTH",
"-12 29 LINE SMOOTH"
);
},
{
closed = 1;
nodes = (
"133 190 LINE",
"505 190 LINE",
"505 265 LINE",
"133 265 LINE"
);
},
{
closed = 1;
nodes = (
"665 317 LINE SMOOTH",
"721 318 OFFCURVE",
"792 357 OFFCURVE",
"792 387 CURVE SMOOTH",
"792 397 OFFCURVE",
"786 404 OFFCURVE",
"776 404 CURVE SMOOTH",
"762 404 OFFCURVE",
"683 392 OFFCURVE",
"598 392 CURVE SMOOTH",
"497 392 LINE",
"484 315 LINE"
);
},
{
closed = 1;
nodes = (
"511 67 LINE",
"519 -12 LINE",
"554 -12 OFFCURVE",
"602 0 OFFCURVE",
"752 0 CURVE SMOOTH",
"782 0 LINE SMOOTH",
"825 0 OFFCURVE",
"851 75 OFFCURVE",
"851 125 CURVE SMOOTH",
"851 135 OFFCURVE",
"845 139 OFFCURVE",
"839 139 CURVE SMOOTH",
"834 139 OFFCURVE",
"816 134 OFFCURVE",
"792 128 CURVE SMOOTH",
"578 75 LINE"
);
},
{
closed = 1;
nodes = (
"448 616 LINE",
"752 588 LINE SMOOTH",
"790 584 OFFCURVE",
"823 578 OFFCURVE",
"837 578 CURVE SMOOTH",
"866 578 OFFCURVE",
"889 631 OFFCURVE",
"889 668 CURVE SMOOTH",
"889 688 OFFCURVE",
"884 690 OFFCURVE",
"869 690 CURVE SMOOTH",
"849 690 OFFCURVE",
"803 680 OFFCURVE",
"662 680 CURVE SMOOTH",
"450 680 LINE"
);
}
);
width = 914;
},
{
anchors = (
{
name = bottom;
position = "{418, 0}";
},
{
name = top;
position = "{562, 680}";
}
);
components = (
{
name = E;
transform = "{1, 0, 0, 1, 385, 0}";
}
);
layerId = "B0B60A8F-2DEB-4A58-A43B-60A0DADABD8F";
paths = (
{
closed = 1;
nodes = (
"21 -14 OFFCURVE",
"125 -7 OFFCURVE",
"146 43 CURVE SMOOTH",
"164 83 OFFCURVE",
"179 136 OFFCURVE",
"219 189 CURVE SMOOTH",
"516 585 LINE",
"580 680 LINE",
"508 680 OFFCURVE",
"476 664 OFFCURVE",
"439 616 CURVE SMOOTH",
"-8 29 LINE SMOOTH",
"-17 18 OFFCURVE",
"-22 10 OFFCURVE",
"-24 3 CURVE SMOOTH",
"-28 -9 OFFCURVE",
"-21 -14 OFFCURVE",
"-3 -14 CURVE SMOOTH"
);
},
{
closed = 1;
nodes = (
"562 190 LINE",
"562 265 LINE",
"210 265 LINE",
"210 190 LINE"
);
}
);
width = 877;
},
{
anchors = (
{
name = bottom;
position = "{434, 0}";
},
{
name = top;
position = "{563, 679}";
}
);
components = (
{
alignment = -1;
name = E;
transform = "{1, 0, 0, 1, 394, 0}";
}
);
layerId = "42CFE912-843B-4D25-82F4-9ABC3064997D";
paths = (
{
closed = 1;
nodes = (
"37 -14 OFFCURVE",
"164 -8 OFFCURVE",
"179 50 CURVE SMOOTH",
"188 86 OFFCURVE",
"204 137 OFFCURVE",
"243 189 CURVE SMOOTH",
"543 588 LINE",
"583 680 LINE",
"508 680 OFFCURVE",
"461 653 OFFCURVE",
"427 608 CURVE SMOOTH",
"-6 38 LINE SMOOTH",
"-18 22 OFFCURVE",
"-25 10 OFFCURVE",
"-25 3 CURVE SMOOTH",
"-25 -9 OFFCURVE",
"-15 -14 OFFCURVE",
"3 -14 CURVE SMOOTH"
);
},
{
closed = 1;
nodes = (
"573 190 LINE",
"573 280 LINE",
"224 280 LINE",
"224 190 LINE"
);
}
);
width = 918;
}
);
leftKerningGroup = AE;
rightKerningGroup = E;
rightMetricsKey = E;
unicode = 00C6;
},
{
glyphname = B;
lastChange = "2022-01-18 09:13:17 +0000";
layers = (
{
anchors = (
{
name = bottom;
position = "{263, 0}";
},
{
name = top;
position = "{335, 680}";
}
);
hints = (
{
origin = "{0, 47}";
type = Corner;
name = _corner.serifUC;
}
);
layerId = "B0B60A8F-2DEB-4A58-A43B-60A0DADABD8F";
paths = (
{
closed = 1;
nodes = (
"102 -8 OFFCURVE",
"219 0 OFFCURVE",
"272 0 CURVE SMOOTH",
"458 0 OFFCURVE",
"554 91 OFFCURVE",
"554 217 CURVE SMOOTH",
"554 298 OFFCURVE",
"498 360 OFFCURVE",
"400 385 CURVE",
"331 349 LINE",
"385 332 OFFCURVE",
"421 283 OFFCURVE",
"421 222 CURVE SMOOTH",
"421 123 OFFCURVE",
"339 75 OFFCURVE",
"180 75 CURVE",
"178 90 OFFCURVE",
"177 105 OFFCURVE",
"177 120 CURVE SMOOTH",
"177 133 OFFCURVE",
"178 146 OFFCURVE",
"179 159 CURVE SMOOTH",
"226 615 LINE",
"358 615 OFFCURVE",
"413 589 OFFCURVE",
"413 523 CURVE SMOOTH",
"413 433 OFFCURVE",
"323 390 OFFCURVE",
"251 372 CURVE SMOOTH",
"240 369 OFFCURVE",
"234 366 OFFCURVE",
"234 354 CURVE SMOOTH",
"234 339 OFFCURVE",
"267 318 OFFCURVE",
"293 318 CURVE SMOOTH",
"317 318 OFFCURVE",
"344 330 OFFCURVE",
"380 348 CURVE",
"413 365 LINE",
"487 402 OFFCURVE",
"538 459 OFFCURVE",
"538 538 CURVE SMOOTH",
"538 640 OFFCURVE",
"468 690 OFFCURVE",
"287 690 CURVE SMOOTH",
"221 690 OFFCURVE",
"166 685 OFFCURVE",
"115 680 CURVE",
"51 96 LINE SMOOTH",
"49 79 OFFCURVE",
"48 64 OFFCURVE",
"48 51 CURVE SMOOTH",
"48 15 OFFCURVE",
"56 -8 OFFCURVE",
"80 -8 CURVE SMOOTH"
);
}
);
width = 577;
},
{
associatedMasterId = "B0B60A8F-2DEB-4A58-A43B-60A0DADABD8F";
hints = (
{
origin = "{0, 38}";
type = Corner;
name = _corner.serifUC;
}
);
layerId = "89E8C78E-04AB-4045-ADB2-0734EE1EE0F2";
name = "Apr 6 21, 11:20";
paths = (
{
closed = 1;
nodes = (
"541 294 OFFCURVE",
"491 346 OFFCURVE",
"401 364 CURVE",
"341 324 LINE",
"385 308 OFFCURVE",
"408 269 OFFCURVE",
"408 218 CURVE SMOOTH",
"408 119 OFFCURVE",
"325 75 OFFCURVE",
"205 75 CURVE SMOOTH",
"176 75 LINE",
"172 103 OFFCURVE",
"172 131 OFFCURVE",
"175 159 CURVE SMOOTH",
"222 605 LINE",
"284 605 LINE SMOOTH",
"368 605 OFFCURVE",
"398 574 OFFCURVE",
"398 514 CURVE SMOOTH",
"398 445 OFFCURVE",
"342 387 OFFCURVE",
"232 357 CURVE SMOOTH",
"219 353 OFFCURVE",
"213 349 OFFCURVE",
"213 337 CURVE SMOOTH",
"213 323 OFFCURVE",
"237 294 OFFCURVE",
"256 294 CURVE SMOOTH",
"292 294 OFFCURVE",
"348 315 OFFCURVE",
"388 338 CURVE",
"403 346 LINE",
"481 391 OFFCURVE",
"528 449 OFFCURVE",
"528 531 CURVE SMOOTH",
"528 621 OFFCURVE",
"464 680 OFFCURVE",
"320 680 CURVE SMOOTH",
"110 680 LINE",
"46 96 LINE SMOOTH",
"44 79 OFFCURVE",
"43 64 OFFCURVE",
"43 51 CURVE SMOOTH",
"43 15 OFFCURVE",
"51 -8 OFFCURVE",
"75 -8 CURVE SMOOTH",
"127 -8 OFFCURVE",
"222 0 OFFCURVE",
"308 0 CURVE SMOOTH",
"437 0 OFFCURVE",
"541 87 OFFCURVE",
"541 213 CURVE SMOOTH"
);
}
);
width = 570;
},
{
associatedMasterId = "B0B60A8F-2DEB-4A58-A43B-60A0DADABD8F";
hints = (
{
origin = "{0, 38}";
type = Corner;
name = _corner.serifUC;
}
);
layerId = "FFA6CF54-9692-4634-ACAA-3D2A6D3F3475";
name = "Apr 6 21, 15:34";
paths = (
{
closed = 1;
nodes = (
"540 288 OFFCURVE",
"491 344 OFFCURVE",
"413 375 CURVE",
"351 331 LINE",
"388 304 OFFCURVE",
"407 263 OFFCURVE",
"407 212 CURVE SMOOTH",
"407 113 OFFCURVE",
"314 75 OFFCURVE",
"204 75 CURVE SMOOTH",
"175 75 LINE",
"171 103 OFFCURVE",
"171 131 OFFCURVE",
"174 159 CURVE SMOOTH",
"221 605 LINE",
"297 605 LINE SMOOTH",
"371 605 OFFCURVE",
"412 579 OFFCURVE",
"411 522 CURVE SMOOTH",
"410 450 OFFCURVE",
"351 402 OFFCURVE",
"231 375 CURVE SMOOTH",
"218 372 OFFCURVE",
"212 367 OFFCURVE",
"212 355 CURVE SMOOTH",
"212 334 OFFCURVE",
"236 311 OFFCURVE",
"264 311 CURVE SMOOTH",
"299 311 OFFCURVE",
"357 330 OFFCURVE",
"397 353 CURVE",
"408 361 LINE",
"486 398 OFFCURVE",
"537 461 OFFCURVE",
"537 536 CURVE SMOOTH",
"537 628 OFFCURVE",
"469 680 OFFCURVE",
"310 680 CURVE SMOOTH",
"110 680 LINE",
"46 96 LINE SMOOTH",
"44 79 OFFCURVE",
"43 64 OFFCURVE",
"43 51 CURVE SMOOTH",
"43 15 OFFCURVE",
"51 -8 OFFCURVE",
"75 -8 CURVE SMOOTH",
"97 -8 OFFCURVE",
"235 0 OFFCURVE",
"288 0 CURVE SMOOTH",
"424 0 OFFCURVE",
"540 81 OFFCURVE",
"540 207 CURVE SMOOTH"
);
}
);
width = 569;
},
{
associatedMasterId = "B0B60A8F-2DEB-4A58-A43B-60A0DADABD8F";
hints = (
{
origin = "{0, 33}";
type = Corner;
name = _corner.serifUC;
}
);
layerId = "B9BEF117-31B1-462B-8A98-8C611C93D1C3";
name = "Apr 6 21, 16:55";
paths = (
{
closed = 1;
nodes = (
"539 288 OFFCURVE",
"493 350 OFFCURVE",
"405 385 CURVE",
"334 339 LINE",
"376 312 OFFCURVE",
"406 273 OFFCURVE",
"406 212 CURVE SMOOTH",
"406 113 OFFCURVE",
"335 75 OFFCURVE",
"231 75 CURVE SMOOTH",
"175 75 LINE",
"171 103 OFFCURVE",
"171 131 OFFCURVE",
"174 159 CURVE SMOOTH",
"221 605 LINE",
"296 605 LINE SMOOTH",
"377 605 OFFCURVE",
"410 572 OFFCURVE",
"409 522 CURVE SMOOTH",
"408 428 OFFCURVE",
"301 369 OFFCURVE",
"151 355 CURVE",
"159 284 LINE",
"260 296 OFFCURVE",
"343 327 OFFCURVE",
"388 354 CURVE",
"393 354 LINE",
"483 392 OFFCURVE",
"535 461 OFFCURVE",
"535 546 CURVE SMOOTH",
"535 628 OFFCURVE",
"476 680 OFFCURVE",
"334 680 CURVE SMOOTH",
"110 680 LINE",
"46 96 LINE SMOOTH",
"44 79 OFFCURVE",
"43 64 OFFCURVE",
"43 51 CURVE SMOOTH",
"43 15 OFFCURVE",
"51 -8 OFFCURVE",
"75 -8 CURVE SMOOTH",
"97 -8 OFFCURVE",
"234 0 OFFCURVE",
"287 0 CURVE SMOOTH",
"423 0 OFFCURVE",
"539 81 OFFCURVE",
"539 207 CURVE SMOOTH"
);
}
);
width = 568;
},
{
associatedMasterId = "B0B60A8F-2DEB-4A58-A43B-60A0DADABD8F";
hints = (
{
origin = "{0, 10}";
type = Corner;
name = _corner.serifUC;
}
);
layerId = "2375A968-D8C7-4BAC-9791-EE71D31BFD9B";
name = "Apr 6 21, 17:34";
paths = (
{
closed = 1;
nodes = (
"286 330 OFFCURVE",
"352 348 OFFCURVE",
"378 364 CURVE",
"383 365 LINE",
"478 409 OFFCURVE",
"533 481 OFFCURVE",
"533 556 CURVE SMOOTH",
"533 628 OFFCURVE",
"490 680 OFFCURVE",
"358 680 CURVE SMOOTH",
"110 680 LINE",
"46 96 LINE SMOOTH",
"44 79 OFFCURVE",
"43 64 OFFCURVE",
"43 51 CURVE SMOOTH",
"43 15 OFFCURVE",
"51 -8 OFFCURVE",
"75 -8 CURVE SMOOTH",
"97 -8 OFFCURVE",
"214 0 OFFCURVE",
"267 0 CURVE SMOOTH",
"453 0 OFFCURVE",
"549 91 OFFCURVE",
"549 217 CURVE SMOOTH",
"549 298 OFFCURVE",
"503 360 OFFCURVE",
"405 385 CURVE",
"326 349 LINE",
"380 332 OFFCURVE",
"416 283 OFFCURVE",
"416 222 CURVE SMOOTH",
"416 123 OFFCURVE",
"345 75 OFFCURVE",
"176 75 CURVE SMOOTH",
"175 75 LINE",
"171 103 OFFCURVE",
"171 131 OFFCURVE",
"174 159 CURVE SMOOTH",
"221 605 LINE",
"267 605 LINE SMOOTH",
"370 605 OFFCURVE",
"402 578 OFFCURVE",
"402 530 CURVE SMOOTH",
"402 484 OFFCURVE",
"392 446 OFFCURVE",
"339 417 CURVE",
"255 423 LINE SMOOTH",
"222 425 OFFCURVE",
"221 407 OFFCURVE",
"221 397 CURVE SMOOTH",
"221 353 OFFCURVE",
"241 330 OFFCURVE",
"264 330 CURVE SMOOTH"
);
}
);
width = 577;
},
{
associatedMasterId = "B0B60A8F-2DEB-4A58-A43B-60A0DADABD8F";
hints = (
{
origin = "{0, 10}";
type = Corner;
name = _corner.serifUC;
}
);
layerId = "8D053D35-0157-4BDF-B79E-41D5A737C02A";
name = "Apr 6 21, 18:23";
paths = (
{
closed = 1;
nodes = (
"286 316 OFFCURVE",
"352 348 OFFCURVE",
"378 364 CURVE",
"383 365 LINE",
"478 409 OFFCURVE",
"533 481 OFFCURVE",
"533 556 CURVE SMOOTH",
"533 628 OFFCURVE",
"490 680 OFFCURVE",
"358 680 CURVE SMOOTH",
"110 680 LINE",
"46 96 LINE SMOOTH",
"44 79 OFFCURVE",
"43 64 OFFCURVE",
"43 51 CURVE SMOOTH",
"43 15 OFFCURVE",
"51 -8 OFFCURVE",
"75 -8 CURVE SMOOTH",
"97 -8 OFFCURVE",
"214 0 OFFCURVE",
"267 0 CURVE SMOOTH",
"453 0 OFFCURVE",
"549 91 OFFCURVE",
"549 217 CURVE SMOOTH",
"549 298 OFFCURVE",
"503 360 OFFCURVE",
"405 385 CURVE",
"326 349 LINE",
"380 332 OFFCURVE",
"416 283 OFFCURVE",
"416 222 CURVE SMOOTH",
"416 123 OFFCURVE",
"345 75 OFFCURVE",
"176 75 CURVE SMOOTH",
"175 75 LINE",
"171 103 OFFCURVE",
"171 131 OFFCURVE",
"174 159 CURVE SMOOTH",
"221 605 LINE",
"267 605 LINE SMOOTH",
"370 605 OFFCURVE",
"402 578 OFFCURVE",
"402 530 CURVE SMOOTH",
"402 484 OFFCURVE",
"372 446 OFFCURVE",
"319 417 CURVE SMOOTH",
"298 405 OFFCURVE",
"272 395 OFFCURVE",
"244 387 CURVE SMOOTH",
"226 382 OFFCURVE",
"221 377 OFFCURVE",
"221 370 CURVE SMOOTH",
"221 353 OFFCURVE",
"241 316 OFFCURVE",
"264 316 CURVE SMOOTH"
);
}
);
width = 577;
},
{
anchors = (
{
name = bottom;
position = "{276, 0}";
},
{
name = top;
position = "{310, 680}";
}
);
background = {
hints = (
{
origin = "{0, 41}";
type = Corner;
name = _corner.serifUC;
}
);
paths = (
{
closed = 1;
nodes = (
"567 298 OFFCURVE",
"521 360 OFFCURVE",
"423 385 CURVE",
"344 349 LINE",
"398 332 OFFCURVE",
"434 283 OFFCURVE",
"434 222 CURVE SMOOTH",
"434 123 OFFCURVE",
"352 75 OFFCURVE",
"193 75 CURVE",
"191 90 OFFCURVE",
"190 105 OFFCURVE",
"190 120 CURVE SMOOTH",
"190 133 OFFCURVE",
"191 146 OFFCURVE",
"192 159 CURVE SMOOTH",
"239 615 LINE",
"371 615 OFFCURVE",
"426 589 OFFCURVE",
"426 523 CURVE SMOOTH",
"426 433 OFFCURVE",
"336 390 OFFCURVE",
"264 372 CURVE SMOOTH",
"253 369 OFFCURVE",
"247 366 OFFCURVE",
"247 354 CURVE SMOOTH",
"247 339 OFFCURVE",
"280 318 OFFCURVE",
"306 318 CURVE SMOOTH",
"330 318 OFFCURVE",
"357 330 OFFCURVE",
"393 348 CURVE",
"426 365 LINE",
"500 402 OFFCURVE",
"551 459 OFFCURVE",
"551 548 CURVE SMOOTH",
"551 640 OFFCURVE",
"481 690 OFFCURVE",
"300 690 CURVE SMOOTH",
"234 690 OFFCURVE",
"179 685 OFFCURVE",
"128 680 CURVE",
"64 96 LINE SMOOTH",
"62 79 OFFCURVE",
"61 64 OFFCURVE",
"61 51 CURVE SMOOTH",
"61 15 OFFCURVE",
"69 -8 OFFCURVE",
"93 -8 CURVE SMOOTH",
"115 -8 OFFCURVE",
"232 0 OFFCURVE",
"285 0 CURVE SMOOTH",
"471 0 OFFCURVE",
"567 91 OFFCURVE",
"567 217 CURVE SMOOTH"
);
}
);
};
hints = (
{
origin = "{0, 47}";
type = Corner;
name = _corner.serifUC;
}
);
layerId = "42CFE912-843B-4D25-82F4-9ABC3064997D";
paths = (
{
closed = 1;
nodes = (
"103 -8 OFFCURVE",
"228 0 OFFCURVE",
"281 0 CURVE SMOOTH",
"493 0 OFFCURVE",
"582 86 OFFCURVE",
"582 214 CURVE SMOOTH",
"582 294 OFFCURVE",
"510 359 OFFCURVE",
"421 383 CURVE",
"348 344 LINE",
"376 324 OFFCURVE",
"410 285 OFFCURVE",
"410 229 CURVE SMOOTH",
"410 128 OFFCURVE",
"335 85 OFFCURVE",
"212 85 CURVE",
"210 100 OFFCURVE",
"210 105 OFFCURVE",
"210 120 CURVE SMOOTH",
"210 133 OFFCURVE",
"211 146 OFFCURVE",
"212 159 CURVE SMOOTH",
"259 609 LINE",
"341 609 OFFCURVE",
"401 589 OFFCURVE",
"401 523 CURVE SMOOTH",
"401 438 OFFCURVE",
"337 398 OFFCURVE",
"275 380 CURVE SMOOTH",
"264 377 OFFCURVE",
"258 373 OFFCURVE",
"258 364 CURVE SMOOTH",
"258 344 OFFCURVE",
"289 318 OFFCURVE",
"327 318 CURVE SMOOTH",
"347 318 OFFCURVE",
"375 330 OFFCURVE",
"411 348 CURVE",
"442 365 LINE",
"513 402 OFFCURVE",
"561 461 OFFCURVE",
"561 535 CURVE SMOOTH",
"561 625 OFFCURVE",
"494 690 OFFCURVE",
"288 690 CURVE SMOOTH",
"214 690 OFFCURVE",
"159 684 OFFCURVE",
"108 677 CURVE",
"44 96 LINE SMOOTH",
"42 79 OFFCURVE",
"41 64 OFFCURVE",
"41 51 CURVE SMOOTH",
"41 15 OFFCURVE",
"49 -8 OFFCURVE",
"73 -8 CURVE SMOOTH"
);
}
);
width = 606;
}
);
leftKerningGroup = H;
leftMetricsKey = H;
rightKerningGroup = B;
unicode = 0042;
},
{
glyphname = C;
lastChange = "2022-01-18 09:13:17 +0000";
layers = (
{
anchors = (
{
name = bottom;
position = "{276, 0}";
},
{
name = top;
position = "{348, 680}";
}
);
background = {
paths = (
{
closed = 1;
nodes = (
"726 206 OFFCURVE",
"561 -9 OFFCURVE",
"337 -9 CURVE SMOOTH",
"190 -9 OFFCURVE",
"45 72 OFFCURVE",
"45 243 CURVE SMOOTH",
"45 473 OFFCURVE",
"210 688 OFFCURVE",
"434 688 CURVE SMOOTH",
"581 688 OFFCURVE",
"726 607 OFFCURVE",
"726 436 CURVE SMOOTH"
);
},
{
closed = 1;
nodes = (
"518 56 OFFCURVE",
"591 283 OFFCURVE",
"591 418 CURVE SMOOTH",
"591 572 OFFCURVE",
"480 623 OFFCURVE",
"393 623 CURVE SMOOTH",
"253 623 OFFCURVE",
"180 396 OFFCURVE",
"180 261 CURVE SMOOTH",
"180 107 OFFCURVE",
"291 56 OFFCURVE",
"378 56 CURVE SMOOTH"
);
},
{
closed = 1;
nodes = (
"183 582 OFFCURVE",
"299 688 OFFCURVE",
"435 688 CURVE SMOOTH",
"547 688 OFFCURVE",
"623 601 OFFCURVE",
"619 512 CURVE SMOOTH",
"618 483 OFFCURVE",
"613 475 OFFCURVE",
"593 475 CURVE",
"523 475 LINE",
"504 475 OFFCURVE",
"502 482 OFFCURVE",
"502 492 CURVE SMOOTH",
"502 505 OFFCURVE",
"507 531 OFFCURVE",
"507 567 CURVE SMOOTH",
"507 614 OFFCURVE",
"480 644 OFFCURVE",
"431 644 CURVE SMOOTH",
"363 644 OFFCURVE",
"303 570 OFFCURVE",
"303 529 CURVE",
"183 512 LINE"
);
}
);
};
layerId = "B0B60A8F-2DEB-4A58-A43B-60A0DADABD8F";
paths = (
{
closed = 1;
nodes = (
"457 -16 OFFCURVE",
"565 56 OFFCURVE",
"566 134 CURVE SMOOTH",
"566 155 OFFCURVE",
"554 160 OFFCURVE",
"540 160 CURVE SMOOTH",
"502 160 OFFCURVE",
"449 64 OFFCURVE",
"347 64 CURVE SMOOTH",
"255 64 OFFCURVE",
"176 142 OFFCURVE",
"176 301 CURVE SMOOTH",
"176 488 OFFCURVE",
"277 616 OFFCURVE",
"399 616 CURVE SMOOTH",
"461 616 OFFCURVE",
"495 593 OFFCURVE",
"527 577 CURVE SMOOTH",
"545 568 OFFCURVE",
"561 558 OFFCURVE",
"573 558 CURVE SMOOTH",
"586 558 OFFCURVE",
"600 584 OFFCURVE",
"600 616 CURVE SMOOTH",
"600 676 OFFCURVE",
"545 696 OFFCURVE",
"436 696 CURVE SMOOTH",
"202 696 OFFCURVE",
"43 522 OFFCURVE",
"43 283 CURVE SMOOTH",
"43 86 OFFCURVE",
"154 -16 OFFCURVE",
"322 -16 CURVE SMOOTH"
);
}
);
width = 597;
},
{
associatedMasterId = "B0B60A8F-2DEB-4A58-A43B-60A0DADABD8F";
background = {
paths = (
{
closed = 1;
nodes = (
"711 206 OFFCURVE",
"546 -9 OFFCURVE",
"322 -9 CURVE SMOOTH",
"175 -9 OFFCURVE",
"30 72 OFFCURVE",
"30 243 CURVE SMOOTH",
"30 473 OFFCURVE",
"195 688 OFFCURVE",
"419 688 CURVE SMOOTH",
"566 688 OFFCURVE",
"711 607 OFFCURVE",
"711 436 CURVE SMOOTH"
);
},
{
closed = 1;
nodes = (
"503 56 OFFCURVE",
"576 283 OFFCURVE",
"576 418 CURVE SMOOTH",
"576 572 OFFCURVE",
"465 623 OFFCURVE",
"378 623 CURVE SMOOTH",
"238 623 OFFCURVE",
"165 396 OFFCURVE",
"165 261 CURVE SMOOTH",
"165 107 OFFCURVE",
"276 56 OFFCURVE",
"363 56 CURVE SMOOTH"
);
},
{
closed = 1;
nodes = (
"168 582 OFFCURVE",
"284 688 OFFCURVE",
"420 688 CURVE SMOOTH",
"532 688 OFFCURVE",
"608 601 OFFCURVE",
"604 512 CURVE SMOOTH",
"603 483 OFFCURVE",
"598 475 OFFCURVE",
"578 475 CURVE",
"508 475 LINE",
"489 475 OFFCURVE",
"487 482 OFFCURVE",
"487 492 CURVE SMOOTH",
"487 505 OFFCURVE",
"492 531 OFFCURVE",
"492 567 CURVE SMOOTH",
"492 614 OFFCURVE",
"465 644 OFFCURVE",
"416 644 CURVE SMOOTH",
"348 644 OFFCURVE",
"288 570 OFFCURVE",
"288 529 CURVE",
"168 512 LINE"
);
}
);
};
layerId = "0920ED52-C724-43A2-9CBF-F90F83CF4883";
name = "Apr 6 21, 13:29";
paths = (
{
closed = 1;
nodes = (
"511 170 OFFCURVE",
"444 64 OFFCURVE",
"334 64 CURVE SMOOTH",
"232 64 OFFCURVE",
"161 142 OFFCURVE",
"161 301 CURVE SMOOTH",
"161 492 OFFCURVE",
"255 616 OFFCURVE",
"390 616 CURVE SMOOTH",
"490 616 OFFCURVE",
"534 555 OFFCURVE",
"562 555 CURVE SMOOTH",
"583 555 OFFCURVE",
"597 590 OFFCURVE",
"597 614 CURVE SMOOTH",
"597 669 OFFCURVE",
"526 696 OFFCURVE",
"416 696 CURVE SMOOTH",
"183 696 OFFCURVE",
"28 522 OFFCURVE",
"28 283 CURVE SMOOTH",
"28 86 OFFCURVE",
"150 -16 OFFCURVE",
"331 -16 CURVE SMOOTH",
"470 -16 OFFCURVE",
"561 38 OFFCURVE",
"561 119 CURVE SMOOTH",
"561 146 OFFCURVE",
"551 170 OFFCURVE",
"537 170 CURVE SMOOTH"
);
}
);
width = 597;
},
{
anchors = (
{
name = bottom;
position = "{312, 0}";
},
{
name = top;
position = "{401, 680}";
}
);
background = {
paths = (
{
closed = 1;
nodes = (
"516 160 OFFCURVE",
"463 64 OFFCURVE",
"361 64 CURVE SMOOTH",
"267 64 OFFCURVE",
"190 142 OFFCURVE",
"190 301 CURVE SMOOTH",
"190 492 OFFCURVE",
"287 616 OFFCURVE",
"413 616 CURVE SMOOTH",
"475 616 OFFCURVE",
"509 593 OFFCURVE",
"541 577 CURVE SMOOTH",
"559 568 OFFCURVE",
"575 558 OFFCURVE",
"587 558 CURVE SMOOTH",
"600 558 OFFCURVE",
"614 584 OFFCURVE",
"614 616 CURVE SMOOTH",
"614 676 OFFCURVE",
"559 696 OFFCURVE",
"450 696 CURVE SMOOTH",
"212 696 OFFCURVE",
"57 522 OFFCURVE",
"57 283 CURVE SMOOTH",
"57 86 OFFCURVE",
"166 -16 OFFCURVE",
"336 -16 CURVE SMOOTH",
"471 -16 OFFCURVE",
"579 56 OFFCURVE",
"580 134 CURVE SMOOTH",
"580 155 OFFCURVE",
"568 160 OFFCURVE",
"554 160 CURVE SMOOTH"
);
}
);
};
layerId = "42CFE912-843B-4D25-82F4-9ABC3064997D";
paths = (
{
closed = 1;
nodes = (
"477 -16 OFFCURVE",
"596 54 OFFCURVE",
"596 143 CURVE SMOOTH",
"596 165 OFFCURVE",
"585 180 OFFCURVE",
"565 180 CURVE SMOOTH",
"518 180 OFFCURVE",
"463 70 OFFCURVE",
"361 70 CURVE SMOOTH",
"272 70 OFFCURVE",
"215 142 OFFCURVE",
"215 301 CURVE SMOOTH",
"215 492 OFFCURVE",
"293 611 OFFCURVE",
"413 611 CURVE SMOOTH",
"462 611 OFFCURVE",
"500 583 OFFCURVE",
"532 562 CURVE SMOOTH",
"549 551 OFFCURVE",
"580 531 OFFCURVE",
"592 531 CURVE SMOOTH",
"612 531 OFFCURVE",
"631 565 OFFCURVE",
"631 602 CURVE SMOOTH",
"631 675 OFFCURVE",
"567 696 OFFCURVE",
"450 696 CURVE SMOOTH",
"212 696 OFFCURVE",
"37 522 OFFCURVE",
"37 283 CURVE SMOOTH",
"37 86 OFFCURVE",
"166 -16 OFFCURVE",
"336 -16 CURVE SMOOTH"
);
}
);
width = 626;
}
);
leftKerningGroup = O;
leftMetricsKey = O;
rightKerningGroup = C;
unicode = 0043;
},
{
glyphname = D;
lastChange = "2022-01-18 09:13:17 +0000";
layers = (
{
anchors = (
{
name = bottom;
position = "{308, 0}";
},
{
name = center;
position = "{344, 340}";
},
{
name = top;
position = "{380, 680}";
}
);
background = {
paths = (
{
closed = 1;
nodes = (
"541 0 OFFCURVE",
"552 2 OFFCURVE",
"548 20 CURVE SMOOTH",
"537 73 OFFCURVE",
"438 523 OFFCURVE",
"416 631 CURVE SMOOTH",
"408 668 OFFCURVE",
"401 680 OFFCURVE",
"383 680 CURVE SMOOTH",
"358 680 OFFCURVE",
"308 663 OFFCURVE",
"280 628 CURVE",
"319 593 LINE",
"323 593 OFFCURVE",
"325 593 OFFCURVE",
"329 593 CURVE",
"330 566 OFFCURVE",
"332 538 OFFCURVE",
"334 523 CURVE SMOOTH",
"346 445 OFFCURVE",
"406 87 OFFCURVE",
"417 28 CURVE SMOOTH",
"420 10 OFFCURVE",
"429 0 OFFCURVE",
"451 0 CURVE",
"467 0 OFFCURVE",
"516 0 OFFCURVE",
"532 0 CURVE"
);
},
{
closed = 1;
nodes = (
"307 628 OFFCURVE",
"292 628 OFFCURVE",
"280 628 CURVE",
"264 608 OFFCURVE",
"226 518 OFFCURVE",
"215 490 CURVE SMOOTH",
"197 445 OFFCURVE",
"55 89 OFFCURVE",
"25 22 CURVE SMOOTH",
"18 6 OFFCURVE",
"23 0 OFFCURVE",
"34 0 CURVE SMOOTH",
"44 0 OFFCURVE",
"66 0 OFFCURVE",
"78 0 CURVE SMOOTH",
"102 0 OFFCURVE",
"113 3 OFFCURVE",
"133 71 CURVE SMOOTH",
"178 224 OFFCURVE",
"259 455 OFFCURVE",
"319 593 CURVE",
"319 628 LINE"
);
},
{
closed = 1;
nodes = (
"199 217 LINE",
"368 217 LINE",
"368 252 LINE",
"199 252 LINE"
);
},
{
closed = 1;
nodes = (
"201 291 LINE",
"162 184 LINE",
"168 184 LINE",
"179 215 OFFCURVE",
"190 217 OFFCURVE",
"217 217 CURVE",
"225 252 LINE",
"201 252 OFFCURVE",
"194 266 OFFCURVE",
"204 291 CURVE"
);
},
{
closed = 1;
nodes = (
"376 265 OFFCURVE",
"375 252 OFFCURVE",
"344 252 CURVE",
"344 217 LINE",
"371 217 OFFCURVE",
"385 216 OFFCURVE",
"390 185 CURVE",
"396 185 LINE",
"375 291 LINE",
"372 291 LINE"
);
}
);
};
hints = (
{
origin = "{0, 11}";
type = Corner;
name = _corner.serifUC;
}
);
layerId = "B0B60A8F-2DEB-4A58-A43B-60A0DADABD8F";
paths = (
{
closed = 1;
nodes = (
"135 -8 OFFCURVE",
"180 0 OFFCURVE",
"234 0 CURVE SMOOTH",
"499 0 OFFCURVE",
"650 168 OFFCURVE",
"650 400 CURVE SMOOTH",
"650 583 OFFCURVE",
"531 690 OFFCURVE",
"322 690 CURVE SMOOTH",
"260 690 OFFCURVE",
"187 687 OFFCURVE",
"115 680 CURVE",
"65 186 LINE SMOOTH",
"59 127 OFFCURVE",
"56 85 OFFCURVE",
"56 59 CURVE SMOOTH",
"56 23 OFFCURVE",
"69 -8 OFFCURVE",
"93 -8 CURVE SMOOTH"
);
},
{
closed = 1;
nodes = (
"181 106 OFFCURVE",
"182 136 OFFCURVE",
"184 159 CURVE SMOOTH",
"229 615 LINE",
"254 615 LINE SMOOTH",
"441 615 OFFCURVE",
"517 535 OFFCURVE",
"517 388 CURVE SMOOTH",
"517 202 OFFCURVE",
"399 75 OFFCURVE",
"183 75 CURVE"
);
}
);
width = 671;
},
{
anchors = (
{
name = bottom;
position = "{320, 0}";
},
{
name = center;
position = "{356, 340}";
},
{
name = top;
position = "{361, 680}";
}
);
background = {
hints = (
{
origin = "{0, 14}";
type = Corner;
name = _corner.serifUC;
}
);
paths = (
{
closed = 1;
nodes = (
"68 23 OFFCURVE",
"81 -8 OFFCURVE",
"105 -8 CURVE SMOOTH",
"147 -8 OFFCURVE",
"192 0 OFFCURVE",
"246 0 CURVE SMOOTH",
"511 0 OFFCURVE",
"662 168 OFFCURVE",
"662 400 CURVE SMOOTH",
"662 583 OFFCURVE",
"543 690 OFFCURVE",
"334 690 CURVE SMOOTH",
"272 690 OFFCURVE",
"199 687 OFFCURVE",
"127 680 CURVE",
"77 186 LINE SMOOTH",
"71 127 OFFCURVE",
"68 85 OFFCURVE",
"68 59 CURVE SMOOTH"
);
},
{
closed = 1;
nodes = (
"193 106 OFFCURVE",
"194 136 OFFCURVE",
"196 159 CURVE SMOOTH",
"241 615 LINE",
"266 615 LINE SMOOTH",
"453 615 OFFCURVE",
"529 535 OFFCURVE",
"529 388 CURVE SMOOTH",
"529 202 OFFCURVE",
"411 75 OFFCURVE",
"195 75 CURVE"
);
}
);
};
hints = (
{
origin = "{0, 11}";
type = Corner;
name = _corner.serifUC;
}
);
layerId = "42CFE912-843B-4D25-82F4-9ABC3064997D";
paths = (
{
closed = 1;
nodes = (
"127 -8 OFFCURVE",
"192 0 OFFCURVE",
"246 0 CURVE SMOOTH",
"526 0 OFFCURVE",
"682 168 OFFCURVE",
"682 400 CURVE SMOOTH",
"682 583 OFFCURVE",
"553 690 OFFCURVE",
"334 690 CURVE SMOOTH",
"272 690 OFFCURVE",
"179 687 OFFCURVE",
"107 680 CURVE",
"57 186 LINE SMOOTH",
"51 127 OFFCURVE",
"48 85 OFFCURVE",
"48 59 CURVE SMOOTH",
"48 23 OFFCURVE",
"61 -8 OFFCURVE",
"85 -8 CURVE SMOOTH"
);
},
{
closed = 1;
nodes = (
"218 117 OFFCURVE",
"219 147 OFFCURVE",
"221 170 CURVE SMOOTH",
"266 609 LINE",
"291 609 LINE SMOOTH",
"438 609 OFFCURVE",
"504 525 OFFCURVE",
"504 388 CURVE SMOOTH",
"504 212 OFFCURVE",
"400 86 OFFCURVE",
"220 86 CURVE"
);
}
);
width = 698;
}
);
leftKerningGroup = H;
leftMetricsKey = H;
rightKerningGroup = O;
rightMetricsKey = O;
unicode = 0044;
},
{
glyphname = Eth;
lastChange = "2022-01-18 09:13:17 +0000";
layers = (
{
components = (
{
name = D;
transform = "{1, 0, 0, 1, 10, 0}";
}
);
layerId = "B0B60A8F-2DEB-4A58-A43B-60A0DADABD8F";
paths = (
{
closed = 1;
nodes = (
"347 321 LINE SMOOTH",
"375 321 OFFCURVE",
"394 374 OFFCURVE",
"394 383 CURVE SMOOTH",
"394 393 OFFCURVE",
"392 396 OFFCURVE",
"376 396 CURVE SMOOTH",
"72 397 LINE SMOOTH",
"42 397 OFFCURVE",
"15 363 OFFCURVE",
"15 335 CURVE SMOOTH",
"15 325 OFFCURVE",
"19 321 OFFCURVE",
"33 321 CURVE SMOOTH"
);
}
);
width = 681;
},
{
components = (
{
name = D;
transform = "{1, 0, 0, 1, 6, 0}";
}
);
layerId = "42CFE912-843B-4D25-82F4-9ABC3064997D";
paths = (
{
closed = 1;
nodes = (
"336 311 LINE SMOOTH",
"375 311 OFFCURVE",
"394 367 OFFCURVE",
"394 390 CURVE SMOOTH",
"394 402 OFFCURVE",
"390 406 OFFCURVE",
"372 406 CURVE SMOOTH",
"81 407 LINE SMOOTH",
"41 407 OFFCURVE",
"6 369 OFFCURVE",
"6 330 CURVE SMOOTH",
"6 320 OFFCURVE",
"12 311 OFFCURVE",
"26 311 CURVE SMOOTH"
);
}
);
width = 704;
}
);
leftKerningGroup = H;
rightKerningGroup = O;
rightMetricsKey = O;
unicode = 00D0;
},
{
glyphname = E;
lastChange = "2022-01-18 09:13:17 +0000";
layers = (
{
anchors = (
{
name = bottom;
position = "{221, 0}";
},
{
name = ogonek;
position = "{431, 5}";
},
{
name = top;
position = "{293, 680}";
},
{
name = topleft;
position = "{67, 680}";
}
);
hints = (
{
origin = "{0, 31}";
type = Corner;
name = _corner.serifUC;
}
);
layerId = "B0B60A8F-2DEB-4A58-A43B-60A0DADABD8F";
paths = (
{
closed = 1;
nodes = (
"128 -12 OFFCURVE",
"209 0 OFFCURVE",
"359 0 CURVE SMOOTH",
"389 0 LINE SMOOTH",
"432 0 OFFCURVE",
"458 62 OFFCURVE",
"458 112 CURVE SMOOTH",
"458 122 OFFCURVE",
"452 126 OFFCURVE",
"446 126 CURVE SMOOTH",
"441 126 OFFCURVE",
"423 122 OFFCURVE",
"399 117 CURVE SMOOTH",
"185 75 LINE",
"181 103 OFFCURVE",
"181 131 OFFCURVE",
"184 159 CURVE SMOOTH",
"229 605 LINE",
"359 588 LINE SMOOTH",
"397 583 OFFCURVE",
"430 578 OFFCURVE",
"444 578 CURVE SMOOTH",
"473 578 OFFCURVE",
"496 631 OFFCURVE",
"496 668 CURVE SMOOTH",
"496 688 OFFCURVE",
"491 690 OFFCURVE",
"476 690 CURVE SMOOTH",
"456 690 OFFCURVE",
"410 680 OFFCURVE",
"269 680 CURVE SMOOTH",
"115 680 LINE",
"65 186 LINE SMOOTH",
"59 127 OFFCURVE",
"56 85 OFFCURVE",
"56 59 CURVE SMOOTH",
"56 23 OFFCURVE",
"69 -12 OFFCURVE",
"93 -12 CURVE SMOOTH"
);
},
{
closed = 1;
nodes = (
"272 317 LINE SMOOTH",
"328 318 OFFCURVE",
"399 357 OFFCURVE",
"399 387 CURVE SMOOTH",
"399 397 OFFCURVE",
"393 404 OFFCURVE",
"383 404 CURVE SMOOTH",
"369 404 OFFCURVE",
"290 392 OFFCURVE",
"205 392 CURVE SMOOTH",
"157 392 LINE",
"144 315 LINE"
);
}
);
width = 492;
},
{
associatedMasterId = "B0B60A8F-2DEB-4A58-A43B-60A0DADABD8F";
hints = (
{
origin = "{1, 29}";
type = Corner;
name = _corner.serifUC;
}
);
layerId = "1A80F6DC-E374-4844-814C-4491431A0499";
name = "Apr 6 21, 10:12";
paths = (
{
closed = 1;
nodes = (
"140 315 LINE",
"292 317 LINE SMOOTH",
"334 318 OFFCURVE",
"405 348 OFFCURVE",
"405 378 CURVE SMOOTH",
"405 388 OFFCURVE",
"399 396 OFFCURVE",
"389 396 CURVE SMOOTH",
"153 392 LINE"
);
},
{
closed = 1;
nodes = (
"46 15 OFFCURVE",
"62 -10 OFFCURVE",
"86 -10 CURVE SMOOTH",
"121 -10 OFFCURVE",
"212 0 OFFCURVE",
"292 0 CURVE SMOOTH",
"384 0 LINE SMOOTH",
"438 0 OFFCURVE",
"464 75 OFFCURVE",
"464 125 CURVE SMOOTH",
"464 135 OFFCURVE",
"458 139 OFFCURVE",
"452 139 CURVE SMOOTH",
"435 139 OFFCURVE",
"353 82 OFFCURVE",
"175 75 CURVE",
"171 103 OFFCURVE",
"174 131 OFFCURVE",
"177 159 CURVE SMOOTH",
"225 605 LINE",
"418 605 OFFCURVE",
"447 552 OFFCURVE",
"467 552 CURVE SMOOTH",
"488 552 OFFCURVE",
"513 601 OFFCURVE",
"511 645 CURVE SMOOTH",
"510 671 OFFCURVE",
"505 680 OFFCURVE",
"474 680 CURVE SMOOTH",
"112 680 LINE",
"49 96 LINE SMOOTH",
"47 79 OFFCURVE",
"46 64 OFFCURVE",
"46 51 CURVE SMOOTH"
);
}
);
visible = 1;
width = 507;
},
{
anchors = (
{
name = bottom;
position = "{234, 0}";
},
{
name = ogonek;
position = "{444, 5}";
},
{
name = top;
position = "{306, 680}";
},
{
name = topleft;
position = "{80, 680}";
}
);
background = {
anchors = (
{
name = bottom;
position = "{234, 0}";
},
{
name = ogonek;
position = "{444, 5}";
},
{
name = top;
position = "{306, 680}";
},
{
name = topleft;
position = "{80, 680}";
}
);
hints = (
{
origin = "{1, 13}";
type = Corner;
name = _corner.serifUC;
}
);
paths = (
{
closed = 1;
nodes = (
"285 317 LINE SMOOTH",
"341 318 OFFCURVE",
"412 357 OFFCURVE",
"412 387 CURVE SMOOTH",
"412 397 OFFCURVE",
"406 404 OFFCURVE",
"396 404 CURVE SMOOTH",
"382 404 OFFCURVE",
"303 392 OFFCURVE",
"218 392 CURVE SMOOTH",
"170 392 LINE",
"157 315 LINE"
);
},
{
closed = 1;
nodes = (
"372 588 LINE SMOOTH",
"410 583 OFFCURVE",
"443 578 OFFCURVE",
"457 578 CURVE SMOOTH",
"486 578 OFFCURVE",
"509 631 OFFCURVE",
"509 668 CURVE SMOOTH",
"509 688 OFFCURVE",
"504 690 OFFCURVE",
"489 690 CURVE SMOOTH",
"469 690 OFFCURVE",
"423 680 OFFCURVE",
"282 680 CURVE SMOOTH",
"128 680 LINE",
"78 186 LINE SMOOTH",
"72 127 OFFCURVE",
"69 85 OFFCURVE",
"69 59 CURVE SMOOTH",
"69 23 OFFCURVE",
"82 -12 OFFCURVE",
"106 -12 CURVE SMOOTH",
"141 -12 OFFCURVE",
"222 0 OFFCURVE",
"372 0 CURVE SMOOTH",
"402 0 LINE SMOOTH",
"445 0 OFFCURVE",
"471 62 OFFCURVE",
"471 112 CURVE SMOOTH",
"471 122 OFFCURVE",
"465 126 OFFCURVE",
"459 126 CURVE SMOOTH",
"454 126 OFFCURVE",
"436 122 OFFCURVE",
"412 117 CURVE SMOOTH",
"198 75 LINE",
"194 103 OFFCURVE",
"194 131 OFFCURVE",
"197 159 CURVE SMOOTH",
"242 605 LINE"
);
}
);
};
hints = (
{
origin = "{0, 31}";
type = Corner;
name = _corner.serifUC;
}
);
layerId = "42CFE912-843B-4D25-82F4-9ABC3064997D";
paths = (
{
closed = 1;
nodes = (
"121 -12 OFFCURVE",
"222 0 OFFCURVE",
"372 0 CURVE SMOOTH",
"417 0 LINE SMOOTH",
"460 0 OFFCURVE",
"491 81 OFFCURVE",
"491 118 CURVE SMOOTH",
"491 136 OFFCURVE",
"485 145 OFFCURVE",
"474 145 CURVE SMOOTH",
"464 145 OFFCURVE",
"436 137 OFFCURVE",
"412 132 CURVE SMOOTH",
"223 89 LINE",
"219 117 OFFCURVE",
"219 147 OFFCURVE",
"222 179 CURVE SMOOTH",
"267 595 LINE",
"379 575 LINE SMOOTH",
"417 568 OFFCURVE",
"459 558 OFFCURVE",
"473 558 CURVE SMOOTH",
"502 558 OFFCURVE",
"535 633 OFFCURVE",
"535 670 CURVE SMOOTH",
"535 690 OFFCURVE",
"518 692 OFFCURVE",
"503 692 CURVE SMOOTH",
"481 692 OFFCURVE",
"417 680 OFFCURVE",
"282 680 CURVE SMOOTH",
"108 680 LINE",
"58 186 LINE SMOOTH",
"52 127 OFFCURVE",
"49 85 OFFCURVE",
"49 59 CURVE SMOOTH",
"49 23 OFFCURVE",
"62 -12 OFFCURVE",
"86 -12 CURVE SMOOTH"
);
},
{
closed = 1;
nodes = (
"291 307 LINE SMOOTH",
"374 308 OFFCURVE",
"428 357 OFFCURVE",
"428 388 CURVE SMOOTH",
"428 401 OFFCURVE",
"420 414 OFFCURVE",
"402 414 CURVE SMOOTH",
"389 414 OFFCURVE",
"319 402 OFFCURVE",
"234 402 CURVE SMOOTH",
"186 402 LINE",
"173 305 LINE"
);
}
);
width = 524;
}
);
leftKerningGroup = H;
leftMetricsKey = H;
rightKerningGroup = E;
rightMetricsKey = B;
unicode = 0045;
},
{
glyphname = F;
lastChange = "2022-01-18 09:13:17 +0000";
layers = (
{
anchors = (
{
name = bottom;
position = "{203, 0}";
},
{
name = top;
position = "{275, 680}";
}
);
background = {
paths = (
{
closed = 1;
nodes = (
"162 680 OFFCURVE",
"112 680 OFFCURVE",
"100 680 CURVE",
"92 680 OFFCURVE",
"78 678 OFFCURVE",
"76 656 CURVE SMOOTH",
"66 518 OFFCURVE",
"40 246 OFFCURVE",
"19 75 CURVE SMOOTH",
"13 28 OFFCURVE",
"7 0 OFFCURVE",
"47 0 CURVE SMOOTH",
"56 0 OFFCURVE",
"73 0 OFFCURVE",
"109 0 CURVE SMOOTH",
"136 0 OFFCURVE",
"132 28 OFFCURVE",
"136 71 CURVE SMOOTH",
"150 242 OFFCURVE",
"176 516 OFFCURVE",
"194 660 CURVE SMOOTH",
"196 678 OFFCURVE",
"187 680 OFFCURVE",
"178 680 CURVE"
);
},
{
closed = 1;
nodes = (
"178 389 LINE",
"178 342 LINE",
"382 342 LINE",
"382 389 LINE"
);
},
{
closed = 1;
nodes = (
"166 432 LINE",
"151 308 LINE",
"157 308 LINE",
"160 344 OFFCURVE",
"173 342 OFFCURVE",
"206 342 CURVE",
"206 389 LINE",
"174 389 OFFCURVE",
"166 397 OFFCURVE",
"169 432 CURVE"
);
},
{
closed = 1;
nodes = (
"397 340 OFFCURVE",
"399 341 OFFCURVE",
"401 348 CURVE SMOOTH",
"403 355 OFFCURVE",
"407 371 OFFCURVE",
"410 382 CURVE SMOOTH",
"412 390 OFFCURVE",
"407 392 OFFCURVE",
"401 392 CURVE SMOOTH",
"385 392 OFFCURVE",
"337 389 OFFCURVE",
"323 389 CURVE",
"323 342 LINE",
"347 342 OFFCURVE",
"378 340 OFFCURVE",
"390 340 CURVE"
);
},
{
closed = 1;
nodes = (
"225 680 LINE",
"225 635 LINE",
"379 635 LINE",
"379 680 LINE"
);
},
{
closed = 1;
nodes = (
"178 680 LINE",
"178 593 LINE",
"186 593 LINE",
"190 631 OFFCURVE",
"200 635 OFFCURVE",
"233 635 CURVE",
"233 680 LINE"
);
},
{
closed = 1;
nodes = (
"452 630 OFFCURVE",
"454 631 OFFCURVE",
"456 638 CURVE SMOOTH",
"458 645 OFFCURVE",
"462 659 OFFCURVE",
"465 670 CURVE SMOOTH",
"467 679 OFFCURVE",
"462 680 OFFCURVE",
"456 680 CURVE SMOOTH",
"440 680 OFFCURVE",
"365 680 OFFCURVE",
"351 680 CURVE",
"351 635 LINE",
"401 635 OFFCURVE",
"437 630 OFFCURVE",
"445 630 CURVE"
);
},
{
closed = 1;
nodes = (
"336 55 LINE",
"166 55 LINE",
"166 0 LINE",
"336 0 LINE"
);
},
{
closed = 1;
nodes = (
"174 55 LINE",
"141 55 OFFCURVE",
"134 59 OFFCURVE",
"139 107 CURVE",
"110 107 LINE",
"109 0 LINE",
"174 0 LINE"
);
},
{
closed = 1;
nodes = (
"408 0 OFFCURVE",
"410 1 OFFCURVE",
"412 8 CURVE SMOOTH",
"414 15 OFFCURVE",
"420 41 OFFCURVE",
"423 52 CURVE SMOOTH",
"425 61 OFFCURVE",
"418 62 OFFCURVE",
"412 62 CURVE SMOOTH",
"396 62 OFFCURVE",
"352 55 OFFCURVE",
"310 55 CURVE",
"310 0 LINE",
"334 0 OFFCURVE",
"389 0 OFFCURVE",
"401 0 CURVE"
);
}
);
};
hints = (
{
origin = "{0, 15}";
type = Corner;
name = _corner.serifUC;
},
{
origin = "{0, 0}";
type = Corner;
name = _corner.serifUC;
}
);
layerId = "B0B60A8F-2DEB-4A58-A43B-60A0DADABD8F";
paths = (
{
closed = 1;
nodes = (
"165 -12 LINE",
"224 605 LINE",
"365 584 LINE SMOOTH",
"393 580 OFFCURVE",
"417 578 OFFCURVE",
"429 578 CURVE SMOOTH",
"458 578 OFFCURVE",
"481 631 OFFCURVE",
"481 668 CURVE SMOOTH",
"481 688 OFFCURVE",
"476 690 OFFCURVE",
"461 690 CURVE SMOOTH",
"441 690 OFFCURVE",
"405 680 OFFCURVE",
"264 680 CURVE SMOOTH",
"115 680 LINE",
"62 186 LINE SMOOTH",
"56 127 OFFCURVE",
"52 85 OFFCURVE",
"52 59 CURVE SMOOTH",
"52 23 OFFCURVE",
"59 -12 OFFCURVE",
"85 -12 CURVE SMOOTH"
);
},
{
closed = 1;
nodes = (
"267 297 LINE SMOOTH",
"333 298 OFFCURVE",
"404 337 OFFCURVE",
"404 367 CURVE SMOOTH",
"404 377 OFFCURVE",
"398 384 OFFCURVE",
"388 384 CURVE SMOOTH",
"374 384 OFFCURVE",
"285 372 OFFCURVE",
"200 372 CURVE SMOOTH",
"152 372 LINE",
"139 295 LINE"
);
}
);
width = 456;
},
{
anchors = (
{
name = bottom;
position = "{196, 0}";
},
{
name = top;
position = "{268, 680}";
}
);
background = {
anchors = (
{
name = bottom;
position = "{196, 0}";
},
{
name = top;
position = "{268, 680}";
}
);
hints = (
{
origin = "{1, 13}";
type = Corner;
name = _corner.serifUC;
},
{
origin = "{1, 21}";
type = Corner;
name = _corner.serifUC;
},
{
origin = "{3, 13}";
type = Corner;
name = _corner.serifUC;
}
);
paths = (
{
closed = 1;
nodes = (
"260 297 LINE SMOOTH",
"326 298 OFFCURVE",
"397 337 OFFCURVE",
"397 367 CURVE SMOOTH",
"397 377 OFFCURVE",
"391 384 OFFCURVE",
"381 384 CURVE SMOOTH",
"367 384 OFFCURVE",
"278 372 OFFCURVE",
"193 372 CURVE SMOOTH",
"145 372 LINE",
"132 295 LINE"
);
},
{
closed = 1;
nodes = (
"358 584 LINE SMOOTH",
"386 580 OFFCURVE",
"410 578 OFFCURVE",
"422 578 CURVE SMOOTH",
"451 578 OFFCURVE",
"474 631 OFFCURVE",
"474 668 CURVE SMOOTH",
"474 688 OFFCURVE",
"469 690 OFFCURVE",
"454 690 CURVE SMOOTH",
"434 690 OFFCURVE",
"398 680 OFFCURVE",
"257 680 CURVE SMOOTH",
"108 680 LINE",
"55 186 LINE SMOOTH",
"49 127 OFFCURVE",
"45 85 OFFCURVE",
"45 59 CURVE SMOOTH",
"45 23 OFFCURVE",
"52 -12 OFFCURVE",
"78 -12 CURVE SMOOTH",
"158 -12 LINE",
"217 605 LINE"
);
},
{
closed = 1;
nodes = (
"291 307 LINE SMOOTH",
"374 308 OFFCURVE",
"428 357 OFFCURVE",
"428 388 CURVE SMOOTH",
"428 401 OFFCURVE",
"420 414 OFFCURVE",
"402 414 CURVE SMOOTH",
"389 414 OFFCURVE",
"319 402 OFFCURVE",
"234 402 CURVE SMOOTH",
"186 402 LINE",
"173 305 LINE"
);
},
{
closed = 1;
nodes = (
"379 575 LINE SMOOTH",
"417 568 OFFCURVE",
"459 558 OFFCURVE",
"473 558 CURVE SMOOTH",
"502 558 OFFCURVE",
"535 633 OFFCURVE",
"535 670 CURVE SMOOTH",
"535 690 OFFCURVE",
"518 692 OFFCURVE",
"503 692 CURVE SMOOTH",
"481 692 OFFCURVE",
"417 680 OFFCURVE",
"282 680 CURVE SMOOTH",
"108 680 LINE",
"58 186 LINE SMOOTH",
"52 127 OFFCURVE",
"49 85 OFFCURVE",
"49 59 CURVE SMOOTH",
"49 23 OFFCURVE",
"62 -12 OFFCURVE",
"86 -12 CURVE SMOOTH",
"121 -12 OFFCURVE",
"222 0 OFFCURVE",
"372 0 CURVE SMOOTH",
"417 0 LINE SMOOTH",
"460 0 OFFCURVE",
"491 81 OFFCURVE",
"491 118 CURVE SMOOTH",
"491 136 OFFCURVE",
"485 145 OFFCURVE",
"474 145 CURVE SMOOTH",
"464 145 OFFCURVE",
"436 137 OFFCURVE",
"412 132 CURVE SMOOTH",
"223 89 LINE",
"219 117 OFFCURVE",
"219 147 OFFCURVE",
"222 179 CURVE SMOOTH",
"267 595 LINE"
);
}
);
};
hints = (
{
origin = "{0, 15}";
type = Corner;
name = _corner.serifUC;
},
{
origin = "{0, 0}";
type = Corner;
name = _corner.serifUC;
}
);
layerId = "42CFE912-843B-4D25-82F4-9ABC3064997D";
paths = (
{
closed = 1;
nodes = (
"213 -12 LINE",
"267 595 LINE",
"379 575 LINE SMOOTH",
"407 570 OFFCURVE",
"459 558 OFFCURVE",
"473 558 CURVE SMOOTH",
"502 558 OFFCURVE",
"535 633 OFFCURVE",
"535 670 CURVE SMOOTH",
"535 690 OFFCURVE",
"521 692 OFFCURVE",
"506 692 CURVE SMOOTH",
"484 692 OFFCURVE",
"398 680 OFFCURVE",
"257 680 CURVE SMOOTH",
"108 680 LINE",
"58 186 LINE SMOOTH",
"52 127 OFFCURVE",
"49 108 OFFCURVE",
"49 82 CURVE SMOOTH",
"49 54 OFFCURVE",
"61 -12 OFFCURVE",
"109 -12 CURVE SMOOTH"
);
},
{
closed = 1;
nodes = (
"306 288 LINE SMOOTH",
"389 289 OFFCURVE",
"443 338 OFFCURVE",
"443 369 CURVE SMOOTH",
"443 382 OFFCURVE",
"435 395 OFFCURVE",
"417 395 CURVE SMOOTH",
"404 395 OFFCURVE",
"334 383 OFFCURVE",
"249 383 CURVE SMOOTH",
"201 383 LINE",
"188 286 LINE"
);
}
);
width = 510;
}
);
leftKerningGroup = H;
leftMetricsKey = H;
rightKerningGroup = F;
rightMetricsKey = B;
unicode = 0046;
},
{
glyphname = G;
lastChange = "2022-01-18 09:13:17 +0000";
layers = (
{
associatedMasterId = "B0B60A8F-2DEB-4A58-A43B-60A0DADABD8F";
background = {
paths = (
{
closed = 1;
nodes = (
"554 169 OFFCURVE",
"575 136 OFFCURVE",
"575 109 CURVE SMOOTH",
"575 74 OFFCURVE",
"453 -9 OFFCURVE",
"307 -9 CURVE SMOOTH",
"173 -9 OFFCURVE",
"30 65 OFFCURVE",
"30 234 CURVE SMOOTH",
"30 473 OFFCURVE",
"234 688 OFFCURVE",
"439 688 CURVE SMOOTH",
"569 688 OFFCURVE",
"641 592 OFFCURVE",
"641 463 CURVE SMOOTH",
"641 434 OFFCURVE",
"635 426 OFFCURVE",
"615 426 CURVE",
"526 426 LINE",
"507 426 OFFCURVE",
"505 433 OFFCURVE",
"505 443 CURVE SMOOTH",
"505 463 OFFCURVE",
"510 479 OFFCURVE",
"510 518 CURVE SMOOTH",
"510 589 OFFCURVE",
"482 630 OFFCURVE",
"423 630 CURVE SMOOTH",
"281 630 OFFCURVE",
"167 409 OFFCURVE",
"167 247 CURVE SMOOTH",
"167 103 OFFCURVE",
"263 56 OFFCURVE",
"324 56 CURVE SMOOTH",
"424 56 OFFCURVE",
"509 169 OFFCURVE",
"537 169 CURVE SMOOTH"
);
}
);
};
hints = (
{
origin = "{0, 15}";
type = Corner;
name = _corner.serifUC;
}
);
layerId = "1E3E5393-37B4-495A-B4F1-37D0090E79B2";
name = "Apr 6 21, 11:40";
paths = (
{
closed = 1;
nodes = (
"25 86 OFFCURVE",
"144 -16 OFFCURVE",
"321 -16 CURVE SMOOTH",
"407 -16 OFFCURVE",
"481 9 OFFCURVE",
"532 54 CURVE",
"547 -6 LINE",
"588 0 LINE",
"612 334 LINE SMOOTH",
"613 342 OFFCURVE",
"613 350 OFFCURVE",
"613 358 CURVE SMOOTH",
"613 394 OFFCURVE",
"604 404 OFFCURVE",
"577 404 CURVE SMOOTH",
"497 404 LINE",
"478 202 LINE SMOOTH",
"470 118 OFFCURVE",
"418 64 OFFCURVE",
"334 64 CURVE SMOOTH",
"231 64 OFFCURVE",
"158 142 OFFCURVE",
"158 301 CURVE SMOOTH",
"158 492 OFFCURVE",
"252 616 OFFCURVE",
"382 616 CURVE SMOOTH",
"487 616 OFFCURVE",
"531 528 OFFCURVE",
"559 528 CURVE SMOOTH",
"580 528 OFFCURVE",
"594 574 OFFCURVE",
"594 616 CURVE SMOOTH",
"594 668 OFFCURVE",
"508 696 OFFCURVE",
"400 696 CURVE SMOOTH",
"180 696 OFFCURVE",
"25 522 OFFCURVE",
"25 283 CURVE SMOOTH"
);
}
);
width = 671;
},
{
anchors = (
{
name = bottom;
position = "{310, 0}";
},
{
name = top;
position = "{382, 680}";
}
);
background = {
paths = (
{
closed = 1;
nodes = (
"572 169 OFFCURVE",
"593 136 OFFCURVE",
"593 109 CURVE SMOOTH",
"593 74 OFFCURVE",
"471 -9 OFFCURVE",
"325 -9 CURVE SMOOTH",
"191 -9 OFFCURVE",
"48 65 OFFCURVE",
"48 234 CURVE SMOOTH",
"48 473 OFFCURVE",
"252 688 OFFCURVE",
"457 688 CURVE SMOOTH",
"587 688 OFFCURVE",
"659 592 OFFCURVE",
"659 463 CURVE SMOOTH",
"659 434 OFFCURVE",
"653 426 OFFCURVE",
"633 426 CURVE",
"544 426 LINE",
"525 426 OFFCURVE",
"523 433 OFFCURVE",
"523 443 CURVE SMOOTH",
"523 463 OFFCURVE",
"528 479 OFFCURVE",
"528 518 CURVE SMOOTH",
"528 589 OFFCURVE",
"500 630 OFFCURVE",
"441 630 CURVE SMOOTH",
"299 630 OFFCURVE",
"185 409 OFFCURVE",
"185 247 CURVE SMOOTH",
"185 103 OFFCURVE",
"281 56 OFFCURVE",
"342 56 CURVE SMOOTH",
"442 56 OFFCURVE",
"527 169 OFFCURVE",
"555 169 CURVE SMOOTH"
);
}
);
};
hints = (
{
origin = "{0, 13}";
type = Corner;
name = _corner.serifUC;
}
);
layerId = "B0B60A8F-2DEB-4A58-A43B-60A0DADABD8F";
paths = (
{
closed = 1;
nodes = (
"422 -16 OFFCURVE",
"488 -11 OFFCURVE",
"560 0 CURVE SMOOTH",
"586 4 OFFCURVE",
"594 37 OFFCURVE",
"599 76 CURVE SMOOTH",
"630 334 LINE SMOOTH",
"631 342 OFFCURVE",
"631 350 OFFCURVE",
"631 358 CURVE SMOOTH",
"631 394 OFFCURVE",
"625 404 OFFCURVE",
"598 404 CURVE SMOOTH",
"518 404 LINE",
"481 68 LINE",
"276 68 OFFCURVE",
"176 123 OFFCURVE",
"176 301 CURVE SMOOTH",
"176 492 OFFCURVE",
"270 616 OFFCURVE",
"399 616 CURVE SMOOTH",
"454 616 OFFCURVE",
"488 593 OFFCURVE",
"520 577 CURVE SMOOTH",
"538 568 OFFCURVE",
"552 558 OFFCURVE",
"566 558 CURVE SMOOTH",
"584 558 OFFCURVE",
"593 584 OFFCURVE",
"593 616 CURVE SMOOTH",
"593 676 OFFCURVE",
"538 696 OFFCURVE",
"441 696 CURVE SMOOTH",
"198 696 OFFCURVE",
"43 522 OFFCURVE",
"43 283 CURVE SMOOTH",
"43 86 OFFCURVE",
"162 -16 OFFCURVE",
"362 -16 CURVE SMOOTH"
);
}
);
width = 665;
},
{
associatedMasterId = "B0B60A8F-2DEB-4A58-A43B-60A0DADABD8F";
background = {
paths = (
{
closed = 1;
nodes = (
"567 169 OFFCURVE",
"588 136 OFFCURVE",
"588 109 CURVE SMOOTH",
"588 74 OFFCURVE",
"466 -9 OFFCURVE",
"320 -9 CURVE SMOOTH",
"186 -9 OFFCURVE",
"43 65 OFFCURVE",
"43 234 CURVE SMOOTH",
"43 473 OFFCURVE",
"247 688 OFFCURVE",
"452 688 CURVE SMOOTH",
"582 688 OFFCURVE",
"654 592 OFFCURVE",
"654 463 CURVE SMOOTH",
"654 434 OFFCURVE",
"648 426 OFFCURVE",
"628 426 CURVE",
"539 426 LINE",
"520 426 OFFCURVE",
"518 433 OFFCURVE",
"518 443 CURVE SMOOTH",
"518 463 OFFCURVE",
"523 479 OFFCURVE",
"523 518 CURVE SMOOTH",
"523 589 OFFCURVE",
"495 630 OFFCURVE",
"436 630 CURVE SMOOTH",
"294 630 OFFCURVE",
"180 409 OFFCURVE",
"180 247 CURVE SMOOTH",
"180 103 OFFCURVE",
"276 56 OFFCURVE",
"337 56 CURVE SMOOTH",
"437 56 OFFCURVE",
"522 169 OFFCURVE",
"550 169 CURVE SMOOTH"
);
}
);
};
hints = (
{
origin = "{0, 13}";
type = Corner;
name = _corner.serifUC;
}
);
layerId = "F28DD4BC-2B9D-4329-B6A2-A969ADD9167D";
name = "Apr 7 21, 12:58";
paths = (
{
closed = 1;
nodes = (
"425 -16 OFFCURVE",
"499 3 OFFCURVE",
"565 52 CURVE SMOOTH",
"597 75 OFFCURVE",
"599 96 OFFCURVE",
"603 135 CURVE SMOOTH",
"625 334 LINE SMOOTH",
"626 342 OFFCURVE",
"626 350 OFFCURVE",
"626 358 CURVE SMOOTH",
"626 394 OFFCURVE",
"620 404 OFFCURVE",
"593 404 CURVE SMOOTH",
"513 404 LINE",
"486 154 LINE SMOOTH",
"479 90 OFFCURVE",
"447 64 OFFCURVE",
"347 64 CURVE SMOOTH",
"244 64 OFFCURVE",
"171 142 OFFCURVE",
"171 301 CURVE SMOOTH",
"171 492 OFFCURVE",
"265 616 OFFCURVE",
"394 616 CURVE SMOOTH",
"449 616 OFFCURVE",
"483 593 OFFCURVE",
"515 577 CURVE SMOOTH",
"533 568 OFFCURVE",
"547 558 OFFCURVE",
"561 558 CURVE SMOOTH",
"579 558 OFFCURVE",
"588 584 OFFCURVE",
"588 616 CURVE SMOOTH",
"588 676 OFFCURVE",
"533 696 OFFCURVE",
"436 696 CURVE SMOOTH",
"193 696 OFFCURVE",
"38 522 OFFCURVE",
"38 283 CURVE SMOOTH",
"38 86 OFFCURVE",
"157 -16 OFFCURVE",
"334 -16 CURVE SMOOTH"
);
}
);
width = 665;
},
{
anchors = (
{
name = bottom;
position = "{305, 0}";
},
{
name = top;
position = "{377, 680}";
}
);
associatedMasterId = "B0B60A8F-2DEB-4A58-A43B-60A0DADABD8F";
background = {
paths = (
{
closed = 1;
nodes = (
"567 169 OFFCURVE",
"588 136 OFFCURVE",
"588 109 CURVE SMOOTH",
"588 74 OFFCURVE",
"466 -9 OFFCURVE",
"320 -9 CURVE SMOOTH",
"186 -9 OFFCURVE",
"43 65 OFFCURVE",
"43 234 CURVE SMOOTH",
"43 473 OFFCURVE",
"247 688 OFFCURVE",
"452 688 CURVE SMOOTH",
"582 688 OFFCURVE",
"654 592 OFFCURVE",
"654 463 CURVE SMOOTH",
"654 434 OFFCURVE",
"648 426 OFFCURVE",
"628 426 CURVE",
"539 426 LINE",
"520 426 OFFCURVE",
"518 433 OFFCURVE",
"518 443 CURVE SMOOTH",
"518 463 OFFCURVE",
"523 479 OFFCURVE",
"523 518 CURVE SMOOTH",
"523 589 OFFCURVE",
"495 630 OFFCURVE",
"436 630 CURVE SMOOTH",
"294 630 OFFCURVE",
"180 409 OFFCURVE",
"180 247 CURVE SMOOTH",
"180 103 OFFCURVE",
"276 56 OFFCURVE",
"337 56 CURVE SMOOTH",
"437 56 OFFCURVE",
"522 169 OFFCURVE",
"550 169 CURVE SMOOTH"
);
}
);
};
hints = (
{
origin = "{0, 13}";
type = Corner;
name = _corner.serifUC;
}
);
layerId = "F48C5AE6-FA02-41E7-8E52-AAD5820B3384";
name = "Apr 7 21, 16:44";
paths = (
{
closed = 1;
nodes = (
"425 -16 OFFCURVE",
"502 10 OFFCURVE",
"550 34 CURVE SMOOTH",
"594 56 OFFCURVE",
"599 96 OFFCURVE",
"603 135 CURVE SMOOTH",
"625 334 LINE SMOOTH",
"626 342 OFFCURVE",
"626 350 OFFCURVE",
"626 358 CURVE SMOOTH",
"626 394 OFFCURVE",
"620 404 OFFCURVE",
"593 404 CURVE SMOOTH",
"513 404 LINE",
"481 97 LINE",
"455 80 OFFCURVE",
"405 64 OFFCURVE",
"347 64 CURVE SMOOTH",
"244 64 OFFCURVE",
"171 142 OFFCURVE",
"171 301 CURVE SMOOTH",
"171 492 OFFCURVE",
"265 616 OFFCURVE",
"394 616 CURVE SMOOTH",
"449 616 OFFCURVE",
"483 593 OFFCURVE",
"515 577 CURVE SMOOTH",
"533 568 OFFCURVE",
"547 558 OFFCURVE",
"561 558 CURVE SMOOTH",
"579 558 OFFCURVE",
"588 584 OFFCURVE",
"588 616 CURVE SMOOTH",
"588 676 OFFCURVE",
"533 696 OFFCURVE",
"436 696 CURVE SMOOTH",
"193 696 OFFCURVE",
"38 522 OFFCURVE",
"38 283 CURVE SMOOTH",
"38 86 OFFCURVE",
"157 -16 OFFCURVE",
"334 -16 CURVE SMOOTH"
);
}
);
width = 660;
},
{
anchors = (
{
name = bottom;
position = "{324, 0}";
},
{
name = top;
position = "{396, 680}";
}
);
background = {
anchors = (
{
name = bottom;
position = "{324, 0}";
},
{
name = top;
position = "{396, 680}";
}
);
hints = (
{
origin = "{0, 13}";
type = Corner;
name = _corner.serifUC;
}
);
paths = (
{
closed = 1;
nodes = (
"436 -16 OFFCURVE",
"502 -11 OFFCURVE",
"574 0 CURVE SMOOTH",
"600 4 OFFCURVE",
"608 37 OFFCURVE",
"613 76 CURVE SMOOTH",
"644 334 LINE SMOOTH",
"645 342 OFFCURVE",
"645 350 OFFCURVE",
"645 358 CURVE SMOOTH",
"645 394 OFFCURVE",
"639 404 OFFCURVE",
"612 404 CURVE SMOOTH",
"532 404 LINE",
"495 68 LINE",
"290 68 OFFCURVE",
"190 123 OFFCURVE",
"190 301 CURVE SMOOTH",
"190 492 OFFCURVE",
"284 616 OFFCURVE",
"413 616 CURVE SMOOTH",
"468 616 OFFCURVE",
"502 593 OFFCURVE",
"534 577 CURVE SMOOTH",
"552 568 OFFCURVE",
"566 558 OFFCURVE",
"580 558 CURVE SMOOTH",
"598 558 OFFCURVE",
"607 584 OFFCURVE",
"607 616 CURVE SMOOTH",
"607 676 OFFCURVE",
"552 696 OFFCURVE",
"455 696 CURVE SMOOTH",
"212 696 OFFCURVE",
"57 522 OFFCURVE",
"57 283 CURVE SMOOTH",
"57 86 OFFCURVE",
"176 -16 OFFCURVE",
"376 -16 CURVE SMOOTH"
);
}
);
};
hints = (
{
origin = "{0, 13}";
type = Corner;
name = _corner.serifUC;
}
);
layerId = "42CFE912-843B-4D25-82F4-9ABC3064997D";
paths = (
{
closed = 1;
nodes = (
"436 -16 OFFCURVE",
"512 -11 OFFCURVE",
"584 0 CURVE SMOOTH",
"610 4 OFFCURVE",
"618 37 OFFCURVE",
"623 76 CURVE SMOOTH",
"654 334 LINE SMOOTH",
"655 342 OFFCURVE",
"655 350 OFFCURVE",
"655 358 CURVE SMOOTH",
"655 394 OFFCURVE",
"644 404 OFFCURVE",
"605 404 CURVE SMOOTH",
"507 404 LINE",
"470 73 LINE",
"315 73 OFFCURVE",
"215 123 OFFCURVE",
"215 301 CURVE SMOOTH",
"215 492 OFFCURVE",
"293 611 OFFCURVE",
"413 611 CURVE SMOOTH",
"462 611 OFFCURVE",
"500 583 OFFCURVE",
"532 562 CURVE SMOOTH",
"549 551 OFFCURVE",
"580 531 OFFCURVE",
"592 531 CURVE SMOOTH",
"612 531 OFFCURVE",
"631 565 OFFCURVE",
"631 602 CURVE SMOOTH",
"631 675 OFFCURVE",
"567 696 OFFCURVE",
"450 696 CURVE SMOOTH",
"212 696 OFFCURVE",
"37 522 OFFCURVE",
"37 283 CURVE SMOOTH",
"37 86 OFFCURVE",
"176 -16 OFFCURVE",
"376 -16 CURVE SMOOTH"
);
}
);
width = 689;
}
);
leftKerningGroup = O;
leftMetricsKey = O;
rightKerningGroup = G;
unicode = 0047;
},
{
glyphname = H;
lastChange = "2022-01-18 09:13:17 +0000";
layers = (
{
anchors = (
{
name = bottom;
position = "{285, 0}";
},
{
name = center;
position = "{321, 340}";
},
{
name = top;
position = "{357, 680}";
},
{
name = topleft;
position = "{67, 680}";
}
);
components = (
{
name = I;
},
{
name = I;
transform = "{1, 0, 0, 1, 402, 0}";
}
);
layerId = "B0B60A8F-2DEB-4A58-A43B-60A0DADABD8F";
paths = (
{
closed = 1;
nodes = (
"524 315 LINE",
"524 390 LINE",
"153 390 LINE",
"153 315 LINE"
);
}
);
width = 660;
},
{
associatedMasterId = "B0B60A8F-2DEB-4A58-A43B-60A0DADABD8F";
layerId = "506A5724-3951-421D-B233-FED29727E909";
name = "Mar 2 21, 15:32";
paths = (
{
closed = 1;
nodes = (
"125 680 LINE SMOOTH",
"117 679 OFFCURVE",
"103 678 OFFCURVE",
"101 656 CURVE SMOOTH",
"91 518 OFFCURVE",
"65 232 OFFCURVE",
"44 61 CURVE SMOOTH",
"38 14 OFFCURVE",
"33 -23 OFFCURVE",
"72 -15 CURVE SMOOTH",
"133 -3 LINE SMOOTH",
"159 2 OFFCURVE",
"156 26 OFFCURVE",
"160 69 CURVE SMOOTH",
"174 240 OFFCURVE",
"200 528 OFFCURVE",
"218 672 CURVE SMOOTH",
"220 690 OFFCURVE",
"211 693 OFFCURVE",
"202 692 CURVE SMOOTH"
);
},
{
closed = 1;
nodes = (
"571 680 LINE SMOOTH",
"563 679 OFFCURVE",
"554 678 OFFCURVE",
"553 660 CURVE SMOOTH",
"543 516 OFFCURVE",
"516 226 OFFCURVE",
"494 57 CURVE SMOOTH",
"488 14 OFFCURVE",
"482 -20 OFFCURVE",
"509 -15 CURVE SMOOTH",
"583 -2 LINE SMOOTH",
"610 3 OFFCURVE",
"607 26 OFFCURVE",
"610 69 CURVE SMOOTH",
"623 246 OFFCURVE",
"653 530 OFFCURVE",
"670 668 CURVE SMOOTH",
"673 690 OFFCURVE",
"656 694 OFFCURVE",
"646 692 CURVE SMOOTH"
);
},
{
closed = 1;
nodes = (
"181 308 LINE",
"184 339 OFFCURVE",
"193 342 OFFCURVE",
"216 342 CURVE SMOOTH",
"490 342 LINE SMOOTH",
"522 342 OFFCURVE",
"525 340 OFFCURVE",
"521 304 CURVE",
"527 304 LINE",
"538 447 LINE",
"535 447 LINE",
"531 408 OFFCURVE",
"526 395 OFFCURVE",
"490 395 CURVE SMOOTH",
"230 395 LINE SMOOTH",
"198 395 OFFCURVE",
"190 404 OFFCURVE",
"194 441 CURVE",
"191 441 LINE",
"175 308 LINE"
);
}
);
width = 710;
},
{
anchors = (
{
name = bottom;
position = "{326, 0}";
},
{
name = center;
position = "{362, 340}";
},
{
name = top;
position = "{398, 680}";
},
{
name = topleft;
position = "{67, 680}";
}
);
components = (
{
alignment = -1;
name = I;
},
{
name = I;
transform = "{1, 0, 0, 1, 412, 0}";
}
);
layerId = "42CFE912-843B-4D25-82F4-9ABC3064997D";
paths = (
{
closed = 1;
nodes = (
"547 300 LINE",
"547 405 LINE",
"176 405 LINE",
"176 300 LINE"
);
}
);
width = 701;
}
);
leftKerningGroup = H;
leftMetricsKey = I;
rightKerningGroup = H;
rightMetricsKey = I;
unicode = 0048;
},
{
glyphname = Hbar;
lastChange = "2022-01-18 09:13:17 +0000";
layers = (
{
components = (
{
name = H;
}
);
layerId = "B0B60A8F-2DEB-4A58-A43B-60A0DADABD8F";
paths = (
{
closed = 1;
nodes = (
"635 451 LINE SMOOTH",
"663 451 OFFCURVE",
"682 504 OFFCURVE",
"682 513 CURVE SMOOTH",
"682 523 OFFCURVE",
"680 526 OFFCURVE",
"664 526 CURVE SMOOTH",
"102 527 LINE SMOOTH",
"72 527 OFFCURVE",
"45 493 OFFCURVE",
"45 465 CURVE SMOOTH",
"45 455 OFFCURVE",
"49 451 OFFCURVE",
"63 451 CURVE SMOOTH"
);
}
);
width = 660;
},
{
background = {
paths = (
{
closed = 1;
nodes = (
"92 527 LINE SMOOTH",
"62 527 OFFCURVE",
"35 493 OFFCURVE",
"35 465 CURVE SMOOTH",
"35 455 OFFCURVE",
"39 451 OFFCURVE",
"53 451 CURVE SMOOTH",
"627 451 LINE SMOOTH",
"655 451 OFFCURVE",
"674 504 OFFCURVE",
"674 513 CURVE SMOOTH",
"674 523 OFFCURVE",
"672 526 OFFCURVE",
"656 526 CURVE SMOOTH"
);
}
);
};
components = (
{
name = H;
}
);
layerId = "42CFE912-843B-4D25-82F4-9ABC3064997D";
paths = (
{
closed = 1;
nodes = (
"674 461 LINE SMOOTH",
"702 461 OFFCURVE",
"721 524 OFFCURVE",
"721 533 CURVE SMOOTH",
"721 543 OFFCURVE",
"719 546 OFFCURVE",
"703 546 CURVE SMOOTH",
"80 547 LINE SMOOTH",
"50 547 OFFCURVE",
"23 503 OFFCURVE",
"23 475 CURVE SMOOTH",
"23 465 OFFCURVE",
"27 461 OFFCURVE",
"41 461 CURVE SMOOTH"
);
}
);
width = 701;
}
);
leftKerningGroup = H;
rightKerningGroup = H;
unicode = 0126;
},
{
glyphname = I;
lastChange = "2022-01-18 09:13:17 +0000";
layers = (
{
anchors = (
{
name = bottom;
position = "{104, 0}";
},
{
name = ogonek;
position = "{208, 10}";
},
{
name = top;
position = "{176, 680}";
},
{
name = topleft;
position = "{67, 680}";
}
);
hints = (
{
origin = "{0, 8}";
type = Corner;
name = _corner.serifUC;
},
{
origin = "{0, 0}";
type = Corner;
name = _corner.serifUC;
}
);
layerId = "B0B60A8F-2DEB-4A58-A43B-60A0DADABD8F";
paths = (
{
closed = 1;
nodes = (
"164 -8 LINE",
"214 466 LINE SMOOTH",
"224 560 OFFCURVE",
"230 581 OFFCURVE",
"230 629 CURVE SMOOTH",
"230 665 OFFCURVE",
"221 695 OFFCURVE",
"187 695 CURVE SMOOTH",
"117 695 LINE",
"69 234 LINE SMOOTH",
"63 175 OFFCURVE",
"55 127 OFFCURVE",
"55 73 CURVE SMOOTH",
"55 34 OFFCURVE",
"66 -8 OFFCURVE",
"94 -8 CURVE SMOOTH"
);
}
);
width = 258;
},
{
anchors = (
{
name = bottom;
position = "{117, 0}";
},
{
name = ogonek;
position = "{221, 10}";
},
{
name = top;
position = "{189, 680}";
},
{
name = topleft;
position = "{80, 680}";
}
);
background = {
anchors = (
{
name = bottom;
position = "{117, 0}";
},
{
name = ogonek;
position = "{221, 10}";
},
{
name = top;
position = "{189, 680}";
},
{
name = topleft;
position = "{80, 680}";
}
);
hints = (
{
origin = "{0, 5}";
type = Corner;
name = _corner.serifUC;
},
{
origin = "{0, 13}";
type = Corner;
name = _corner.serifUC;
}
);
paths = (
{
closed = 1;
nodes = (
"68 127 OFFCURVE",
"68 73 CURVE SMOOTH",
"68 34 OFFCURVE",
"79 -8 OFFCURVE",
"107 -8 CURVE SMOOTH",
"177 -8 LINE",
"227 466 LINE SMOOTH",
"237 560 OFFCURVE",
"243 581 OFFCURVE",
"243 629 CURVE SMOOTH",
"243 665 OFFCURVE",
"234 695 OFFCURVE",
"200 695 CURVE SMOOTH",
"130 695 LINE",
"82 234 LINE SMOOTH",
"76 175 OFFCURVE"
);
}
);
};
hints = (
{
origin = "{0, 0}";
type = Corner;
name = _corner.serifUC;
},
{
origin = "{0, 8}";
type = Corner;
name = _corner.serifUC;
}
);
layerId = "42CFE912-843B-4D25-82F4-9ABC3064997D";
paths = (
{
closed = 1;
nodes = (
"202 -8 LINE",
"252 466 LINE SMOOTH",
"262 560 OFFCURVE",
"268 590 OFFCURVE",
"268 638 CURVE SMOOTH",
"268 674 OFFCURVE",
"251 696 OFFCURVE",
"204 696 CURVE SMOOTH",
"110 696 LINE",
"62 234 LINE SMOOTH",
"56 175 OFFCURVE",
"49 138 OFFCURVE",
"49 94 CURVE SMOOTH",
"49 48 OFFCURVE",
"64 -8 OFFCURVE",
"111 -8 CURVE SMOOTH"
);
}
);
width = 289;
}
);
leftKerningGroup = H;
rightKerningGroup = H;
unicode = 0049;
},
{
glyphname = Iogonek;
lastChange = "2022-01-18 09:13:17 +0000";
layers = (
{
anchors = (
{
name = _ogonek;
position = "{208, 10}";
}
);
components = (
{
name = I;
}
);
layerId = "B0B60A8F-2DEB-4A58-A43B-60A0DADABD8F";
paths = (
{
closed = 1;
nodes = (
"-24 -28 OFFCURVE",
"-24 -102 CURVE SMOOTH",
"-24 -174 OFFCURVE",
"35 -208 OFFCURVE",
"94 -208 CURVE SMOOTH",
"128 -208 OFFCURVE",
"162 -188 OFFCURVE",
"178 -163 CURVE SMOOTH",
"186 -151 OFFCURVE",
"190 -141 OFFCURVE",
"190 -135 CURVE SMOOTH",
"190 -128 OFFCURVE",
"182 -125 OFFCURVE",
"174 -125 CURVE SMOOTH",
"131 -125 OFFCURVE",
"87 -121 OFFCURVE",
"87 -76 CURVE SMOOTH",
"87 -50 OFFCURVE",
"111 -12 OFFCURVE",
"165 6 CURVE SMOOTH",
"179 11 OFFCURVE",
"182 15 OFFCURVE",
"182 18 CURVE SMOOTH",
"182 23 OFFCURVE",
"173 27 OFFCURVE",
"161 27 CURVE SMOOTH",
"74 27 OFFCURVE"
);
}
);
width = 258;
},
{
anchors = (
{
name = _ogonek;
position = "{208, 10}";
}
);
components = (
{
name = I;
}
);
layerId = "42CFE912-843B-4D25-82F4-9ABC3064997D";
paths = (
{
closed = 1;
nodes = (
"-11 -9 OFFCURVE",
"-11 -102 CURVE SMOOTH",
"-11 -175 OFFCURVE",
"50 -212 OFFCURVE",
"111 -212 CURVE SMOOTH",
"157 -212 OFFCURVE",
"194 -187 OFFCURVE",
"210 -158 CURVE SMOOTH",
"217 -146 OFFCURVE",
"221 -136 OFFCURVE",
"221 -130 CURVE SMOOTH",
"221 -122 OFFCURVE",
"215 -112 OFFCURVE",
"197 -112 CURVE SMOOTH",
"154 -112 OFFCURVE",
"120 -109 OFFCURVE",
"120 -71 CURVE SMOOTH",
"120 -45 OFFCURVE",
"134 -13 OFFCURVE",
"188 5 CURVE SMOOTH",
"202 10 OFFCURVE",
"210 14 OFFCURVE",
"210 23 CURVE SMOOTH",
"210 30 OFFCURVE",
"201 37 OFFCURVE",
"182 37 CURVE SMOOTH",
"95 37 OFFCURVE"
);
}
);
width = 289;
}
);
leftKerningGroup = H;
rightKerningGroup = H;
unicode = 012E;
},
{
glyphname = J;
lastChange = "2022-01-18 09:13:17 +0000";
layers = (
{
anchors = (
{
name = bottom;
position = "{107, 0}";
},
{
name = top;
position = "{179, 680}";
}
);
hints = (
{
origin = "{0, 10}";
type = Corner;
name = _corner.serifUC;
}
);
layerId = "B0B60A8F-2DEB-4A58-A43B-60A0DADABD8F";
paths = (
{
closed = 1;
nodes = (
"70 -170 OFFCURVE",
"157 -94 OFFCURVE",
"182 134 CURVE SMOOTH",
"218 466 LINE SMOOTH",
"228 560 OFFCURVE",
"236 605 OFFCURVE",
"236 629 CURVE SMOOTH",
"236 665 OFFCURVE",
"229 695 OFFCURVE",
"192 695 CURVE SMOOTH",
"122 695 LINE",
"54 78 LINE SMOOTH",
"40 -49 OFFCURVE",
"26 -88 OFFCURVE",
"-4 -88 CURVE SMOOTH",
"-27 -88 OFFCURVE",
"-58 -77 OFFCURVE",
"-90 -63 CURVE SMOOTH",
"-107 -56 OFFCURVE",
"-112 -53 OFFCURVE",
"-119 -53 CURVE SMOOTH",
"-125 -53 OFFCURVE",
"-132 -59 OFFCURVE",
"-132 -72 CURVE SMOOTH",
"-132 -136 OFFCURVE",
"-98 -170 OFFCURVE",
"-29 -170 CURVE SMOOTH"
);
}
);
width = 264;
},
{
anchors = (
{
name = bottom;
position = "{122, 0}";
},
{
name = top;
position = "{194, 680}";
}
);
background = {
anchors = (
{
name = bottom;
position = "{122, 0}";
},
{
name = top;
position = "{194, 680}";
}
);
hints = (
{
origin = "{0, 13}";
type = Corner;
name = _corner.serifUC;
}
);
paths = (
{
closed = 1;
nodes = (
"-117 -136 OFFCURVE",
"-83 -170 OFFCURVE",
"-14 -170 CURVE SMOOTH",
"55 -170 OFFCURVE",
"172 -94 OFFCURVE",
"197 134 CURVE SMOOTH",
"233 466 LINE SMOOTH",
"243 560 OFFCURVE",
"251 605 OFFCURVE",
"251 629 CURVE SMOOTH",
"251 665 OFFCURVE",
"244 695 OFFCURVE",
"207 695 CURVE SMOOTH",
"137 695 LINE",
"69 78 LINE SMOOTH",
"55 -49 OFFCURVE",
"41 -88 OFFCURVE",
"11 -88 CURVE SMOOTH",
"-12 -88 OFFCURVE",
"-43 -77 OFFCURVE",
"-75 -63 CURVE SMOOTH",
"-92 -56 OFFCURVE",
"-97 -53 OFFCURVE",
"-104 -53 CURVE SMOOTH",
"-110 -53 OFFCURVE",
"-117 -59 OFFCURVE",
"-117 -72 CURVE SMOOTH"
);
}
);
};
hints = (
{
origin = "{0, 10}";
type = Corner;
name = _corner.serifUC;
}
);
layerId = "42CFE912-843B-4D25-82F4-9ABC3064997D";
paths = (
{
closed = 1;
nodes = (
"66 -170 OFFCURVE",
"197 -94 OFFCURVE",
"222 134 CURVE SMOOTH",
"258 466 LINE SMOOTH",
"268 560 OFFCURVE",
"276 605 OFFCURVE",
"276 629 CURVE SMOOTH",
"276 665 OFFCURVE",
"263 696 OFFCURVE",
"214 696 CURVE SMOOTH",
"117 696 LINE",
"49 78 LINE SMOOTH",
"35 -49 OFFCURVE",
"33 -73 OFFCURVE",
"3 -73 CURVE SMOOTH",
"-20 -73 OFFCURVE",
"-54 -57 OFFCURVE",
"-86 -43 CURVE SMOOTH",
"-103 -36 OFFCURVE",
"-108 -33 OFFCURVE",
"-115 -33 CURVE SMOOTH",
"-121 -33 OFFCURVE",
"-131 -36 OFFCURVE",
"-131 -60 CURVE SMOOTH",
"-131 -128 OFFCURVE",
"-87 -170 OFFCURVE",
"-14 -170 CURVE SMOOTH"
);
}
);
width = 304;
}
);
leftKerningGroup = J;
rightKerningGroup = J;
unicode = 004A;
},
{
glyphname = K;
lastChange = "2022-01-18 09:13:17 +0000";
layers = (
{
anchors = (
{
name = bottom;
position = "{284, 0}";
},
{
name = top;
position = "{356, 680}";
}
);
components = (
{
name = I;
}
);
layerId = "B0B60A8F-2DEB-4A58-A43B-60A0DADABD8F";
paths = (
{
closed = 1;
nodes = (
"514 -7 OFFCURVE",
"592 24 OFFCURVE",
"592 49 CURVE SMOOTH",
"592 64 OFFCURVE",
"576 58 OFFCURVE",
"530 97 CURVE SMOOTH",
"495 127 OFFCURVE",
"387 249 OFFCURVE",
"325 418 CURVE",
"307 351 LINE",
"416 476 LINE SMOOTH",
"480 549 OFFCURVE",
"507 562 OFFCURVE",
"532 562 CURVE SMOOTH",
"556 562 OFFCURVE",
"572 555 OFFCURVE",
"586 555 CURVE SMOOTH",
"606 555 OFFCURVE",
"626 591 OFFCURVE",
"626 640 CURVE SMOOTH",
"626 674 OFFCURVE",
"613 694 OFFCURVE",
"572 694 CURVE SMOOTH",
"525 694 OFFCURVE",
"480 662 OFFCURVE",
"424 604 CURVE SMOOTH",
"357 535 LINE SMOOTH",
"249 423 OFFCURVE",
"234 373 OFFCURVE",
"234 340 CURVE SMOOTH",
"234 321 OFFCURVE",
"243 305 OFFCURVE",
"250 291 CURVE SMOOTH",
"326 144 OFFCURVE",
"419 -7 OFFCURVE",
"472 -7 CURVE SMOOTH"
);
}
);
width = 617;
},
{
anchors = (
{
name = bottom;
position = "{326, 0}";
},
{
name = top;
position = "{381, 680}";
}
);
background = {
anchors = (
{
name = bottom;
position = "{299, 0}";
},
{
name = top;
position = "{371, 680}";
}
);
paths = (
{
closed = 1;
nodes = (
"249 321 OFFCURVE",
"258 305 OFFCURVE",
"265 291 CURVE SMOOTH",
"341 144 OFFCURVE",
"434 -7 OFFCURVE",
"487 -7 CURVE SMOOTH",
"529 -7 OFFCURVE",
"602 24 OFFCURVE",
"602 49 CURVE SMOOTH",
"602 64 OFFCURVE",
"586 58 OFFCURVE",
"540 97 CURVE SMOOTH",
"505 127 OFFCURVE",
"402 249 OFFCURVE",
"330 418 CURVE",
"322 351 LINE",
"463 497 LINE SMOOTH",
"511 546 OFFCURVE",
"529 562 OFFCURVE",
"554 562 CURVE SMOOTH",
"578 562 OFFCURVE",
"594 555 OFFCURVE",
"608 555 CURVE SMOOTH",
"628 555 OFFCURVE",
"648 591 OFFCURVE",
"648 640 CURVE SMOOTH",
"648 674 OFFCURVE",
"635 694 OFFCURVE",
"594 694 CURVE SMOOTH",
"547 694 OFFCURVE",
"502 662 OFFCURVE",
"446 604 CURVE SMOOTH",
"379 535 LINE SMOOTH",
"271 423 OFFCURVE",
"249 373 OFFCURVE",
"249 340 CURVE SMOOTH"
);
}
);
};
components = (
{
alignment = -1;
name = I;
}
);
layerId = "42CFE912-843B-4D25-82F4-9ABC3064997D";
paths = (
{
closed = 1;
nodes = (
"539 -7 OFFCURVE",
"632 47 OFFCURVE",
"632 72 CURVE SMOOTH",
"632 87 OFFCURVE",
"616 81 OFFCURVE",
"570 120 CURVE SMOOTH",
"535 150 OFFCURVE",
"432 272 OFFCURVE",
"360 441 CURVE",
"335 340 LINE",
"468 472 LINE SMOOTH",
"517 520 OFFCURVE",
"543 537 OFFCURVE",
"564 537 CURVE SMOOTH",
"584 537 OFFCURVE",
"604 530 OFFCURVE",
"620 530 CURVE SMOOTH",
"656 530 OFFCURVE",
"673 591 OFFCURVE",
"673 635 CURVE SMOOTH",
"673 678 OFFCURVE",
"646 696 OFFCURVE",
"605 696 CURVE SMOOTH",
"557 696 OFFCURVE",
"505 663 OFFCURVE",
"463 620 CURVE SMOOTH",
"385 540 LINE SMOOTH",
"276 429 OFFCURVE",
"254 366 OFFCURVE",
"254 340 CURVE SMOOTH",
"254 324 OFFCURVE",
"263 305 OFFCURVE",
"269 291 CURVE SMOOTH",
"336 144 OFFCURVE",
"419 -7 OFFCURVE",
"478 -7 CURVE SMOOTH"
);
}
);
width = 659;
}
);
leftKerningGroup = H;
leftMetricsKey = H;
rightKerningGroup = K;
unicode = 004B;
},
{
glyphname = L;
lastChange = "2022-01-18 09:13:17 +0000";
layers = (
{
anchors = (
{
name = bottom;
position = "{199, 0}";
},
{
name = center;
position = "{235, 340}";
},
{
name = top;
position = "{271, 680}";
},
{
name = topright;
position = "{305, 475}";
}
);
background = {
paths = (
{
closed = 1;
nodes = (
"180 680 OFFCURVE",
"130 680 OFFCURVE",
"118 680 CURVE",
"110 680 OFFCURVE",
"96 678 OFFCURVE",
"94 656 CURVE SMOOTH",
"84 518 OFFCURVE",
"58 246 OFFCURVE",
"37 75 CURVE SMOOTH",
"31 28 OFFCURVE",
"25 0 OFFCURVE",
"65 0 CURVE SMOOTH",
"74 0 OFFCURVE",
"91 0 OFFCURVE",
"127 0 CURVE SMOOTH",
"154 0 OFFCURVE",
"150 28 OFFCURVE",
"154 71 CURVE SMOOTH",
"168 242 OFFCURVE",
"194 516 OFFCURVE",
"212 660 CURVE SMOOTH",
"214 678 OFFCURVE",
"205 680 OFFCURVE",
"196 680 CURVE"
);
},
{
closed = 1;
nodes = (
"196 389 LINE",
"196 342 LINE",
"400 342 LINE",
"400 389 LINE"
);
},
{
closed = 1;
nodes = (
"184 432 LINE",
"169 308 LINE",
"175 308 LINE",
"178 344 OFFCURVE",
"191 342 OFFCURVE",
"224 342 CURVE",
"224 389 LINE",
"192 389 OFFCURVE",
"184 397 OFFCURVE",
"187 432 CURVE"
);
},
{
closed = 1;
nodes = (
"415 340 OFFCURVE",
"417 341 OFFCURVE",
"419 348 CURVE SMOOTH",
"421 355 OFFCURVE",
"425 371 OFFCURVE",
"428 382 CURVE SMOOTH",
"430 390 OFFCURVE",
"425 392 OFFCURVE",
"419 392 CURVE SMOOTH",
"403 392 OFFCURVE",
"355 389 OFFCURVE",
"341 389 CURVE",
"341 342 LINE",
"365 342 OFFCURVE",
"396 340 OFFCURVE",
"408 340 CURVE"
);
},
{
closed = 1;
nodes = (
"243 680 LINE",
"243 635 LINE",
"397 635 LINE",
"397 680 LINE"
);
},
{
closed = 1;
nodes = (
"196 680 LINE",
"196 593 LINE",
"204 593 LINE",
"208 631 OFFCURVE",
"218 635 OFFCURVE",
"251 635 CURVE",
"251 680 LINE"
);
},
{
closed = 1;
nodes = (
"470 630 OFFCURVE",
"472 631 OFFCURVE",
"474 638 CURVE SMOOTH",
"476 645 OFFCURVE",
"480 659 OFFCURVE",
"483 670 CURVE SMOOTH",
"485 679 OFFCURVE",
"480 680 OFFCURVE",
"474 680 CURVE SMOOTH",
"458 680 OFFCURVE",
"383 680 OFFCURVE",
"369 680 CURVE",
"369 635 LINE",
"419 635 OFFCURVE",
"455 630 OFFCURVE",
"463 630 CURVE"
);
},
{
closed = 1;
nodes = (
"354 55 LINE",
"184 55 LINE",
"184 0 LINE",
"354 0 LINE"
);
},
{
closed = 1;
nodes = (
"192 55 LINE",
"159 55 OFFCURVE",
"152 59 OFFCURVE",
"157 107 CURVE",
"128 107 LINE",
"127 0 LINE",
"192 0 LINE"
);
},
{
closed = 1;
nodes = (
"426 0 OFFCURVE",
"428 1 OFFCURVE",
"430 8 CURVE SMOOTH",
"432 15 OFFCURVE",
"438 41 OFFCURVE",
"441 52 CURVE SMOOTH",
"443 61 OFFCURVE",
"436 62 OFFCURVE",
"430 62 CURVE SMOOTH",
"414 62 OFFCURVE",
"370 55 OFFCURVE",
"328 55 CURVE",
"328 0 LINE",
"352 0 OFFCURVE",
"407 0 OFFCURVE",
"419 0 CURVE"
);
}
);
};
hints = (
{
origin = "{0, 21}";
type = Corner;
name = _corner.serifUC;
}
);
layerId = "B0B60A8F-2DEB-4A58-A43B-60A0DADABD8F";
paths = (
{
closed = 1;
nodes = (
"128 -12 OFFCURVE",
"187 0 OFFCURVE",
"337 0 CURVE SMOOTH",
"367 0 LINE SMOOTH",
"410 0 OFFCURVE",
"436 66 OFFCURVE",
"436 116 CURVE SMOOTH",
"436 126 OFFCURVE",
"430 130 OFFCURVE",
"424 130 CURVE SMOOTH",
"420 130 OFFCURVE",
"413 128 OFFCURVE",
"398 125 CURVE SMOOTH",
"183 75 LINE",
"179 103 OFFCURVE",
"179 131 OFFCURVE",
"182 159 CURVE SMOOTH",
"228 583 LINE SMOOTH",
"237 664 OFFCURVE",
"239 695 OFFCURVE",
"197 695 CURVE SMOOTH",
"117 695 LINE",
"65 186 LINE SMOOTH",
"59 127 OFFCURVE",
"56 85 OFFCURVE",
"56 59 CURVE SMOOTH",
"56 23 OFFCURVE",
"69 -12 OFFCURVE",
"93 -12 CURVE SMOOTH"
);
}
);
width = 450;
},
{
anchors = (
{
name = bottom;
position = "{210, 0}";
},
{
name = center;
position = "{246, 340}";
},
{
name = top;
position = "{282, 680}";
},
{
name = topright;
position = "{368, 475}";
}
);
background = {
anchors = (
{
name = bottom;
position = "{210, 0}";
},
{
name = center;
position = "{246, 340}";
},
{
name = top;
position = "{282, 680}";
},
{
name = topright;
position = "{486, 680}";
}
);
hints = (
{
origin = "{0, 3}";
type = Corner;
name = _corner.serifUC;
}
);
paths = (
{
closed = 1;
nodes = (
"248 664 OFFCURVE",
"250 695 OFFCURVE",
"208 695 CURVE SMOOTH",
"128 695 LINE",
"76 186 LINE SMOOTH",
"70 127 OFFCURVE",
"67 85 OFFCURVE",
"67 59 CURVE SMOOTH",
"67 23 OFFCURVE",
"80 -12 OFFCURVE",
"104 -12 CURVE SMOOTH",
"139 -12 OFFCURVE",
"198 0 OFFCURVE",
"348 0 CURVE SMOOTH",
"378 0 LINE SMOOTH",
"421 0 OFFCURVE",
"447 66 OFFCURVE",
"447 116 CURVE SMOOTH",
"447 126 OFFCURVE",
"441 130 OFFCURVE",
"435 130 CURVE SMOOTH",
"431 130 OFFCURVE",
"424 128 OFFCURVE",
"409 125 CURVE SMOOTH",
"194 75 LINE",
"190 103 OFFCURVE",
"190 131 OFFCURVE",
"193 159 CURVE SMOOTH",
"239 583 LINE SMOOTH"
);
}
);
};
hints = (
{
origin = "{0, 21}";
type = Corner;
name = _corner.serifUC;
}
);
layerId = "42CFE912-843B-4D25-82F4-9ABC3064997D";
paths = (
{
closed = 1;
nodes = (
"119 -12 OFFCURVE",
"220 0 OFFCURVE",
"370 0 CURVE SMOOTH",
"415 0 LINE SMOOTH",
"458 0 OFFCURVE",
"489 81 OFFCURVE",
"489 118 CURVE SMOOTH",
"489 136 OFFCURVE",
"483 145 OFFCURVE",
"472 145 CURVE SMOOTH",
"462 145 OFFCURVE",
"434 137 OFFCURVE",
"410 132 CURVE SMOOTH",
"221 89 LINE",
"217 117 OFFCURVE",
"216 148 OFFCURVE",
"219 176 CURVE SMOOTH",
"265 594 LINE SMOOTH",
"274 678 OFFCURVE",
"264 697 OFFCURVE",
"210 696 CURVE SMOOTH",
"110 695 LINE",
"56 186 LINE SMOOTH",
"50 127 OFFCURVE",
"47 85 OFFCURVE",
"47 59 CURVE SMOOTH",
"47 23 OFFCURVE",
"60 -12 OFFCURVE",
"84 -12 CURVE SMOOTH"
);
}
);
width = 502;
}
);
leftKerningGroup = H;
leftMetricsKey = H;
rightKerningGroup = L;
rightMetricsKey = A;
unicode = 004C;
},
{
glyphname = Lslash;
lastChange = "2022-01-18 09:13:17 +0000";
layers = (
{
components = (
{
name = L;
}
);
layerId = "B0B60A8F-2DEB-4A58-A43B-60A0DADABD8F";
paths = (
{
closed = 1;
nodes = (
"21 160 OFFCURVE",
"27 163 OFFCURVE",
"32 167 CURVE SMOOTH",
"365 435 LINE SMOOTH",
"391 456 OFFCURVE",
"398 477 OFFCURVE",
"398 493 CURVE SMOOTH",
"398 508 OFFCURVE",
"379 534 OFFCURVE",
"370 534 CURVE SMOOTH",
"366 534 OFFCURVE",
"362 532 OFFCURVE",
"357 528 CURVE SMOOTH",
"20 255 LINE SMOOTH",
"-3 236 OFFCURVE",
"-12 214 OFFCURVE",
"-12 198 CURVE SMOOTH",
"-12 183 OFFCURVE",
"6 160 OFFCURVE",
"17 160 CURVE SMOOTH"
);
}
);
width = 450;
},
{
components = (
{
name = L;
transform = "{1, 0, 0, 1, 14, 0}";
}
);
layerId = "42CFE912-843B-4D25-82F4-9ABC3064997D";
paths = (
{
closed = 1;
nodes = (
"36 131 OFFCURVE",
"42 134 OFFCURVE",
"47 138 CURVE SMOOTH",
"412 425 LINE SMOOTH",
"438 446 OFFCURVE",
"445 463 OFFCURVE",
"445 483 CURVE SMOOTH",
"445 506 OFFCURVE",
"417 546 OFFCURVE",
"404 546 CURVE SMOOTH",
"400 546 OFFCURVE",
"396 544 OFFCURVE",
"391 540 CURVE SMOOTH",
"22 248 LINE SMOOTH",
"-1 230 OFFCURVE",
"-10 211 OFFCURVE",
"-10 191 CURVE SMOOTH",
"-10 167 OFFCURVE",
"18 131 OFFCURVE",
"32 131 CURVE SMOOTH"
);
}
);
width = 516;
}
);
leftKerningGroup = H;
rightKerningGroup = Lslash;
rightMetricsKey = L;
unicode = 0141;
},
{
glyphname = M;
lastChange = "2022-01-18 09:13:17 +0000";
layers = (
{
anchors = (
{
name = bottom;
position = "{385, 0}";
},
{
name = top;
position = "{457, 680}";
}
);
hints = (
{
origin = "{0, 38}";
type = Corner;
name = _corner.serifUC;
},
{
origin = "{0, 24}";
type = Corner;
name = _corner.serifUC;
}
);
layerId = "B0B60A8F-2DEB-4A58-A43B-60A0DADABD8F";
paths = (
{
closed = 1;
nodes = (
"100 -12 OFFCURVE",
"178 0 OFFCURVE",
"178 29 CURVE SMOOTH",
"178 62 OFFCURVE",
"141 82 OFFCURVE",
"164 293 CURVE SMOOTH",
"192 552 LINE",
"183 551 LINE",
"332 41 LINE SMOOTH",
"339 17 OFFCURVE",
"349 12 OFFCURVE",
"367 12 CURVE SMOOTH",
"399 12 OFFCURVE",
"416 35 OFFCURVE",
"522 264 CURVE SMOOTH",
"653 546 LINE",
"647 550 LINE",
"610 234 LINE SMOOTH",
"603 175 OFFCURVE",
"600 107 OFFCURVE",
"600 53 CURVE SMOOTH",
"600 14 OFFCURVE",
"609 -8 OFFCURVE",
"627 -8 CURVE SMOOTH",
"707 -8 LINE",
"775 649 LINE SMOOTH",
"779 685 OFFCURVE",
"764 695 OFFCURVE",
"737 695 CURVE SMOOTH",
"670 695 OFFCURVE",
"621 665 OFFCURVE",
"604 628 CURVE SMOOTH",
"373 125 LINE",
"425 123 LINE",
"277 664 LINE SMOOTH",
"270 691 OFFCURVE",
"254 697 OFFCURVE",
"200 696 CURVE SMOOTH",
"117 695 LINE",
"62 191 LINE SMOOTH",
"56 140 OFFCURVE",
"50 86 OFFCURVE",
"50 39 CURVE SMOOTH",
"50 11 OFFCURVE",
"54 -12 OFFCURVE",
"76 -12 CURVE SMOOTH"
);
}
);
width = 801;
},
{
anchors = (
{
name = bottom;
position = "{384, 0}";
},
{
name = top;
position = "{456, 680}";
}
);
background = {
anchors = (
{
name = bottom;
position = "{384, 0}";
},
{
name = top;
position = "{456, 680}";
}
);
hints = (
{
origin = "{0, 27}";
type = Corner;
name = _corner.serifUC;
},
{
origin = "{0, 41}";
type = Corner;
name = _corner.serifUC;
}
);
paths = (
{
closed = 1;
nodes = (
"72 11 OFFCURVE",
"76 -12 OFFCURVE",
"98 -12 CURVE SMOOTH",
"122 -12 OFFCURVE",
"197 0 OFFCURVE",
"197 29 CURVE SMOOTH",
"197 62 OFFCURVE",
"160 82 OFFCURVE",
"183 293 CURVE SMOOTH",
"211 552 LINE",
"199 551 LINE",
"331 41 LINE SMOOTH",
"337 17 OFFCURVE",
"348 12 OFFCURVE",
"366 12 CURVE SMOOTH",
"398 12 OFFCURVE",
"422 32 OFFCURVE",
"521 264 CURVE SMOOTH",
"642 546 LINE",
"636 550 LINE",
"599 234 LINE SMOOTH",
"592 175 OFFCURVE",
"589 107 OFFCURVE",
"589 53 CURVE SMOOTH",
"589 14 OFFCURVE",
"598 -8 OFFCURVE",
"616 -8 CURVE SMOOTH",
"696 -8 LINE",
"764 649 LINE SMOOTH",
"768 685 OFFCURVE",
"753 695 OFFCURVE",
"726 695 CURVE SMOOTH",
"659 695 OFFCURVE",
"604 665 OFFCURVE",
"589 628 CURVE SMOOTH",
"379 125 LINE",
"429 123 LINE",
"286 664 LINE SMOOTH",
"279 691 OFFCURVE",
"266 697 OFFCURVE",
"219 696 CURVE SMOOTH",
"139 695 LINE",
"84 191 LINE SMOOTH",
"78 140 OFFCURVE",
"72 86 OFFCURVE",
"72 39 CURVE SMOOTH"
);
}
);
};
hints = (
{
origin = "{0, 24}";
type = Corner;
name = _corner.serifUC;
},
{
origin = "{0, 38}";
type = Corner;
name = _corner.serifUC;
}
);
layerId = "42CFE912-843B-4D25-82F4-9ABC3064997D";
paths = (
{
closed = 1;
nodes = (
"102 -12 OFFCURVE",
"184 0 OFFCURVE",
"184 29 CURVE SMOOTH",
"184 62 OFFCURVE",
"142 82 OFFCURVE",
"170 293 CURVE SMOOTH",
"204 552 LINE",
"187 551 LINE",
"302 58 LINE SMOOTH",
"310 24 OFFCURVE",
"323 12 OFFCURVE",
"350 12 CURVE SMOOTH",
"405 12 OFFCURVE",
"424 29 OFFCURVE",
"482 168 CURVE SMOOTH",
"639 546 LINE",
"632 550 LINE",
"584 234 LINE SMOOTH",
"575 175 OFFCURVE",
"574 109 OFFCURVE",
"574 61 CURVE SMOOTH",
"574 7 OFFCURVE",
"586 -8 OFFCURVE",
"618 -8 CURVE SMOOTH",
"727 -8 LINE",
"795 649 LINE SMOOTH",
"799 685 OFFCURVE",
"770 696 OFFCURVE",
"737 696 CURVE SMOOTH",
"662 696 OFFCURVE",
"592 674 OFFCURVE",
"571 622 CURVE SMOOTH",
"370 129 LINE",
"436 127 LINE",
"308 658 LINE SMOOTH",
"300 691 OFFCURVE",
"260 696 OFFCURVE",
"222 696 CURVE SMOOTH",
"110 695 LINE",
"49 191 LINE SMOOTH",
"43 140 OFFCURVE",
"37 86 OFFCURVE",
"37 39 CURVE SMOOTH",
"37 11 OFFCURVE",
"43 -12 OFFCURVE",
"68 -12 CURVE SMOOTH"
);
}
);
width = 814;
}
);
leftKerningGroup = M;
leftMetricsKey = N;
rightKerningGroup = M;
rightMetricsKey = H;
unicode = 004D;
},
{
glyphname = N;
lastChange = "2022-01-18 09:13:17 +0000";
layers = (
{
anchors = (
{
name = bottom;
position = "{304, 0}";
},
{
name = top;
position = "{376, 680}";
}
);
background = {
paths = (
{
closed = 1;
nodes = (
"178 680 OFFCURVE",
"128 680 OFFCURVE",
"116 680 CURVE",
"108 680 OFFCURVE",
"94 678 OFFCURVE",
"92 656 CURVE SMOOTH",
"82 518 OFFCURVE",
"56 246 OFFCURVE",
"35 75 CURVE SMOOTH",
"29 28 OFFCURVE",
"23 0 OFFCURVE",
"63 0 CURVE SMOOTH",
"72 0 OFFCURVE",
"89 0 OFFCURVE",
"125 0 CURVE SMOOTH",
"152 0 OFFCURVE",
"148 28 OFFCURVE",
"152 71 CURVE SMOOTH",
"166 242 OFFCURVE",
"192 516 OFFCURVE",
"210 660 CURVE SMOOTH",
"212 678 OFFCURVE",
"203 680 OFFCURVE",
"194 680 CURVE"
);
},
{
closed = 1;
nodes = (
"625 680 OFFCURVE",
"575 680 OFFCURVE",
"563 680 CURVE",
"555 680 OFFCURVE",
"546 678 OFFCURVE",
"545 660 CURVE SMOOTH",
"535 516 OFFCURVE",
"508 240 OFFCURVE",
"486 71 CURVE SMOOTH",
"480 28 OFFCURVE",
"474 0 OFFCURVE",
"501 0 CURVE SMOOTH",
"510 0 OFFCURVE",
"541 0 OFFCURVE",
"577 0 CURVE SMOOTH",
"604 0 OFFCURVE",
"601 28 OFFCURVE",
"604 71 CURVE SMOOTH",
"617 248 OFFCURVE",
"644 518 OFFCURVE",
"661 656 CURVE SMOOTH",
"664 678 OFFCURVE",
"647 680 OFFCURVE",
"637 680 CURVE"
);
},
{
closed = 1;
nodes = (
"194 342 LINE",
"513 342 LINE",
"513 395 LINE",
"194 395 LINE"
);
},
{
closed = 1;
nodes = (
"183 441 LINE",
"167 308 LINE",
"173 308 LINE",
"176 344 OFFCURVE",
"189 342 OFFCURVE",
"222 342 CURVE",
"222 395 LINE",
"190 395 OFFCURVE",
"182 404 OFFCURVE",
"186 441 CURVE"
);
},
{
closed = 1;
nodes = (
"523 408 OFFCURVE",
"518 395 OFFCURVE",
"482 395 CURVE",
"482 342 LINE",
"514 342 OFFCURVE",
"517 340 OFFCURVE",
"513 304 CURVE",
"519 304 LINE",
"530 447 LINE",
"527 447 LINE"
);
}
);
};
guideLines = (
{
angle = 264;
position = "{527, 327}";
}
);
hints = (
{
origin = "{0, 44}";
type = Corner;
name = _corner.serifUC;
}
);
layerId = "B0B60A8F-2DEB-4A58-A43B-60A0DADABD8F";
paths = (
{
closed = 1;
nodes = (
"100 -12 OFFCURVE",
"173 -1 OFFCURVE",
"173 28 CURVE SMOOTH",
"173 61 OFFCURVE",
"137 62 OFFCURVE",
"161 293 CURVE SMOOTH",
"188 552 LINE",
"174 550 LINE",
"253 399 OFFCURVE",
"377 252 OFFCURVE",
"441 137 CURVE SMOOTH",
"460 104 OFFCURVE",
"490 49 OFFCURVE",
"489 23 CURVE SMOOTH",
"488 1 OFFCURVE",
"499 -11 OFFCURVE",
"511 -11 CURVE SMOOTH",
"539 -11 OFFCURVE",
"610 16 OFFCURVE",
"610 46 CURVE SMOOTH",
"610 97 OFFCURVE",
"597 141 OFFCURVE",
"624 392 CURVE SMOOTH",
"638 524 LINE SMOOTH",
"645 589 OFFCURVE",
"650 611 OFFCURVE",
"650 634 CURVE SMOOTH",
"650 660 OFFCURVE",
"636 694 OFFCURVE",
"611 694 CURVE SMOOTH",
"585 694 OFFCURVE",
"522 681 OFFCURVE",
"522 654 CURVE SMOOTH",
"522 619 OFFCURVE",
"554 592 OFFCURVE",
"533 387 CURVE SMOOTH",
"511 172 LINE",
"537 203 LINE",
"471 326 OFFCURVE",
"338 496 OFFCURVE",
"242 664 CURVE SMOOTH",
"225 694 OFFCURVE",
"214 696 OFFCURVE",
"190 696 CURVE SMOOTH",
"117 695 LINE",
"62 191 LINE SMOOTH",
"56 140 OFFCURVE",
"50 86 OFFCURVE",
"50 39 CURVE SMOOTH",
"50 11 OFFCURVE",
"54 -12 OFFCURVE",
"76 -12 CURVE SMOOTH"
);
}
);
width = 660;
},
{
associatedMasterId = "B0B60A8F-2DEB-4A58-A43B-60A0DADABD8F";
background = {
paths = (
{
closed = 1;
nodes = (
"175 680 OFFCURVE",
"125 680 OFFCURVE",
"113 680 CURVE",
"105 680 OFFCURVE",
"91 678 OFFCURVE",
"89 656 CURVE SMOOTH",
"79 518 OFFCURVE",
"53 246 OFFCURVE",
"32 75 CURVE SMOOTH",
"26 28 OFFCURVE",
"20 0 OFFCURVE",
"60 0 CURVE SMOOTH",
"69 0 OFFCURVE",
"86 0 OFFCURVE",
"122 0 CURVE SMOOTH",
"149 0 OFFCURVE",
"145 28 OFFCURVE",
"149 71 CURVE SMOOTH",
"163 242 OFFCURVE",
"189 516 OFFCURVE",
"207 660 CURVE SMOOTH",
"209 678 OFFCURVE",
"200 680 OFFCURVE",
"191 680 CURVE"
);
},
{
closed = 1;
nodes = (
"622 680 OFFCURVE",
"572 680 OFFCURVE",
"560 680 CURVE",
"552 680 OFFCURVE",
"543 678 OFFCURVE",
"542 660 CURVE SMOOTH",
"532 516 OFFCURVE",
"505 240 OFFCURVE",
"483 71 CURVE SMOOTH",
"477 28 OFFCURVE",
"471 0 OFFCURVE",
"498 0 CURVE SMOOTH",
"507 0 OFFCURVE",
"538 0 OFFCURVE",
"574 0 CURVE SMOOTH",
"601 0 OFFCURVE",
"598 28 OFFCURVE",
"601 71 CURVE SMOOTH",
"614 248 OFFCURVE",
"641 518 OFFCURVE",
"658 656 CURVE SMOOTH",
"661 678 OFFCURVE",
"644 680 OFFCURVE",
"634 680 CURVE"
);
},
{
closed = 1;
nodes = (
"191 342 LINE",
"510 342 LINE",
"510 395 LINE",
"191 395 LINE"
);
},
{
closed = 1;
nodes = (
"180 441 LINE",
"164 308 LINE",
"170 308 LINE",
"173 344 OFFCURVE",
"186 342 OFFCURVE",
"219 342 CURVE",
"219 395 LINE",
"187 395 OFFCURVE",
"179 404 OFFCURVE",
"183 441 CURVE"
);
},
{
closed = 1;
nodes = (
"520 408 OFFCURVE",
"515 395 OFFCURVE",
"479 395 CURVE",
"479 342 LINE",
"511 342 OFFCURVE",
"514 340 OFFCURVE",
"510 304 CURVE",
"516 304 LINE",
"527 447 LINE",
"524 447 LINE"
);
}
);
};
hints = (
{
origin = "{0, 44}";
type = Corner;
name = _corner.serifUC;
}
);
layerId = "A09B1C72-78F7-4C8A-9F23-5F63C3B47719";
name = "Apr 6 21, 09:03";
paths = (
{
closed = 1;
nodes = (
"45 15 OFFCURVE",
"53 -8 OFFCURVE",
"77 -8 CURVE SMOOTH",
"105 -6 OFFCURVE",
"153 15 OFFCURVE",
"153 42 CURVE SMOOTH",
"153 77 OFFCURVE",
"143 141 OFFCURVE",
"147 176 CURVE SMOOTH",
"189 550 LINE",
"173 548 LINE",
"278 390 OFFCURVE",
"355 162 OFFCURVE",
"448 34 CURVE SMOOTH",
"464 12 OFFCURVE",
"471 -11 OFFCURVE",
"495 -11 CURVE SMOOTH",
"523 -9 OFFCURVE",
"572 12 OFFCURVE",
"572 39 CURVE SMOOTH",
"572 74 OFFCURVE",
"572 141 OFFCURVE",
"576 176 CURVE SMOOTH",
"621 591 LINE SMOOTH",
"623 608 OFFCURVE",
"624 623 OFFCURVE",
"624 636 CURVE SMOOTH",
"624 672 OFFCURVE",
"611 695 OFFCURVE",
"592 694 CURVE SMOOTH",
"559 693 OFFCURVE",
"515 672 OFFCURVE",
"515 645 CURVE SMOOTH",
"515 610 OFFCURVE",
"526 573 OFFCURVE",
"520 511 CURVE SMOOTH",
"487 178 LINE",
"502 179 LINE",
"415 293 OFFCURVE",
"354 515 OFFCURVE",
"234 681 CURVE SMOOTH",
"226 692 OFFCURVE",
"218 696 OFFCURVE",
"194 696 CURVE SMOOTH",
"114 695 LINE",
"48 96 LINE SMOOTH",
"46 79 OFFCURVE",
"45 64 OFFCURVE",
"45 51 CURVE SMOOTH"
);
}
);
width = 648;
},
{
anchors = (
{
name = bottom;
position = "{307, 0}";
},
{
name = top;
position = "{379, 680}";
}
);
background = {
anchors = (
{
name = bottom;
position = "{307, 0}";
},
{
name = top;
position = "{379, 680}";
}
);
hints = (
{
origin = "{0, 38}";
type = Corner;
name = _corner.serifUC;
}
);
paths = (
{
closed = 1;
nodes = (
"191 552 LINE",
"177 550 LINE",
"256 399 OFFCURVE",
"380 252 OFFCURVE",
"444 137 CURVE SMOOTH",
"463 104 OFFCURVE",
"493 49 OFFCURVE",
"492 23 CURVE SMOOTH",
"491 1 OFFCURVE",
"502 -11 OFFCURVE",
"514 -11 CURVE SMOOTH",
"542 -11 OFFCURVE",
"611 16 OFFCURVE",
"611 46 CURVE SMOOTH",
"611 97 OFFCURVE",
"598 141 OFFCURVE",
"625 392 CURVE SMOOTH",
"639 524 LINE SMOOTH",
"646 589 OFFCURVE",
"651 611 OFFCURVE",
"651 634 CURVE SMOOTH",
"651 660 OFFCURVE",
"637 694 OFFCURVE",
"612 694 CURVE SMOOTH",
"586 694 OFFCURVE",
"525 681 OFFCURVE",
"525 654 CURVE SMOOTH",
"525 619 OFFCURVE",
"557 592 OFFCURVE",
"536 387 CURVE SMOOTH",
"514 172 LINE",
"540 203 LINE",
"474 326 OFFCURVE",
"341 496 OFFCURVE",
"245 664 CURVE SMOOTH",
"228 694 OFFCURVE",
"217 696 OFFCURVE",
"193 696 CURVE SMOOTH",
"120 695 LINE",
"65 191 LINE SMOOTH",
"59 140 OFFCURVE",
"53 86 OFFCURVE",
"53 39 CURVE SMOOTH",
"53 11 OFFCURVE",
"57 -12 OFFCURVE",
"79 -12 CURVE SMOOTH",
"103 -12 OFFCURVE",
"176 -1 OFFCURVE",
"176 28 CURVE SMOOTH",
"176 61 OFFCURVE",
"140 62 OFFCURVE",
"164 293 CURVE SMOOTH"
);
}
);
};
hints = (
{
origin = "{0, 44}";
type = Corner;
name = _corner.serifUC;
}
);
layerId = "42CFE912-843B-4D25-82F4-9ABC3064997D";
paths = (
{
closed = 1;
nodes = (
"93 -12 OFFCURVE",
"182 -1 OFFCURVE",
"182 28 CURVE SMOOTH",
"182 61 OFFCURVE",
"146 62 OFFCURVE",
"170 293 CURVE SMOOTH",
"197 552 LINE",
"145 550 LINE",
"224 399 OFFCURVE",
"337 252 OFFCURVE",
"401 137 CURVE SMOOTH",
"420 104 OFFCURVE",
"450 49 OFFCURVE",
"449 23 CURVE SMOOTH",
"448 1 OFFCURVE",
"453 -11 OFFCURVE",
"477 -11 CURVE SMOOTH",
"525 -11 OFFCURVE",
"621 16 OFFCURVE",
"621 46 CURVE SMOOTH",
"621 97 OFFCURVE",
"608 141 OFFCURVE",
"635 392 CURVE SMOOTH",
"649 524 LINE SMOOTH",
"656 589 OFFCURVE",
"661 611 OFFCURVE",
"661 634 CURVE SMOOTH",
"661 660 OFFCURVE",
"647 694 OFFCURVE",
"622 694 CURVE SMOOTH",
"596 694 OFFCURVE",
"519 681 OFFCURVE",
"519 654 CURVE SMOOTH",
"519 619 OFFCURVE",
"551 592 OFFCURVE",
"530 387 CURVE SMOOTH",
"508 172 LINE",
"558 201 LINE",
"492 324 OFFCURVE",
"373 496 OFFCURVE",
"277 664 CURVE SMOOTH",
"260 694 OFFCURVE",
"236 696 OFFCURVE",
"216 696 CURVE SMOOTH",
"110 695 LINE",
"55 191 LINE SMOOTH",
"49 140 OFFCURVE",
"43 86 OFFCURVE",
"43 39 CURVE SMOOTH",
"43 11 OFFCURVE",
"47 -12 OFFCURVE",
"69 -12 CURVE SMOOTH"
);
}
);
width = 671;
}
);
leftKerningGroup = H;
rightKerningGroup = H;
unicode = 004E;
},
{
glyphname = Eng;
lastChange = "2022-01-18 09:13:17 +0000";
layers = (
{
anchors = (
{
name = bottom;
position = "{304, 0}";
},
{
name = top;
position = "{376, 680}";
}
);
hints = (
{
origin = "{0, 26}";
type = Corner;
name = _corner.serifUC;
}
);
layerId = "B0B60A8F-2DEB-4A58-A43B-60A0DADABD8F";
paths = (
{
closed = 1;
nodes = (
"475 -170 OFFCURVE",
"608 -90 OFFCURVE",
"608 46 CURVE SMOOTH",
"608 97 OFFCURVE",
"595 141 OFFCURVE",
"622 392 CURVE SMOOTH",
"636 524 LINE SMOOTH",
"643 589 OFFCURVE",
"647 623 OFFCURVE",
"647 646 CURVE SMOOTH",
"647 672 OFFCURVE",
"640 694 OFFCURVE",
"615 694 CURVE SMOOTH",
"589 694 OFFCURVE",
"522 662 OFFCURVE",
"522 635 CURVE SMOOTH",
"522 600 OFFCURVE",
"552 573 OFFCURVE",
"533 387 CURVE SMOOTH",
"518 237 LINE",
"447 357 OFFCURVE",
"329 511 OFFCURVE",
"242 664 CURVE SMOOTH",
"225 694 OFFCURVE",
"214 696 OFFCURVE",
"190 696 CURVE SMOOTH",
"117 695 LINE",
"62 191 LINE SMOOTH",
"56 140 OFFCURVE",
"50 86 OFFCURVE",
"50 39 CURVE SMOOTH",
"50 11 OFFCURVE",
"54 -12 OFFCURVE",
"76 -12 CURVE SMOOTH",
"100 -12 OFFCURVE",
"175 19 OFFCURVE",
"175 48 CURVE SMOOTH",
"175 81 OFFCURVE",
"139 82 OFFCURVE",
"161 293 CURVE SMOOTH",
"186 529 LINE",
"265 385 OFFCURVE",
"380 247 OFFCURVE",
"441 137 CURVE SMOOTH",
"460 104 OFFCURVE",
"491 58 OFFCURVE",
"491 3 CURVE SMOOTH",
"491 -66 OFFCURVE",
"461 -88 OFFCURVE",
"431 -88 CURVE SMOOTH",
"408 -88 OFFCURVE",
"377 -77 OFFCURVE",
"345 -63 CURVE SMOOTH",
"328 -56 OFFCURVE",
"323 -53 OFFCURVE",
"316 -53 CURVE SMOOTH",
"310 -53 OFFCURVE",
"303 -59 OFFCURVE",
"303 -72 CURVE SMOOTH",
"303 -136 OFFCURVE",
"337 -170 OFFCURVE",
"406 -170 CURVE SMOOTH"
);
}
);
width = 659;
},
{
anchors = (
{
name = bottom;
position = "{307, 0}";
},
{
name = top;
position = "{379, 680}";
}
);
hints = (
{
origin = "{0, 26}";
type = Corner;
name = _corner.serifUC;
}
);
layerId = "42CFE912-843B-4D25-82F4-9ABC3064997D";
paths = (
{
closed = 1;
nodes = (
"482 -170 OFFCURVE",
"621 -85 OFFCURVE",
"621 46 CURVE SMOOTH",
"621 97 OFFCURVE",
"608 141 OFFCURVE",
"635 392 CURVE SMOOTH",
"649 524 LINE SMOOTH",
"656 589 OFFCURVE",
"661 611 OFFCURVE",
"661 634 CURVE SMOOTH",
"661 660 OFFCURVE",
"647 694 OFFCURVE",
"622 694 CURVE SMOOTH",
"596 694 OFFCURVE",
"519 681 OFFCURVE",
"519 654 CURVE SMOOTH",
"519 619 OFFCURVE",
"551 592 OFFCURVE",
"530 387 CURVE SMOOTH",
"518 271 LINE",
"450 385 OFFCURVE",
"356 526 OFFCURVE",
"277 664 CURVE SMOOTH",
"260 694 OFFCURVE",
"236 696 OFFCURVE",
"216 696 CURVE SMOOTH",
"110 695 LINE",
"55 191 LINE SMOOTH",
"49 140 OFFCURVE",
"43 86 OFFCURVE",
"43 39 CURVE SMOOTH",
"43 11 OFFCURVE",
"47 -12 OFFCURVE",
"69 -12 CURVE SMOOTH",
"93 -12 OFFCURVE",
"182 -1 OFFCURVE",
"182 28 CURVE SMOOTH",
"182 61 OFFCURVE",
"145 62 OFFCURVE",
"170 293 CURVE SMOOTH",
"189 472 LINE",
"262 349 OFFCURVE",
"348 232 OFFCURVE",
"401 137 CURVE SMOOTH",
"420 104 OFFCURVE",
"457 44 OFFCURVE",
"457 -12 CURVE SMOOTH",
"457 -49 OFFCURVE",
"449 -73 OFFCURVE",
"419 -73 CURVE SMOOTH",
"396 -73 OFFCURVE",
"362 -57 OFFCURVE",
"330 -43 CURVE SMOOTH",
"313 -36 OFFCURVE",
"308 -33 OFFCURVE",
"301 -33 CURVE SMOOTH",
"295 -33 OFFCURVE",
"285 -36 OFFCURVE",
"285 -60 CURVE SMOOTH",
"285 -128 OFFCURVE",
"329 -170 OFFCURVE",
"402 -170 CURVE SMOOTH"
);
}
);
width = 671;
}
);
leftKerningGroup = H;
leftMetricsKey = N;
rightKerningGroup = J;
rightMetricsKey = N;
unicode = 014A;
},
{
glyphname = Nhookleft;
lastChange = "2022-01-18 09:13:17 +0000";
layers = (
{
anchors = (
{
name = bottom;
position = "{278, 0}";
},
{
name = top;
position = "{350, 680}";
}
);
hints = (
{
origin = "{0, 42}";
type = Corner;
name = _corner.serifUC;
}
);
layerId = "B0B60A8F-2DEB-4A58-A43B-60A0DADABD8F";
paths = (
{
closed = 1;
nodes = (
"40 -170 OFFCURVE",
"148 -97 OFFCURVE",
"148 39 CURVE SMOOTH",
"148 72 OFFCURVE",
"148 188 OFFCURVE",
"159 293 CURVE SMOOTH",
"184 529 LINE",
"263 385 OFFCURVE",
"378 247 OFFCURVE",
"439 137 CURVE SMOOTH",
"458 104 OFFCURVE",
"488 49 OFFCURVE",
"487 23 CURVE SMOOTH",
"486 1 OFFCURVE",
"497 -11 OFFCURVE",
"509 -11 CURVE SMOOTH",
"537 -11 OFFCURVE",
"606 16 OFFCURVE",
"606 46 CURVE SMOOTH",
"606 97 OFFCURVE",
"593 141 OFFCURVE",
"620 392 CURVE SMOOTH",
"634 524 LINE SMOOTH",
"641 589 OFFCURVE",
"645 623 OFFCURVE",
"645 646 CURVE SMOOTH",
"645 672 OFFCURVE",
"638 694 OFFCURVE",
"613 694 CURVE SMOOTH",
"587 694 OFFCURVE",
"520 662 OFFCURVE",
"520 635 CURVE SMOOTH",
"520 600 OFFCURVE",
"550 573 OFFCURVE",
"531 387 CURVE SMOOTH",
"516 237 LINE",
"445 357 OFFCURVE",
"327 511 OFFCURVE",
"240 664 CURVE SMOOTH",
"223 694 OFFCURVE",
"212 696 OFFCURVE",
"188 696 CURVE SMOOTH",
"115 695 LINE",
"62 191 LINE SMOOTH",
"45 26 OFFCURVE",
"42 -88 OFFCURVE",
"-4 -88 CURVE SMOOTH",
"-27 -88 OFFCURVE",
"-58 -77 OFFCURVE",
"-90 -63 CURVE SMOOTH",
"-107 -56 OFFCURVE",
"-112 -53 OFFCURVE",
"-119 -53 CURVE SMOOTH",
"-125 -53 OFFCURVE",
"-132 -59 OFFCURVE",
"-132 -72 CURVE SMOOTH",
"-132 -136 OFFCURVE",
"-98 -170 OFFCURVE",
"-29 -170 CURVE SMOOTH"
);
}
);
width = 656;
},
{
anchors = (
{
name = bottom;
position = "{314, 0}";
},
{
name = top;
position = "{386, 680}";
}
);
hints = (
{
origin = "{0, 42}";
type = Corner;
name = _corner.serifUC;
}
);
layerId = "42CFE912-843B-4D25-82F4-9ABC3064997D";
paths = (
{
closed = 1;
nodes = (
"65 -170 OFFCURVE",
"161 -98 OFFCURVE",
"168 10 CURVE SMOOTH",
"173 91 OFFCURVE",
"163 162 OFFCURVE",
"177 293 CURVE SMOOTH",
"196 472 LINE",
"269 349 OFFCURVE",
"355 232 OFFCURVE",
"408 137 CURVE SMOOTH",
"427 104 OFFCURVE",
"457 49 OFFCURVE",
"456 23 CURVE SMOOTH",
"455 1 OFFCURVE",
"460 -11 OFFCURVE",
"484 -11 CURVE SMOOTH",
"532 -11 OFFCURVE",
"628 16 OFFCURVE",
"628 46 CURVE SMOOTH",
"628 97 OFFCURVE",
"615 141 OFFCURVE",
"642 392 CURVE SMOOTH",
"656 524 LINE SMOOTH",
"663 589 OFFCURVE",
"668 611 OFFCURVE",
"668 634 CURVE SMOOTH",
"668 660 OFFCURVE",
"654 694 OFFCURVE",
"629 694 CURVE SMOOTH",
"603 694 OFFCURVE",
"526 681 OFFCURVE",
"526 654 CURVE SMOOTH",
"526 619 OFFCURVE",
"558 592 OFFCURVE",
"537 387 CURVE SMOOTH",
"525 271 LINE",
"457 385 OFFCURVE",
"363 526 OFFCURVE",
"284 664 CURVE SMOOTH",
"267 694 OFFCURVE",
"243 696 OFFCURVE",
"223 696 CURVE SMOOTH",
"117 695 LINE",
"62 191 LINE SMOOTH",
"56 139 OFFCURVE",
"43 -73 OFFCURVE",
"3 -73 CURVE SMOOTH",
"-20 -73 OFFCURVE",
"-54 -57 OFFCURVE",
"-86 -43 CURVE SMOOTH",
"-103 -36 OFFCURVE",
"-108 -33 OFFCURVE",
"-115 -33 CURVE SMOOTH",
"-121 -33 OFFCURVE",
"-131 -36 OFFCURVE",
"-131 -60 CURVE SMOOTH",
"-131 -128 OFFCURVE",
"-87 -170 OFFCURVE",
"-14 -170 CURVE SMOOTH"
);
}
);
width = 678;
}
);
leftKerningGroup = Nhookleft;
leftMetricsKey = J;
rightKerningGroup = Nhookleft;
rightMetricsKey = N;
unicode = 019D;
},
{
glyphname = O;
lastChange = "2022-01-18 09:13:17 +0000";
layers = (
{
anchors = (
{
name = bottom;
position = "{335, 0}";
},
{
name = center;
position = "{371, 340}";
},
{
name = ogonek;
position = "{470, 10}";
},
{
name = top;
position = "{407, 680}";
},
{
name = topleft;
position = "{72, 680}";
},
{
name = topright;
position = "{742, 680}";
}
);
background = {
paths = (
{
closed = 1;
nodes = (
"405 -9 OFFCURVE",
"257 -6 CURVE SMOOTH",
"149 -5 OFFCURVE",
"93 58 OFFCURVE",
"93 174 CURVE SMOOTH",
"93 338 OFFCURVE",
"204 492 OFFCURVE",
"364 492 CURVE SMOOTH",
"481 492 OFFCURVE",
"525 403 OFFCURVE",
"521 287 CURVE SMOOTH",
"515 136 OFFCURVE"
);
},
{
closed = 1;
nodes = (
"416 223 OFFCURVE",
"416 320 CURVE SMOOTH",
"416 385 OFFCURVE",
"373 431 OFFCURVE",
"298 431 CURVE SMOOTH",
"234 431 OFFCURVE",
"200 274 OFFCURVE",
"200 173 CURVE SMOOTH",
"200 91 OFFCURVE",
"272 62 OFFCURVE",
"323 62 CURVE SMOOTH",
"390 62 OFFCURVE"
);
},
{
closed = 1;
nodes = (
"583 -13 OFFCURVE",
"376 -9 CURVE SMOOTH",
"225 -7 OFFCURVE",
"87 81 OFFCURVE",
"87 243 CURVE SMOOTH",
"87 473 OFFCURVE",
"252 688 OFFCURVE",
"476 688 CURVE SMOOTH",
"640 688 OFFCURVE",
"761 564 OFFCURVE",
"756 401 CURVE SMOOTH",
"747 190 OFFCURVE"
);
},
{
closed = 1;
nodes = (
"614 312 OFFCURVE",
"614 447 CURVE SMOOTH",
"614 538 OFFCURVE",
"489 603 OFFCURVE",
"384 603 CURVE SMOOTH",
"294 603 OFFCURVE",
"231 383 OFFCURVE",
"231 242 CURVE SMOOTH",
"231 127 OFFCURVE",
"397 86 OFFCURVE",
"469 86 CURVE SMOOTH",
"562 86 OFFCURVE"
);
},
{
closed = 1;
nodes = (
"568 57 OFFCURVE",
"629 283 OFFCURVE",
"629 418 CURVE SMOOTH",
"629 550 OFFCURVE",
"525 623 OFFCURVE",
"425 623 CURVE SMOOTH",
"300 623 OFFCURVE",
"216 396 OFFCURVE",
"216 261 CURVE SMOOTH",
"216 107 OFFCURVE",
"339 57 OFFCURVE",
"420 57 CURVE SMOOTH"
);
}
);
};
layerId = "B0B60A8F-2DEB-4A58-A43B-60A0DADABD8F";
paths = (
{
closed = 1;
nodes = (
"539 -16 OFFCURVE",
"699 158 OFFCURVE",
"699 398 CURVE SMOOTH",
"699 594 OFFCURVE",
"593 696 OFFCURVE",
"413 696 CURVE SMOOTH",
"203 696 OFFCURVE",
"43 522 OFFCURVE",
"43 283 CURVE SMOOTH",
"43 86 OFFCURVE",
"157 -16 OFFCURVE",
"329 -16 CURVE SMOOTH"
);
},
{
closed = 1;
nodes = (
"251 64 OFFCURVE",
"176 139 OFFCURVE",
"176 302 CURVE SMOOTH",
"176 488 OFFCURVE",
"278 616 OFFCURVE",
"400 616 CURVE SMOOTH",
"491 616 OFFCURVE",
"566 541 OFFCURVE",
"566 378 CURVE SMOOTH",
"566 192 OFFCURVE",
"454 64 OFFCURVE",
"342 64 CURVE SMOOTH"
);
}
);
width = 720;
},
{
associatedMasterId = "B0B60A8F-2DEB-4A58-A43B-60A0DADABD8F";
background = {
paths = (
{
closed = 1;
nodes = (
"356 -9 OFFCURVE",
"208 -6 CURVE SMOOTH",
"100 -5 OFFCURVE",
"44 58 OFFCURVE",
"44 174 CURVE SMOOTH",
"44 338 OFFCURVE",
"155 492 OFFCURVE",
"315 492 CURVE SMOOTH",
"432 492 OFFCURVE",
"476 403 OFFCURVE",
"472 287 CURVE SMOOTH",
"466 136 OFFCURVE"
);
},
{
closed = 1;
nodes = (
"367 223 OFFCURVE",
"367 320 CURVE SMOOTH",
"367 385 OFFCURVE",
"324 431 OFFCURVE",
"249 431 CURVE SMOOTH",
"185 431 OFFCURVE",
"151 274 OFFCURVE",
"151 173 CURVE SMOOTH",
"151 91 OFFCURVE",
"223 62 OFFCURVE",
"274 62 CURVE SMOOTH",
"341 62 OFFCURVE"
);
},
{
closed = 1;
nodes = (
"534 -13 OFFCURVE",
"327 -9 CURVE SMOOTH",
"176 -7 OFFCURVE",
"38 81 OFFCURVE",
"38 243 CURVE SMOOTH",
"38 473 OFFCURVE",
"203 688 OFFCURVE",
"427 688 CURVE SMOOTH",
"591 688 OFFCURVE",
"712 564 OFFCURVE",
"707 401 CURVE SMOOTH",
"698 190 OFFCURVE"
);
},
{
closed = 1;
nodes = (
"565 312 OFFCURVE",
"565 447 CURVE SMOOTH",
"565 538 OFFCURVE",
"440 603 OFFCURVE",
"335 603 CURVE SMOOTH",
"245 603 OFFCURVE",
"182 383 OFFCURVE",
"182 242 CURVE SMOOTH",
"182 127 OFFCURVE",
"348 86 OFFCURVE",
"420 86 CURVE SMOOTH",
"513 86 OFFCURVE"
);
},
{
closed = 1;
nodes = (
"519 57 OFFCURVE",
"580 283 OFFCURVE",
"580 418 CURVE SMOOTH",
"580 550 OFFCURVE",
"476 623 OFFCURVE",
"376 623 CURVE SMOOTH",
"251 623 OFFCURVE",
"167 396 OFFCURVE",
"167 261 CURVE SMOOTH",
"167 107 OFFCURVE",
"290 57 OFFCURVE",
"371 57 CURVE SMOOTH"
);
}
);
};
layerId = "4C2DB51E-46CA-45EB-9842-86D44B9271B9";
name = "Apr 6 21, 11:24";
paths = (
{
closed = 1;
nodes = (
"136 -15 OFFCURVE",
"30 99 OFFCURVE",
"30 304 CURVE SMOOTH",
"30 535 OFFCURVE",
"179 696 OFFCURVE",
"393 696 CURVE SMOOTH",
"583 696 OFFCURVE",
"689 582 OFFCURVE",
"689 377 CURVE SMOOTH",
"689 146 OFFCURVE",
"540 -15 OFFCURVE",
"326 -15 CURVE SMOOTH"
);
},
{
closed = 1;
nodes = (
"251 616 OFFCURVE",
"160 491 OFFCURVE",
"160 309 CURVE SMOOTH",
"160 160 OFFCURVE",
"241 65 OFFCURVE",
"344 65 CURVE SMOOTH",
"468 65 OFFCURVE",
"559 195 OFFCURVE",
"559 372 CURVE SMOOTH",
"559 519 OFFCURVE",
"490 616 OFFCURVE",
"383 616 CURVE SMOOTH"
);
}
);
width = 697;
},
{
associatedMasterId = "B0B60A8F-2DEB-4A58-A43B-60A0DADABD8F";
background = {
paths = (
{
closed = 1;
nodes = (
"356 -9 OFFCURVE",
"208 -6 CURVE SMOOTH",
"100 -5 OFFCURVE",
"44 58 OFFCURVE",
"44 174 CURVE SMOOTH",
"44 338 OFFCURVE",
"155 492 OFFCURVE",
"315 492 CURVE SMOOTH",
"432 492 OFFCURVE",
"476 403 OFFCURVE",
"472 287 CURVE SMOOTH",
"466 136 OFFCURVE"
);
},
{
closed = 1;
nodes = (
"367 223 OFFCURVE",
"367 320 CURVE SMOOTH",
"367 385 OFFCURVE",
"324 431 OFFCURVE",
"249 431 CURVE SMOOTH",
"185 431 OFFCURVE",
"151 274 OFFCURVE",
"151 173 CURVE SMOOTH",
"151 91 OFFCURVE",
"223 62 OFFCURVE",
"274 62 CURVE SMOOTH",
"341 62 OFFCURVE"
);
},
{
closed = 1;
nodes = (
"534 -13 OFFCURVE",
"327 -9 CURVE SMOOTH",
"176 -7 OFFCURVE",
"38 81 OFFCURVE",
"38 243 CURVE SMOOTH",
"38 473 OFFCURVE",
"203 688 OFFCURVE",
"427 688 CURVE SMOOTH",
"591 688 OFFCURVE",
"712 564 OFFCURVE",
"707 401 CURVE SMOOTH",
"698 190 OFFCURVE"
);
},
{
closed = 1;
nodes = (
"565 312 OFFCURVE",
"565 447 CURVE SMOOTH",
"565 538 OFFCURVE",
"440 603 OFFCURVE",
"335 603 CURVE SMOOTH",
"245 603 OFFCURVE",
"182 383 OFFCURVE",
"182 242 CURVE SMOOTH",
"182 127 OFFCURVE",
"348 86 OFFCURVE",
"420 86 CURVE SMOOTH",
"513 86 OFFCURVE"
);
},
{
closed = 1;
nodes = (
"519 57 OFFCURVE",
"580 283 OFFCURVE",
"580 418 CURVE SMOOTH",
"580 550 OFFCURVE",
"476 623 OFFCURVE",
"376 623 CURVE SMOOTH",
"251 623 OFFCURVE",
"167 396 OFFCURVE",
"167 261 CURVE SMOOTH",
"167 107 OFFCURVE",
"290 57 OFFCURVE",
"371 57 CURVE SMOOTH"
);
}
);
};
layerId = "8B1115C9-7A40-4497-8987-8565BA979C8B";
name = "Apr 6 21, 11:29";
paths = (
{
closed = 1;
nodes = (
"285 -16 LINE",
"76 -16 OFFCURVE",
"-4 86 OFFCURVE",
"-4 272 CURVE SMOOTH",
"-4 522 OFFCURVE",
"125 696 OFFCURVE",
"359 696 CURVE",
"351 616 LINE",
"211 616 OFFCURVE",
"125 468 OFFCURVE",
"125 272 CURVE SMOOTH",
"125 139 OFFCURVE",
"170 64 OFFCURVE",
"293 64 CURVE"
);
},
{
closed = 1;
nodes = (
"359 696 LINE",
"568 696 OFFCURVE",
"648 594 OFFCURVE",
"648 408 CURVE SMOOTH",
"648 158 OFFCURVE",
"519 -16 OFFCURVE",
"285 -16 CURVE",
"293 64 LINE",
"433 64 OFFCURVE",
"519 212 OFFCURVE",
"519 408 CURVE SMOOTH",
"519 541 OFFCURVE",
"474 616 OFFCURVE",
"351 616 CURVE"
);
}
);
width = 697;
},
{
anchors = (
{
name = bottom;
position = "{350, 0}";
},
{
name = center;
position = "{386, 340}";
},
{
name = ogonek;
position = "{485, 10}";
},
{
name = top;
position = "{422, 680}";
},
{
name = topleft;
position = "{87, 680}";
},
{
name = topright;
position = "{757, 680}";
}
);
background = {
anchors = (
{
name = bottom;
position = "{350, 0}";
},
{
name = center;
position = "{386, 340}";
},
{
name = ogonek;
position = "{485, 10}";
},
{
name = top;
position = "{422, 680}";
},
{
name = topleft;
position = "{87, 680}";
},
{
name = topright;
position = "{757, 680}";
}
);
paths = (
{
closed = 1;
nodes = (
"554 -16 OFFCURVE",
"714 158 OFFCURVE",
"714 398 CURVE SMOOTH",
"714 594 OFFCURVE",
"608 696 OFFCURVE",
"428 696 CURVE SMOOTH",
"218 696 OFFCURVE",
"58 522 OFFCURVE",
"58 283 CURVE SMOOTH",
"58 86 OFFCURVE",
"172 -16 OFFCURVE",
"344 -16 CURVE SMOOTH"
);
},
{
closed = 1;
nodes = (
"506 616 OFFCURVE",
"581 541 OFFCURVE",
"581 378 CURVE SMOOTH",
"581 192 OFFCURVE",
"469 64 OFFCURVE",
"357 64 CURVE SMOOTH",
"266 64 OFFCURVE",
"191 139 OFFCURVE",
"191 302 CURVE SMOOTH",
"191 488 OFFCURVE",
"293 616 OFFCURVE",
"415 616 CURVE SMOOTH"
);
}
);
};
layerId = "42CFE912-843B-4D25-82F4-9ABC3064997D";
paths = (
{
closed = 1;
nodes = (
"564 -16 OFFCURVE",
"734 148 OFFCURVE",
"734 398 CURVE SMOOTH",
"734 594 OFFCURVE",
"618 696 OFFCURVE",
"428 696 CURVE SMOOTH",
"208 696 OFFCURVE",
"38 532 OFFCURVE",
"38 283 CURVE SMOOTH",
"38 86 OFFCURVE",
"162 -16 OFFCURVE",
"344 -16 CURVE SMOOTH"
);
},
{
closed = 1;
nodes = (
"276 64 OFFCURVE",
"226 144 OFFCURVE",
"226 302 CURVE SMOOTH",
"226 488 OFFCURVE",
"299 616 OFFCURVE",
"410 616 CURVE SMOOTH",
"496 616 OFFCURVE",
"546 536 OFFCURVE",
"546 378 CURVE SMOOTH",
"546 192 OFFCURVE",
"469 64 OFFCURVE",
"357 64 CURVE SMOOTH"
);
}
);
width = 750;
}
);
leftKerningGroup = O;
rightKerningGroup = O;
rightMetricsKey = "=|";
unicode = 004F;
},
{
glyphname = Oslash;
lastChange = "2022-01-18 09:13:17 +0000";
layers = (
{
anchors = (
{
name = bottom;
position = "{275, 0}";
},
{
name = top;
position = "{416, 720}";
}
);
components = (
{
name = O;
}
);
layerId = "B0B60A8F-2DEB-4A58-A43B-60A0DADABD8F";
paths = (
{
closed = 1;
nodes = (
"213 -67 OFFCURVE",
"217 -62 OFFCURVE",
"219 -57 CURVE SMOOTH",
"541 682 LINE SMOOTH",
"554 711 OFFCURVE",
"559 732 OFFCURVE",
"554 747 CURVE SMOOTH",
"549 761 OFFCURVE",
"524 776 OFFCURVE",
"516 773 CURVE SMOOTH",
"512 772 OFFCURVE",
"509 769 OFFCURVE",
"506 763 CURVE SMOOTH",
"182 18 LINE SMOOTH",
"170 -10 OFFCURVE",
"166 -31 OFFCURVE",
"171 -46 CURVE SMOOTH",
"176 -60 OFFCURVE",
"199 -73 OFFCURVE",
"209 -69 CURVE SMOOTH"
);
}
);
width = 710;
},
{
anchors = (
{
name = bottom;
position = "{275, 0}";
},
{
name = top;
position = "{416, 720}";
}
);
background = {
paths = (
{
closed = 1;
nodes = (
"182 18 LINE SMOOTH",
"170 -10 OFFCURVE",
"166 -31 OFFCURVE",
"171 -46 CURVE SMOOTH",
"176 -60 OFFCURVE",
"199 -73 OFFCURVE",
"209 -69 CURVE SMOOTH",
"213 -67 OFFCURVE",
"217 -62 OFFCURVE",
"219 -57 CURVE SMOOTH",
"541 682 LINE SMOOTH",
"554 711 OFFCURVE",
"559 732 OFFCURVE",
"554 747 CURVE SMOOTH",
"549 761 OFFCURVE",
"524 776 OFFCURVE",
"516 773 CURVE SMOOTH",
"512 772 OFFCURVE",
"509 769 OFFCURVE",
"506 763 CURVE SMOOTH"
);
}
);
};
components = (
{
name = O;
}
);
layerId = "42CFE912-843B-4D25-82F4-9ABC3064997D";
paths = (
{
closed = 1;
nodes = (
"225 -84 OFFCURVE",
"229 -77 OFFCURVE",
"232 -71 CURVE SMOOTH",
"561 682 LINE SMOOTH",
"574 711 OFFCURVE",
"580 728 OFFCURVE",
"574 745 CURVE SMOOTH",
"569 760 OFFCURVE",
"541 787 OFFCURVE",
"517 787 CURVE SMOOTH",
"506 787 OFFCURVE",
"499 770 OFFCURVE",
"496 763 CURVE SMOOTH",
"172 18 LINE SMOOTH",
"160 -10 OFFCURVE",
"156 -32 OFFCURVE",
"161 -46 CURVE SMOOTH",
"168 -69 OFFCURVE",
"204 -84 OFFCURVE",
"218 -84 CURVE SMOOTH"
);
}
);
width = 750;
}
);
leftKerningGroup = O;
rightKerningGroup = O;
unicode = 00D8;
},
{
glyphname = OE;
lastChange = "2022-01-18 09:13:17 +0000";
layers = (
{
anchors = (
{
name = bottom;
position = "{480, 0}";
},
{
name = top;
position = "{552, 680}";
}
);
components = (
{
name = O;
}
);
layerId = "B0B60A8F-2DEB-4A58-A43B-60A0DADABD8F";
paths = (
{
closed = 1;
nodes = (
"541 -16 OFFCURVE",
"624 0 OFFCURVE",
"772 0 CURVE SMOOTH",
"889 0 LINE SMOOTH",
"932 0 OFFCURVE",
"958 67 OFFCURVE",
"958 117 CURVE SMOOTH",
"958 127 OFFCURVE",
"952 131 OFFCURVE",
"946 131 CURVE SMOOTH",
"941 131 OFFCURVE",
"923 126 OFFCURVE",
"899 122 CURVE SMOOTH",
"552 70 LINE",
"338 -16 LINE"
);
},
{
closed = 1;
nodes = (
"772 317 LINE SMOOTH",
"828 318 OFFCURVE",
"899 357 OFFCURVE",
"899 387 CURVE SMOOTH",
"899 397 OFFCURVE",
"893 404 OFFCURVE",
"883 404 CURVE SMOOTH",
"869 404 OFFCURVE",
"790 392 OFFCURVE",
"705 392 CURVE SMOOTH",
"617 392 LINE",
"604 315 LINE"
);
},
{
closed = 1;
nodes = (
"973 578 OFFCURVE",
"996 631 OFFCURVE",
"996 668 CURVE SMOOTH",
"996 688 OFFCURVE",
"991 690 OFFCURVE",
"976 690 CURVE SMOOTH",
"956 690 OFFCURVE",
"910 680 OFFCURVE",
"769 680 CURVE SMOOTH",
"505 680 LINE",
"604 605 LINE",
"859 588 LINE SMOOTH",
"897 585 OFFCURVE",
"930 578 OFFCURVE",
"944 578 CURVE SMOOTH"
);
}
);
width = 992;
},
{
anchors = (
{
name = bottom;
position = "{481, 0}";
},
{
name = top;
position = "{553, 680}";
}
);
background = {
paths = (
{
closed = 1;
nodes = (
"772 317 LINE SMOOTH",
"828 318 OFFCURVE",
"899 357 OFFCURVE",
"899 387 CURVE SMOOTH",
"899 397 OFFCURVE",
"893 404 OFFCURVE",
"883 404 CURVE SMOOTH",
"869 404 OFFCURVE",
"790 392 OFFCURVE",
"705 392 CURVE SMOOTH",
"617 392 LINE",
"604 315 LINE"
);
},
{
closed = 1;
nodes = (
"338 -16 LINE",
"541 -16 OFFCURVE",
"624 0 OFFCURVE",
"772 0 CURVE SMOOTH",
"889 0 LINE SMOOTH",
"932 0 OFFCURVE",
"958 67 OFFCURVE",
"958 117 CURVE SMOOTH",
"958 127 OFFCURVE",
"952 131 OFFCURVE",
"946 131 CURVE SMOOTH",
"941 131 OFFCURVE",
"923 126 OFFCURVE",
"899 122 CURVE SMOOTH",
"552 70 LINE"
);
},
{
closed = 1;
nodes = (
"604 605 LINE",
"859 588 LINE SMOOTH",
"897 585 OFFCURVE",
"930 578 OFFCURVE",
"944 578 CURVE SMOOTH",
"973 578 OFFCURVE",
"996 631 OFFCURVE",
"996 668 CURVE SMOOTH",
"996 688 OFFCURVE",
"991 690 OFFCURVE",
"976 690 CURVE SMOOTH",
"956 690 OFFCURVE",
"910 680 OFFCURVE",
"769 680 CURVE SMOOTH",
"505 680 LINE"
);
}
);
};
components = (
{
name = O;
}
);
layerId = "42CFE912-843B-4D25-82F4-9ABC3064997D";
paths = (
{
closed = 1;
nodes = (
"541 -15 OFFCURVE",
"617 0 OFFCURVE",
"767 0 CURVE SMOOTH",
"905 0 LINE SMOOTH",
"948 0 OFFCURVE",
"979 83 OFFCURVE",
"979 120 CURVE SMOOTH",
"979 138 OFFCURVE",
"973 147 OFFCURVE",
"962 147 CURVE SMOOTH",
"952 147 OFFCURVE",
"924 138 OFFCURVE",
"900 134 CURVE SMOOTH",
"522 72 LINE",
"338 -15 LINE"
);
},
{
closed = 1;
nodes = (
"772 307 LINE SMOOTH",
"855 308 OFFCURVE",
"918 357 OFFCURVE",
"918 388 CURVE SMOOTH",
"918 401 OFFCURVE",
"910 414 OFFCURVE",
"892 414 CURVE SMOOTH",
"879 414 OFFCURVE",
"790 402 OFFCURVE",
"705 402 CURVE SMOOTH",
"657 402 LINE",
"644 305 LINE"
);
},
{
closed = 1;
nodes = (
"981 558 OFFCURVE",
"1014 633 OFFCURVE",
"1014 670 CURVE SMOOTH",
"1014 690 OFFCURVE",
"997 692 OFFCURVE",
"982 692 CURVE SMOOTH",
"960 692 OFFCURVE",
"896 679 OFFCURVE",
"761 680 CURVE SMOOTH",
"494 681 LINE",
"609 595 LINE",
"855 573 LINE SMOOTH",
"895 569 OFFCURVE",
"934 558 OFFCURVE",
"952 558 CURVE SMOOTH"
);
}
);
width = 1012;
}
);
leftKerningGroup = O;
leftMetricsKey = O;
rightKerningGroup = E;
rightMetricsKey = E;
unicode = 0152;
},
{
glyphname = P;
lastChange = "2022-01-18 09:13:17 +0000";
layers = (
{
anchors = (
{
name = bottom;
position = "{250, 0}";
},
{
name = top;
position = "{322, 680}";
}
);
background = {
paths = (
{
closed = 1;
nodes = (
"196 629 OFFCURVE",
"202 634 OFFCURVE",
"318 634 CURVE SMOOTH",
"464 634 OFFCURVE",
"522 555 OFFCURVE",
"522 418 CURVE SMOOTH",
"522 261 OFFCURVE",
"429 59 OFFCURVE",
"249 59 CURVE SMOOTH",
"191 59 OFFCURVE",
"142 65 OFFCURVE",
"146 120 CURVE",
"115 120 LINE",
"115 0 LINE",
"149 0 OFFCURVE",
"176 0 OFFCURVE",
"211 0 CURVE SMOOTH",
"548 0 OFFCURVE",
"662 241 OFFCURVE",
"662 429 CURVE SMOOTH",
"662 598 OFFCURVE",
"559 684 OFFCURVE",
"380 684 CURVE SMOOTH",
"310 684 OFFCURVE",
"262 680 OFFCURVE",
"184 680 CURVE",
"184 584 LINE",
"191 584 LINE"
);
},
{
closed = 1;
nodes = (
"193 364 OFFCURVE",
"196 362 OFFCURVE",
"205 363 CURVE SMOOTH",
"264 372 OFFCURVE",
"384 393 OFFCURVE",
"406 393 CURVE",
"406 396 OFFCURVE",
"406 401 OFFCURVE",
"406 406 CURVE",
"476 434 OFFCURVE",
"547 487 OFFCURVE",
"547 557 CURVE SMOOTH",
"547 619 OFFCURVE",
"488 684 OFFCURVE",
"337 684 CURVE SMOOTH",
"282 684 OFFCURVE",
"262 680 OFFCURVE",
"184 680 CURVE",
"184 584 LINE",
"191 584 LINE",
"196 629 OFFCURVE",
"202 646 OFFCURVE",
"298 646 CURVE SMOOTH",
"400 646 OFFCURVE",
"428 594 OFFCURVE",
"428 565 CURVE SMOOTH",
"428 502 OFFCURVE",
"362 421 OFFCURVE",
"209 406 CURVE SMOOTH",
"198 405 OFFCURVE",
"196 401 OFFCURVE",
"195 391 CURVE",
"194 373 LINE"
);
}
);
};
hints = (
{
origin = "{0, 20}";
type = Corner;
name = _corner.serifUC;
},
{
origin = "{0, 0}";
type = Corner;
name = _corner.serifUC;
}
);
layerId = "B0B60A8F-2DEB-4A58-A43B-60A0DADABD8F";
paths = (
{
closed = 1;
nodes = (
"161 -8 LINE",
"227 605 LINE",
"348 605 OFFCURVE",
"413 579 OFFCURVE",
"413 490 CURVE SMOOTH",
"413 385 OFFCURVE",
"330 326 OFFCURVE",
"240 309 CURVE SMOOTH",
"229 307 OFFCURVE",
"218 302 OFFCURVE",
"218 288 CURVE SMOOTH",
"218 266 OFFCURVE",
"253 241 OFFCURVE",
"275 241 CURVE SMOOTH",
"384 241 OFFCURVE",
"546 349 OFFCURVE",
"546 503 CURVE SMOOTH",
"546 629 OFFCURVE",
"465 680 OFFCURVE",
"301 680 CURVE SMOOTH",
"115 680 LINE",
"52 96 LINE SMOOTH",
"50 79 OFFCURVE",
"49 64 OFFCURVE",
"49 51 CURVE SMOOTH",
"49 15 OFFCURVE",
"57 -8 OFFCURVE",
"80 -8 CURVE SMOOTH"
);
}
);
width = 554;
},
{
associatedMasterId = "B0B60A8F-2DEB-4A58-A43B-60A0DADABD8F";
background = {
paths = (
{
closed = 1;
nodes = (
"199 629 OFFCURVE",
"205 634 OFFCURVE",
"321 634 CURVE SMOOTH",
"467 634 OFFCURVE",
"525 555 OFFCURVE",
"525 418 CURVE SMOOTH",
"525 261 OFFCURVE",
"432 59 OFFCURVE",
"252 59 CURVE SMOOTH",
"194 59 OFFCURVE",
"145 65 OFFCURVE",
"149 120 CURVE",
"118 120 LINE",
"118 0 LINE",
"152 0 OFFCURVE",
"179 0 OFFCURVE",
"214 0 CURVE SMOOTH",
"551 0 OFFCURVE",
"665 241 OFFCURVE",
"665 429 CURVE SMOOTH",
"665 598 OFFCURVE",
"562 684 OFFCURVE",
"383 684 CURVE SMOOTH",
"313 684 OFFCURVE",
"265 680 OFFCURVE",
"187 680 CURVE",
"187 584 LINE",
"194 584 LINE"
);
},
{
closed = 1;
nodes = (
"196 364 OFFCURVE",
"199 362 OFFCURVE",
"208 363 CURVE SMOOTH",
"267 372 OFFCURVE",
"387 393 OFFCURVE",
"409 393 CURVE",
"409 396 OFFCURVE",
"409 401 OFFCURVE",
"409 406 CURVE",
"479 434 OFFCURVE",
"550 487 OFFCURVE",
"550 557 CURVE SMOOTH",
"550 619 OFFCURVE",
"491 684 OFFCURVE",
"340 684 CURVE SMOOTH",
"285 684 OFFCURVE",
"265 680 OFFCURVE",
"187 680 CURVE",
"187 584 LINE",
"194 584 LINE",
"199 629 OFFCURVE",
"205 646 OFFCURVE",
"301 646 CURVE SMOOTH",
"403 646 OFFCURVE",
"431 594 OFFCURVE",
"431 565 CURVE SMOOTH",
"431 502 OFFCURVE",
"365 421 OFFCURVE",
"212 406 CURVE SMOOTH",
"201 405 OFFCURVE",
"199 401 OFFCURVE",
"198 391 CURVE",
"197 373 LINE"
);
}
);
};
hints = (
{
origin = "{0, 21}";
type = Corner;
name = _corner.serifUC;
},
{
origin = "{0, 3}";
type = Corner;
name = _corner.serifUC;
}
);
layerId = "892F862E-1A43-467F-87C1-51B360F34DFE";
name = "Apr 6 21, 09:03";
paths = (
{
closed = 1;
nodes = (
"51 15 OFFCURVE",
"59 -8 OFFCURVE",
"83 -8 CURVE SMOOTH",
"164 -8 LINE",
"230 605 LINE",
"288 605 LINE SMOOTH",
"388 605 OFFCURVE",
"446 559 OFFCURVE",
"446 460 CURVE SMOOTH",
"446 346 OFFCURVE",
"363 290 OFFCURVE",
"247 290 CURVE SMOOTH",
"173 290 LINE",
"178 214 LINE",
"245 214 LINE SMOOTH",
"416 214 OFFCURVE",
"576 307 OFFCURVE",
"576 474 CURVE SMOOTH",
"576 605 OFFCURVE",
"492 680 OFFCURVE",
"296 680 CURVE SMOOTH",
"118 680 LINE",
"54 96 LINE SMOOTH",
"52 79 OFFCURVE",
"51 64 OFFCURVE",
"51 51 CURVE SMOOTH"
);
}
);
width = 578;
},
{
anchors = (
{
name = bottom;
position = "{273, 0}";
},
{
name = top;
position = "{345, 680}";
}
);
background = {
anchors = (
{
name = bottom;
position = "{273, 0}";
},
{
name = top;
position = "{345, 680}";
}
);
hints = (
{
origin = "{0, 3}";
type = Corner;
name = _corner.serifUC;
},
{
origin = "{0, 23}";
type = Corner;
name = _corner.serifUC;
}
);
paths = (
{
closed = 1;
nodes = (
"72 15 OFFCURVE",
"80 -8 OFFCURVE",
"103 -8 CURVE SMOOTH",
"184 -8 LINE",
"250 605 LINE",
"371 605 OFFCURVE",
"436 579 OFFCURVE",
"436 490 CURVE SMOOTH",
"436 385 OFFCURVE",
"353 326 OFFCURVE",
"263 309 CURVE SMOOTH",
"252 307 OFFCURVE",
"241 302 OFFCURVE",
"241 288 CURVE SMOOTH",
"241 266 OFFCURVE",
"276 241 OFFCURVE",
"298 241 CURVE SMOOTH",
"407 241 OFFCURVE",
"569 349 OFFCURVE",
"569 503 CURVE SMOOTH",
"569 629 OFFCURVE",
"488 680 OFFCURVE",
"324 680 CURVE SMOOTH",
"138 680 LINE",
"75 96 LINE SMOOTH",
"73 79 OFFCURVE",
"72 64 OFFCURVE",
"72 51 CURVE SMOOTH"
);
}
);
};
hints = (
{
origin = "{0, 0}";
type = Corner;
name = _corner.serifUC;
},
{
origin = "{0, 20}";
type = Corner;
name = _corner.serifUC;
}
);
layerId = "42CFE912-843B-4D25-82F4-9ABC3064997D";
paths = (
{
closed = 1;
nodes = (
"194 -8 LINE",
"260 600 LINE",
"342 600 OFFCURVE",
"401 579 OFFCURVE",
"401 490 CURVE SMOOTH",
"401 409 OFFCURVE",
"369 344 OFFCURVE",
"278 318 CURVE SMOOTH",
"254 311 OFFCURVE",
"246 307 OFFCURVE",
"246 292 CURVE SMOOTH",
"246 262 OFFCURVE",
"281 240 OFFCURVE",
"311 240 CURVE SMOOTH",
"422 240 OFFCURVE",
"579 349 OFFCURVE",
"579 503 CURVE SMOOTH",
"579 629 OFFCURVE",
"498 680 OFFCURVE",
"321 680 CURVE SMOOTH",
"108 680 LINE",
"45 96 LINE SMOOTH",
"43 79 OFFCURVE",
"42 64 OFFCURVE",
"42 51 CURVE SMOOTH",
"42 15 OFFCURVE",
"50 -8 OFFCURVE",
"81 -8 CURVE SMOOTH"
);
}
);
width = 582;
}
);
leftKerningGroup = H;
leftMetricsKey = H;
rightKerningGroup = P;
rightMetricsKey = O;
unicode = 0050;
},
{
glyphname = Thorn;
lastChange = "2022-01-18 09:13:17 +0000";
layers = (
{
anchors = (
{
name = bottom;
position = "{275, 0}";
},
{
name = top;
position = "{347, 680}";
}
);
components = (
{
name = I;
}
);
layerId = "B0B60A8F-2DEB-4A58-A43B-60A0DADABD8F";
paths = (
{
closed = 1;
nodes = (
"374 132 OFFCURVE",
"536 240 OFFCURVE",
"536 394 CURVE SMOOTH",
"536 520 OFFCURVE",
"455 572 OFFCURVE",
"261 572 CURVE SMOOTH",
"209 572 LINE",
"216 496 LINE",
"346 491 OFFCURVE",
"403 461 OFFCURVE",
"403 381 CURVE SMOOTH",
"403 276 OFFCURVE",
"320 217 OFFCURVE",
"230 200 CURVE SMOOTH",
"219 198 OFFCURVE",
"208 193 OFFCURVE",
"208 179 CURVE SMOOTH",
"208 157 OFFCURVE",
"243 132 OFFCURVE",
"265 132 CURVE SMOOTH"
);
}
);
width = 556;
},
{
anchors = (
{
name = bottom;
position = "{275, 0}";
},
{
name = top;
position = "{347, 680}";
}
);
background = {
paths = (
{
closed = 1;
nodes = (
"380 491 OFFCURVE",
"437 461 OFFCURVE",
"437 381 CURVE SMOOTH",
"437 276 OFFCURVE",
"354 217 OFFCURVE",
"264 200 CURVE SMOOTH",
"253 198 OFFCURVE",
"242 193 OFFCURVE",
"242 179 CURVE SMOOTH",
"242 157 OFFCURVE",
"277 132 OFFCURVE",
"299 132 CURVE SMOOTH",
"408 132 OFFCURVE",
"570 240 OFFCURVE",
"570 394 CURVE SMOOTH",
"570 520 OFFCURVE",
"489 572 OFFCURVE",
"295 572 CURVE SMOOTH",
"243 572 LINE",
"250 496 LINE"
);
}
);
};
components = (
{
name = I;
}
);
layerId = "42CFE912-843B-4D25-82F4-9ABC3064997D";
paths = (
{
closed = 1;
nodes = (
"403 132 OFFCURVE",
"575 236 OFFCURVE",
"575 394 CURVE SMOOTH",
"575 520 OFFCURVE",
"493 572 OFFCURVE",
"295 572 CURVE SMOOTH",
"243 572 LINE",
"250 486 LINE",
"346 481 OFFCURVE",
"407 457 OFFCURVE",
"407 378 CURVE SMOOTH",
"407 281 OFFCURVE",
"349 229 OFFCURVE",
"259 210 CURVE SMOOTH",
"248 208 OFFCURVE",
"237 203 OFFCURVE",
"237 189 CURVE SMOOTH",
"237 167 OFFCURVE",
"272 132 OFFCURVE",
"311 132 CURVE SMOOTH"
);
}
);
width = 590;
}
);
leftKerningGroup = H;
leftMetricsKey = H;
rightKerningGroup = Thorn;
rightMetricsKey = O;
unicode = 00DE;
},
{
glyphname = Q;
lastChange = "2022-01-18 09:13:17 +0000";
layers = (
{
anchors = (
{
name = bottom;
position = "{320, 0}";
},
{
name = top;
position = "{392, 680}";
}
);
background = {
paths = (
{
closed = 1;
nodes = (
"708 206 OFFCURVE",
"543 -9 OFFCURVE",
"319 -9 CURVE SMOOTH",
"172 -9 OFFCURVE",
"27 72 OFFCURVE",
"27 243 CURVE SMOOTH",
"27 473 OFFCURVE",
"192 688 OFFCURVE",
"416 688 CURVE SMOOTH",
"563 688 OFFCURVE",
"708 607 OFFCURVE",
"708 436 CURVE SMOOTH"
);
},
{
closed = 1;
nodes = (
"500 56 OFFCURVE",
"573 283 OFFCURVE",
"573 418 CURVE SMOOTH",
"573 572 OFFCURVE",
"462 623 OFFCURVE",
"375 623 CURVE SMOOTH",
"235 623 OFFCURVE",
"162 396 OFFCURVE",
"162 261 CURVE SMOOTH",
"162 107 OFFCURVE",
"273 56 OFFCURVE",
"360 56 CURVE SMOOTH"
);
},
{
closed = 1;
nodes = (
"708 203 OFFCURVE",
"549 11 OFFCURVE",
"329 11 CURVE SMOOTH",
"172 11 OFFCURVE",
"27 72 OFFCURVE",
"27 276 CURVE SMOOTH",
"27 491 OFFCURVE",
"192 688 OFFCURVE",
"416 688 CURVE SMOOTH",
"557 688 OFFCURVE",
"708 609 OFFCURVE",
"708 429 CURVE SMOOTH"
);
}
);
};
components = (
{
name = O;
}
);
layerId = "B0B60A8F-2DEB-4A58-A43B-60A0DADABD8F";
paths = (
{
closed = 1;
nodes = (
"653 -170 OFFCURVE",
"730 -113 OFFCURVE",
"730 -80 CURVE SMOOTH",
"730 -69 OFFCURVE",
"725 -64 OFFCURVE",
"715 -64 CURVE SMOOTH",
"580 -64 OFFCURVE",
"545 -39 OFFCURVE",
"468 31 CURVE",
"379 -9 LINE",
"449 -109 OFFCURVE",
"532 -170 OFFCURVE",
"601 -170 CURVE SMOOTH"
);
}
);
width = 710;
},
{
anchors = (
{
name = bottom;
position = "{320, 0}";
},
{
name = top;
position = "{392, 680}";
}
);
background = {
paths = (
{
closed = 1;
nodes = (
"459 -109 OFFCURVE",
"542 -170 OFFCURVE",
"611 -170 CURVE SMOOTH",
"663 -170 OFFCURVE",
"740 -113 OFFCURVE",
"740 -80 CURVE SMOOTH",
"740 -69 OFFCURVE",
"735 -64 OFFCURVE",
"725 -64 CURVE SMOOTH",
"590 -64 OFFCURVE",
"555 -39 OFFCURVE",
"478 31 CURVE",
"389 -9 LINE"
);
}
);
};
components = (
{
name = O;
}
);
layerId = "42CFE912-843B-4D25-82F4-9ABC3064997D";
paths = (
{
closed = 1;
nodes = (
"687 -185 OFFCURVE",
"755 -116 OFFCURVE",
"755 -76 CURVE SMOOTH",
"755 -65 OFFCURVE",
"751 -53 OFFCURVE",
"725 -53 CURVE SMOOTH",
"590 -53 OFFCURVE",
"555 -29 OFFCURVE",
"478 41 CURVE",
"376 -4 LINE",
"446 -104 OFFCURVE",
"532 -185 OFFCURVE",
"611 -185 CURVE SMOOTH"
);
}
);
width = 750;
}
);
leftKerningGroup = O;
leftMetricsKey = "=O";
rightKerningGroup = O;
unicode = 0051;
},
{
glyphname = R;
lastChange = "2022-01-18 09:13:17 +0000";
layers = (
{
anchors = (
{
name = bottom;
position = "{255, 0}";
},
{
name = top;
position = "{327, 680}";
}
);
background = {
paths = (
{
closed = 1;
nodes = (
"188 334 OFFCURVE",
"191 331 OFFCURVE",
"200 331 CURVE SMOOTH",
"433 331 OFFCURVE",
"563 414 OFFCURVE",
"563 544 CURVE SMOOTH",
"563 626 OFFCURVE",
"487 684 OFFCURVE",
"340 684 CURVE SMOOTH",
"291 684 OFFCURVE",
"269 680 OFFCURVE",
"191 680 CURVE",
"191 584 LINE",
"198 584 LINE",
"203 629 OFFCURVE",
"214 639 OFFCURVE",
"304 639 CURVE SMOOTH",
"425 639 OFFCURVE",
"445 581 OFFCURVE",
"445 533 CURVE SMOOTH",
"445 445 OFFCURVE",
"374 374 OFFCURVE",
"204 374 CURVE SMOOTH",
"193 374 OFFCURVE",
"192 369 OFFCURVE",
"191 360 CURVE",
"189 343 LINE"
);
},
{
closed = 1;
nodes = (
"190 350 OFFCURVE",
"193 347 OFFCURVE",
"202 347 CURVE SMOOTH",
"420 347 OFFCURVE",
"563 414 OFFCURVE",
"563 544 CURVE SMOOTH",
"563 626 OFFCURVE",
"487 684 OFFCURVE",
"340 684 CURVE SMOOTH",
"291 684 OFFCURVE",
"269 680 OFFCURVE",
"191 680 CURVE",
"191 584 LINE",
"198 584 LINE",
"203 629 OFFCURVE",
"214 639 OFFCURVE",
"304 639 CURVE SMOOTH",
"425 639 OFFCURVE",
"445 581 OFFCURVE",
"445 533 CURVE SMOOTH",
"445 445 OFFCURVE",
"361 390 OFFCURVE",
"206 390 CURVE SMOOTH",
"195 390 OFFCURVE",
"194 385 OFFCURVE",
"193 376 CURVE",
"191 359 LINE"
);
},
{
closed = 1;
nodes = (
"200 364 OFFCURVE",
"203 362 OFFCURVE",
"212 363 CURVE SMOOTH",
"271 372 OFFCURVE",
"391 393 OFFCURVE",
"413 393 CURVE",
"413 396 OFFCURVE",
"413 401 OFFCURVE",
"413 406 CURVE",
"483 434 OFFCURVE",
"554 487 OFFCURVE",
"554 557 CURVE SMOOTH",
"554 619 OFFCURVE",
"495 684 OFFCURVE",
"344 684 CURVE SMOOTH",
"289 684 OFFCURVE",
"269 680 OFFCURVE",
"191 680 CURVE",
"191 584 LINE",
"198 584 LINE",
"203 629 OFFCURVE",
"209 646 OFFCURVE",
"305 646 CURVE SMOOTH",
"407 646 OFFCURVE",
"435 594 OFFCURVE",
"435 565 CURVE SMOOTH",
"435 502 OFFCURVE",
"369 421 OFFCURVE",
"216 406 CURVE SMOOTH",
"205 405 OFFCURVE",
"203 401 OFFCURVE",
"202 391 CURVE",
"201 373 LINE"
);
}
);
};
hints = (
{
origin = "{0, 26}";
type = Corner;
name = _corner.serifUC;
},
{
origin = "{0, 18}";
type = Corner;
name = _corner.serifUC;
}
);
layerId = "B0B60A8F-2DEB-4A58-A43B-60A0DADABD8F";
paths = (
{
closed = 1;
nodes = (
"467 -9 OFFCURVE",
"547 25 OFFCURVE",
"547 48 CURVE SMOOTH",
"547 60 OFFCURVE",
"532 65 OFFCURVE",
"499 91 CURVE SMOOTH",
"470 114 OFFCURVE",
"402 191 OFFCURVE",
"334 333 CURVE",
"326 283 LINE",
"430 304 OFFCURVE",
"541 373 OFFCURVE",
"541 499 CURVE SMOOTH",
"541 632 OFFCURVE",
"435 690 OFFCURVE",
"289 690 CURVE SMOOTH",
"231 690 OFFCURVE",
"173 686 OFFCURVE",
"115 680 CURVE",
"51 96 LINE SMOOTH",
"49 79 OFFCURVE",
"48 64 OFFCURVE",
"48 51 CURVE SMOOTH",
"48 15 OFFCURVE",
"56 -8 OFFCURVE",
"79 -8 CURVE SMOOTH",
"160 -8 LINE",
"226 615 LINE",
"230 615 LINE SMOOTH",
"368 615 OFFCURVE",
"408 559 OFFCURVE",
"408 488 CURVE SMOOTH",
"408 403 OFFCURVE",
"339 346 OFFCURVE",
"249 329 CURVE SMOOTH",
"238 327 OFFCURVE",
"227 322 OFFCURVE",
"227 308 CURVE SMOOTH",
"227 295 OFFCURVE",
"235 282 OFFCURVE",
"240 270 CURVE SMOOTH",
"301 124 OFFCURVE",
"379 -9 OFFCURVE",
"432 -9 CURVE SMOOTH"
);
}
);
width = 567;
},
{
anchors = (
{
name = bottom;
position = "{248, 0}";
},
{
name = top;
position = "{320, 680}";
}
);
background = {
anchors = (
{
name = bottom;
position = "{248, 0}";
},
{
name = top;
position = "{320, 680}";
}
);
hints = (
{
origin = "{0, 3}";
type = Corner;
name = _corner.serifUC;
},
{
origin = "{0, 39}";
type = Corner;
name = _corner.serifUC;
}
);
paths = (
{
closed = 1;
nodes = (
"41 15 OFFCURVE",
"49 -8 OFFCURVE",
"72 -8 CURVE SMOOTH",
"153 -8 LINE",
"219 615 LINE",
"223 615 LINE SMOOTH",
"361 615 OFFCURVE",
"401 559 OFFCURVE",
"401 488 CURVE SMOOTH",
"401 403 OFFCURVE",
"332 346 OFFCURVE",
"242 329 CURVE SMOOTH",
"231 327 OFFCURVE",
"220 322 OFFCURVE",
"220 308 CURVE SMOOTH",
"220 295 OFFCURVE",
"228 282 OFFCURVE",
"233 270 CURVE SMOOTH",
"294 124 OFFCURVE",
"372 -9 OFFCURVE",
"425 -9 CURVE SMOOTH",
"460 -9 OFFCURVE",
"540 25 OFFCURVE",
"540 48 CURVE SMOOTH",
"540 60 OFFCURVE",
"525 65 OFFCURVE",
"492 91 CURVE SMOOTH",
"463 114 OFFCURVE",
"395 191 OFFCURVE",
"327 333 CURVE",
"319 283 LINE",
"423 304 OFFCURVE",
"534 373 OFFCURVE",
"534 499 CURVE SMOOTH",
"534 632 OFFCURVE",
"428 690 OFFCURVE",
"282 690 CURVE SMOOTH",
"224 690 OFFCURVE",
"166 686 OFFCURVE",
"108 680 CURVE",
"44 96 LINE SMOOTH",
"42 79 OFFCURVE",
"41 64 OFFCURVE",
"41 51 CURVE SMOOTH"
);
}
);
};
hints = (
{
origin = "{0, 26}";
type = Corner;
name = _corner.serifUC;
},
{
origin = "{0, 18}";
type = Corner;
name = _corner.serifUC;
}
);
layerId = "42CFE912-843B-4D25-82F4-9ABC3064997D";
paths = (
{
closed = 1;
nodes = (
"501 -9 OFFCURVE",
"593 34 OFFCURVE",
"593 62 CURVE SMOOTH",
"593 75 OFFCURVE",
"576 79 OFFCURVE",
"543 105 CURVE SMOOTH",
"514 128 OFFCURVE",
"435 194 OFFCURVE",
"362 346 CURVE",
"357 282 LINE",
"437 303 OFFCURVE",
"579 349 OFFCURVE",
"579 499 CURVE SMOOTH",
"579 632 OFFCURVE",
"467 690 OFFCURVE",
"282 690 CURVE SMOOTH",
"224 690 OFFCURVE",
"166 686 OFFCURVE",
"108 680 CURVE",
"44 96 LINE SMOOTH",
"42 79 OFFCURVE",
"41 64 OFFCURVE",
"41 51 CURVE SMOOTH",
"41 15 OFFCURVE",
"49 -8 OFFCURVE",
"81 -8 CURVE SMOOTH",
"191 -8 LINE",
"257 600 LINE",
"261 600 LINE SMOOTH",
"343 600 OFFCURVE",
"401 579 OFFCURVE",
"401 488 CURVE SMOOTH",
"401 403 OFFCURVE",
"351 346 OFFCURVE",
"261 329 CURVE SMOOTH",
"250 327 OFFCURVE",
"239 322 OFFCURVE",
"239 308 CURVE SMOOTH",
"239 295 OFFCURVE",
"247 282 OFFCURVE",
"252 270 CURVE SMOOTH",
"313 124 OFFCURVE",
"391 -9 OFFCURVE",
"455 -9 CURVE SMOOTH"
);
}
);
width = 612;
}
);
leftKerningGroup = H;
leftMetricsKey = H;
rightKerningGroup = R;
rightMetricsKey = A;
unicode = 0052;
},
{
glyphname = S;
lastChange = "2022-01-18 09:13:17 +0000";
layers = (
{
anchors = (
{
name = bottom;
position = "{226, 0}";
},
{
name = top;
position = "{298, 680}";
}
);
background = {
paths = (
{
closed = 1;
nodes = (
"646 206 OFFCURVE",
"481 -9 OFFCURVE",
"257 -9 CURVE SMOOTH",
"110 -9 OFFCURVE",
"-35 72 OFFCURVE",
"-35 243 CURVE SMOOTH",
"-35 473 OFFCURVE",
"130 688 OFFCURVE",
"354 688 CURVE SMOOTH",
"501 688 OFFCURVE",
"646 607 OFFCURVE",
"646 436 CURVE SMOOTH"
);
},
{
closed = 1;
nodes = (
"438 56 OFFCURVE",
"511 283 OFFCURVE",
"511 418 CURVE SMOOTH",
"511 572 OFFCURVE",
"400 623 OFFCURVE",
"313 623 CURVE SMOOTH",
"173 623 OFFCURVE",
"100 396 OFFCURVE",
"100 261 CURVE SMOOTH",
"100 107 OFFCURVE",
"211 56 OFFCURVE",
"298 56 CURVE SMOOTH"
);
}
);
};
layerId = "B0B60A8F-2DEB-4A58-A43B-60A0DADABD8F";
paths = (
{
closed = 1;
nodes = (
"371 -13 OFFCURVE",
"476 66 OFFCURVE",
"476 208 CURVE SMOOTH",
"476 322 OFFCURVE",
"407 359 OFFCURVE",
"329 396 CURVE SMOOTH",
"274 422 LINE SMOOTH",
"224 446 OFFCURVE",
"193 473 OFFCURVE",
"193 528 CURVE SMOOTH",
"193 587 OFFCURVE",
"238 616 OFFCURVE",
"295 616 CURVE SMOOTH",
"339 616 OFFCURVE",
"384 599 OFFCURVE",
"403 590 CURVE SMOOTH",
"427 579 OFFCURVE",
"438 572 OFFCURVE",
"449 572 CURVE SMOOTH",
"461 572 OFFCURVE",
"474 591 OFFCURVE",
"474 629 CURVE SMOOTH",
"474 669 OFFCURVE",
"454 696 OFFCURVE",
"320 696 CURVE SMOOTH",
"177 696 OFFCURVE",
"72 624 OFFCURVE",
"72 500 CURVE SMOOTH",
"72 400 OFFCURVE",
"128 360 OFFCURVE",
"196 317 CURVE SMOOTH",
"259 277 LINE SMOOTH",
"315 241 OFFCURVE",
"343 219 OFFCURVE",
"343 159 CURVE SMOOTH",
"343 96 OFFCURVE",
"295 67 OFFCURVE",
"226 67 CURVE SMOOTH",
"131 67 OFFCURVE",
"59 145 OFFCURVE",
"38 145 CURVE SMOOTH",
"22 145 OFFCURVE",
"16 128 OFFCURVE",
"16 84 CURVE SMOOTH",
"16 26 OFFCURVE",
"93 -13 OFFCURVE",
"207 -13 CURVE SMOOTH"
);
}
);
width = 506;
},
{
associatedMasterId = "B0B60A8F-2DEB-4A58-A43B-60A0DADABD8F";
background = {
paths = (
{
closed = 1;
nodes = (
"690 206 OFFCURVE",
"525 -9 OFFCURVE",
"301 -9 CURVE SMOOTH",
"154 -9 OFFCURVE",
"9 72 OFFCURVE",
"9 243 CURVE SMOOTH",
"9 473 OFFCURVE",
"174 688 OFFCURVE",
"398 688 CURVE SMOOTH",
"545 688 OFFCURVE",
"690 607 OFFCURVE",
"690 436 CURVE SMOOTH"
);
},
{
closed = 1;
nodes = (
"482 56 OFFCURVE",
"555 283 OFFCURVE",
"555 418 CURVE SMOOTH",
"555 572 OFFCURVE",
"444 623 OFFCURVE",
"357 623 CURVE SMOOTH",
"217 623 OFFCURVE",
"144 396 OFFCURVE",
"144 261 CURVE SMOOTH",
"144 107 OFFCURVE",
"255 56 OFFCURVE",
"342 56 CURVE SMOOTH"
);
}
);
};
layerId = "401CACC2-0731-4BB5-97A8-CA43EBA6C0BF";
name = "Apr 5 21, 17:30";
paths = (
{
closed = 1;
nodes = (
"99 600 OFFCURVE",
"215 688 OFFCURVE",
"345 688 CURVE SMOOTH",
"463 688 OFFCURVE",
"535 602 OFFCURVE",
"535 512 CURVE SMOOTH",
"535 483 OFFCURVE",
"529 475 OFFCURVE",
"509 475 CURVE",
"439 475 LINE",
"420 475 OFFCURVE",
"418 482 OFFCURVE",
"418 492 CURVE SMOOTH",
"418 505 OFFCURVE",
"423 531 OFFCURVE",
"423 567 CURVE SMOOTH",
"423 614 OFFCURVE",
"396 644 OFFCURVE",
"347 644 CURVE SMOOTH",
"279 644 OFFCURVE",
"219 576 OFFCURVE",
"219 529 CURVE",
"99 512 LINE"
);
},
{
closed = 1;
nodes = (
"141 253 OFFCURVE",
"146 250 OFFCURVE",
"146 234 CURVE SMOOTH",
"146 217 OFFCURVE",
"143 192 OFFCURVE",
"143 165 CURVE SMOOTH",
"143 93 OFFCURVE",
"185 46 OFFCURVE",
"243 46 CURVE SMOOTH",
"333 46 OFFCURVE",
"386 131 OFFCURVE",
"386 184 CURVE",
"506 184 LINE",
"506 90 OFFCURVE",
"407 -9 OFFCURVE",
"250 -9 CURVE SMOOTH",
"134 -9 OFFCURVE",
"25 64 OFFCURVE",
"25 208 CURVE SMOOTH",
"25 240 OFFCURVE",
"33 253 OFFCURVE",
"60 253 CURVE",
"126 253 LINE"
);
},
{
closed = 1;
nodes = (
"299 436 OFFCURVE",
"369 378 OFFCURVE",
"408 346 CURVE SMOOTH",
"456 307 OFFCURVE",
"506 263 OFFCURVE",
"506 184 CURVE",
"506 146 OFFCURVE",
"386 160 OFFCURVE",
"386 184 CURVE",
"386 227 OFFCURVE",
"350 255 OFFCURVE",
"321 279 CURVE SMOOTH",
"292 303 OFFCURVE",
"236 348 OFFCURVE",
"204 373 CURVE SMOOTH",
"141 422 OFFCURVE",
"99 459 OFFCURVE",
"99 512 CURVE SMOOTH",
"99 540 OFFCURVE",
"219 576 OFFCURVE",
"219 529 CURVE SMOOTH",
"219 504 OFFCURVE",
"239 486 OFFCURVE",
"275 456 CURVE SMOOTH"
);
}
);
width = 560;
},
{
associatedMasterId = "B0B60A8F-2DEB-4A58-A43B-60A0DADABD8F";
background = {
paths = (
{
closed = 1;
nodes = (
"690 206 OFFCURVE",
"525 -9 OFFCURVE",
"301 -9 CURVE SMOOTH",
"154 -9 OFFCURVE",
"9 72 OFFCURVE",
"9 243 CURVE SMOOTH",
"9 473 OFFCURVE",
"174 688 OFFCURVE",
"398 688 CURVE SMOOTH",
"545 688 OFFCURVE",
"690 607 OFFCURVE",
"690 436 CURVE SMOOTH"
);
},
{
closed = 1;
nodes = (
"482 56 OFFCURVE",
"555 283 OFFCURVE",
"555 418 CURVE SMOOTH",
"555 572 OFFCURVE",
"444 623 OFFCURVE",
"357 623 CURVE SMOOTH",
"217 623 OFFCURVE",
"144 396 OFFCURVE",
"144 261 CURVE SMOOTH",
"144 107 OFFCURVE",
"255 56 OFFCURVE",
"342 56 CURVE SMOOTH"
);
}
);
};
layerId = "530A7CF0-28FF-4B3F-BB61-D0B5D253A8D6";
name = "Apr 5 21, 17:30";
paths = (
{
closed = 1;
nodes = (
"128 696 OFFCURVE",
"-27 513 OFFCURVE",
"-27 283 CURVE SMOOTH",
"-27 75 OFFCURVE",
"86 -16 OFFCURVE",
"250 -16 CURVE SMOOTH",
"460 -16 OFFCURVE",
"615 167 OFFCURVE",
"615 397 CURVE SMOOTH",
"615 605 OFFCURVE",
"502 696 OFFCURVE",
"334 696 CURVE SMOOTH"
);
},
{
closed = 1;
nodes = (
"159 64 OFFCURVE",
"103 161 OFFCURVE",
"103 301 CURVE SMOOTH",
"103 469 OFFCURVE",
"167 616 OFFCURVE",
"318 616 CURVE SMOOTH",
"436 616 OFFCURVE",
"485 518 OFFCURVE",
"485 379 CURVE SMOOTH",
"485 211 OFFCURVE",
"417 64 OFFCURVE",
"271 64 CURVE SMOOTH"
);
}
);
width = 560;
},
{
associatedMasterId = "B0B60A8F-2DEB-4A58-A43B-60A0DADABD8F";
background = {
paths = (
{
closed = 1;
nodes = (
"658 206 OFFCURVE",
"493 -9 OFFCURVE",
"269 -9 CURVE SMOOTH",
"122 -9 OFFCURVE",
"-23 72 OFFCURVE",
"-23 243 CURVE SMOOTH",
"-23 473 OFFCURVE",
"142 688 OFFCURVE",
"366 688 CURVE SMOOTH",
"513 688 OFFCURVE",
"658 607 OFFCURVE",
"658 436 CURVE SMOOTH"
);
},
{
closed = 1;
nodes = (
"450 56 OFFCURVE",
"523 283 OFFCURVE",
"523 418 CURVE SMOOTH",
"523 572 OFFCURVE",
"412 623 OFFCURVE",
"325 623 CURVE SMOOTH",
"185 623 OFFCURVE",
"112 396 OFFCURVE",
"112 261 CURVE SMOOTH",
"112 107 OFFCURVE",
"223 56 OFFCURVE",
"310 56 CURVE SMOOTH"
);
}
);
};
layerId = "806AFB3F-B184-4F9F-842A-2807B4D09AA0";
name = "Apr 5 21, 17:44";
paths = (
{
closed = 1;
nodes = (
"1 21 OFFCURVE",
"77 -16 OFFCURVE",
"213 -16 CURVE SMOOTH",
"369 -16 OFFCURVE",
"484 60 OFFCURVE",
"484 208 CURVE SMOOTH",
"484 311 OFFCURVE",
"426 354 OFFCURVE",
"354 390 CURVE SMOOTH",
"261 437 LINE SMOOTH",
"217 459 OFFCURVE",
"187 487 OFFCURVE",
"187 532 CURVE SMOOTH",
"187 588 OFFCURVE",
"222 616 OFFCURVE",
"279 616 CURVE SMOOTH",
"366 616 OFFCURVE",
"429 542 OFFCURVE",
"449 542 CURVE SMOOTH",
"470 542 OFFCURVE",
"483 578 OFFCURVE",
"483 607 CURVE SMOOTH",
"483 667 OFFCURVE",
"423 696 OFFCURVE",
"312 696 CURVE SMOOTH",
"177 696 OFFCURVE",
"71 618 OFFCURVE",
"71 490 CURVE SMOOTH",
"71 419 OFFCURVE",
"102 375 OFFCURVE",
"174 334 CURVE SMOOTH",
"270 280 LINE SMOOTH",
"318 253 OFFCURVE",
"364 226 OFFCURVE",
"364 164 CURVE SMOOTH",
"364 101 OFFCURVE",
"317 64 OFFCURVE",
"248 64 CURVE SMOOTH",
"140 64 OFFCURVE",
"49 185 OFFCURVE",
"21 185 CURVE SMOOTH",
"5 185 OFFCURVE",
"1 168 OFFCURVE",
"1 142 CURVE SMOOTH"
);
}
);
width = 508;
},
{
associatedMasterId = "B0B60A8F-2DEB-4A58-A43B-60A0DADABD8F";
background = {
paths = (
{
closed = 1;
nodes = (
"628 206 OFFCURVE",
"463 -9 OFFCURVE",
"239 -9 CURVE SMOOTH",
"92 -9 OFFCURVE",
"-53 72 OFFCURVE",
"-53 243 CURVE SMOOTH",
"-53 473 OFFCURVE",
"112 688 OFFCURVE",
"336 688 CURVE SMOOTH",
"483 688 OFFCURVE",
"628 607 OFFCURVE",
"628 436 CURVE SMOOTH"
);
},
{
closed = 1;
nodes = (
"420 56 OFFCURVE",
"493 283 OFFCURVE",
"493 418 CURVE SMOOTH",
"493 572 OFFCURVE",
"382 623 OFFCURVE",
"295 623 CURVE SMOOTH",
"155 623 OFFCURVE",
"82 396 OFFCURVE",
"82 261 CURVE SMOOTH",
"82 107 OFFCURVE",
"193 56 OFFCURVE",
"280 56 CURVE SMOOTH"
);
}
);
};
layerId = "73848C8A-0563-42C4-9998-551AC433A294";
name = "Apr 6 21, 10:24";
paths = (
{
closed = 1;
nodes = (
"11 18 OFFCURVE",
"94 -16 OFFCURVE",
"203 -16 CURVE SMOOTH",
"332 -16 OFFCURVE",
"457 49 OFFCURVE",
"457 211 CURVE SMOOTH",
"457 311 OFFCURVE",
"405 372 OFFCURVE",
"318 403 CURVE SMOOTH",
"249 428 LINE SMOOTH",
"197 447 OFFCURVE",
"164 470 OFFCURVE",
"164 526 CURVE SMOOTH",
"164 579 OFFCURVE",
"203 616 OFFCURVE",
"262 616 CURVE SMOOTH",
"347 616 OFFCURVE",
"406 542 OFFCURVE",
"424 542 CURVE SMOOTH",
"443 542 OFFCURVE",
"454 578 OFFCURVE",
"454 607 CURVE SMOOTH",
"454 667 OFFCURVE",
"421 696 OFFCURVE",
"292 696 CURVE SMOOTH",
"167 696 OFFCURVE",
"54 634 OFFCURVE",
"54 491 CURVE SMOOTH",
"54 419 OFFCURVE",
"91 362 OFFCURVE",
"172 319 CURVE SMOOTH",
"250 277 LINE SMOOTH",
"309 245 OFFCURVE",
"339 224 OFFCURVE",
"339 167 CURVE SMOOTH",
"339 105 OFFCURVE",
"297 64 OFFCURVE",
"218 64 CURVE SMOOTH",
"131 64 OFFCURVE",
"54 184 OFFCURVE",
"29 184 CURVE SMOOTH",
"15 184 OFFCURVE",
"11 167 OFFCURVE",
"11 141 CURVE SMOOTH"
);
}
);
width = 476;
},
{
associatedMasterId = "B0B60A8F-2DEB-4A58-A43B-60A0DADABD8F";
background = {
paths = (
{
closed = 1;
nodes = (
"639 206 OFFCURVE",
"474 -9 OFFCURVE",
"250 -9 CURVE SMOOTH",
"103 -9 OFFCURVE",
"-42 72 OFFCURVE",
"-42 243 CURVE SMOOTH",
"-42 473 OFFCURVE",
"123 688 OFFCURVE",
"347 688 CURVE SMOOTH",
"494 688 OFFCURVE",
"639 607 OFFCURVE",
"639 436 CURVE SMOOTH"
);
},
{
closed = 1;
nodes = (
"431 56 OFFCURVE",
"504 283 OFFCURVE",
"504 418 CURVE SMOOTH",
"504 572 OFFCURVE",
"393 623 OFFCURVE",
"306 623 CURVE SMOOTH",
"166 623 OFFCURVE",
"93 396 OFFCURVE",
"93 261 CURVE SMOOTH",
"93 107 OFFCURVE",
"204 56 OFFCURVE",
"291 56 CURVE SMOOTH"
);
}
);
};
layerId = "976D06B9-2D06-468E-8DD2-2E4E16D7D584";
name = "Apr 6 21, 15:32";
paths = (
{
closed = 1;
nodes = (
"98 -15 OFFCURVE",
"238 -15 CURVE SMOOTH",
"395 -15 OFFCURVE",
"502 76 OFFCURVE",
"502 198 CURVE SMOOTH",
"502 311 OFFCURVE",
"426 347 OFFCURVE",
"325 393 CURVE SMOOTH",
"283 412 LINE SMOOTH",
"242 430 OFFCURVE",
"188 468 OFFCURVE",
"188 527 CURVE SMOOTH",
"188 579 OFFCURVE",
"225 615 OFFCURVE",
"292 615 CURVE SMOOTH",
"355 615 OFFCURVE",
"385 584 OFFCURVE",
"385 532 CURVE SMOOTH",
"385 480 OFFCURVE",
"343 430 OFFCURVE",
"283 409 CURVE",
"320 372 LINE",
"418 387 OFFCURVE",
"504 460 OFFCURVE",
"504 548 CURVE SMOOTH",
"504 646 OFFCURVE",
"435 696 OFFCURVE",
"299 696 CURVE SMOOTH",
"160 696 OFFCURVE",
"60 623 OFFCURVE",
"64 502 CURVE SMOOTH",
"64 405 OFFCURVE",
"134 352 OFFCURVE",
"219 315 CURVE SMOOTH",
"253 300 LINE SMOOTH",
"334 264 OFFCURVE",
"375 230 OFFCURVE",
"375 169 CURVE SMOOTH",
"375 103 OFFCURVE",
"325 64 OFFCURVE",
"253 64 CURVE SMOOTH",
"182 64 OFFCURVE",
"139 100 OFFCURVE",
"139 165 CURVE SMOOTH",
"139 235 OFFCURVE",
"191 279 OFFCURVE",
"253 300 CURVE",
"226 345 LINE",
"94 333 OFFCURVE",
"9 247 OFFCURVE",
"9 150 CURVE SMOOTH",
"9 36 OFFCURVE"
);
}
);
visible = 1;
width = 480;
},
{
associatedMasterId = "B0B60A8F-2DEB-4A58-A43B-60A0DADABD8F";
background = {
paths = (
{
closed = 1;
nodes = (
"639 206 OFFCURVE",
"474 -9 OFFCURVE",
"250 -9 CURVE SMOOTH",
"103 -9 OFFCURVE",
"-42 72 OFFCURVE",
"-42 243 CURVE SMOOTH",
"-42 473 OFFCURVE",
"123 688 OFFCURVE",
"347 688 CURVE SMOOTH",
"494 688 OFFCURVE",
"639 607 OFFCURVE",
"639 436 CURVE SMOOTH"
);
},
{
closed = 1;
nodes = (
"431 56 OFFCURVE",
"504 283 OFFCURVE",
"504 418 CURVE SMOOTH",
"504 572 OFFCURVE",
"393 623 OFFCURVE",
"306 623 CURVE SMOOTH",
"166 623 OFFCURVE",
"93 396 OFFCURVE",
"93 261 CURVE SMOOTH",
"93 107 OFFCURVE",
"204 56 OFFCURVE",
"291 56 CURVE SMOOTH"
);
}
);
};
layerId = "B10BF4B4-99A7-46F1-8F2B-3C51B6D952AD";
name = "Apr 6 21, 15:32";
paths = (
{
closed = 1;
nodes = (
"9 26 OFFCURVE",
"86 -16 OFFCURVE",
"200 -16 CURVE SMOOTH",
"364 -16 OFFCURVE",
"469 71 OFFCURVE",
"469 208 CURVE SMOOTH",
"469 322 OFFCURVE",
"401 361 OFFCURVE",
"323 399 CURVE SMOOTH",
"270 425 LINE SMOOTH",
"220 450 OFFCURVE",
"185 473 OFFCURVE",
"185 528 CURVE SMOOTH",
"185 587 OFFCURVE",
"223 616 OFFCURVE",
"277 616 CURVE SMOOTH",
"324 616 OFFCURVE",
"372 599 OFFCURVE",
"391 590 CURVE SMOOTH",
"415 579 OFFCURVE",
"426 572 OFFCURVE",
"437 572 CURVE SMOOTH",
"449 572 OFFCURVE",
"462 591 OFFCURVE",
"462 629 CURVE SMOOTH",
"462 669 OFFCURVE",
"442 696 OFFCURVE",
"308 696 CURVE SMOOTH",
"165 696 OFFCURVE",
"60 624 OFFCURVE",
"60 500 CURVE SMOOTH",
"60 400 OFFCURVE",
"118 358 OFFCURVE",
"186 315 CURVE SMOOTH",
"249 275 LINE SMOOTH",
"305 239 OFFCURVE",
"336 219 OFFCURVE",
"336 159 CURVE SMOOTH",
"336 96 OFFCURVE",
"288 64 OFFCURVE",
"219 64 CURVE SMOOTH",
"124 64 OFFCURVE",
"52 145 OFFCURVE",
"31 145 CURVE SMOOTH",
"15 145 OFFCURVE",
"9 128 OFFCURVE",
"9 84 CURVE SMOOTH"
);
}
);
width = 480;
},
{
anchors = (
{
name = bottom;
position = "{242, 0}";
},
{
name = top;
position = "{314, 680}";
}
);
background = {
anchors = (
{
name = bottom;
position = "{242, 0}";
},
{
name = top;
position = "{314, 680}";
}
);
paths = (
{
closed = 1;
nodes = (
"32 26 OFFCURVE",
"109 -13 OFFCURVE",
"223 -13 CURVE SMOOTH",
"387 -13 OFFCURVE",
"492 66 OFFCURVE",
"492 208 CURVE SMOOTH",
"492 322 OFFCURVE",
"421 358 OFFCURVE",
"343 396 CURVE SMOOTH",
"290 422 LINE SMOOTH",
"240 447 OFFCURVE",
"202 473 OFFCURVE",
"202 528 CURVE SMOOTH",
"202 587 OFFCURVE",
"249 616 OFFCURVE",
"306 616 CURVE SMOOTH",
"350 616 OFFCURVE",
"395 599 OFFCURVE",
"414 590 CURVE SMOOTH",
"438 579 OFFCURVE",
"449 572 OFFCURVE",
"460 572 CURVE SMOOTH",
"472 572 OFFCURVE",
"485 591 OFFCURVE",
"485 629 CURVE SMOOTH",
"485 669 OFFCURVE",
"465 696 OFFCURVE",
"331 696 CURVE SMOOTH",
"188 696 OFFCURVE",
"83 624 OFFCURVE",
"83 500 CURVE SMOOTH",
"83 400 OFFCURVE",
"144 360 OFFCURVE",
"212 317 CURVE SMOOTH",
"275 277 LINE SMOOTH",
"331 241 OFFCURVE",
"359 219 OFFCURVE",
"359 159 CURVE SMOOTH",
"359 96 OFFCURVE",
"311 67 OFFCURVE",
"242 67 CURVE SMOOTH",
"147 67 OFFCURVE",
"75 145 OFFCURVE",
"54 145 CURVE SMOOTH",
"38 145 OFFCURVE",
"32 128 OFFCURVE",
"32 84 CURVE SMOOTH"
);
}
);
};
layerId = "42CFE912-843B-4D25-82F4-9ABC3064997D";
paths = (
{
closed = 1;
nodes = (
"401 -13 OFFCURVE",
"512 66 OFFCURVE",
"512 208 CURVE SMOOTH",
"512 319 OFFCURVE",
"452 359 OFFCURVE",
"359 407 CURVE SMOOTH",
"287 444 LINE SMOOTH",
"241 468 OFFCURVE",
"227 494 OFFCURVE",
"227 524 CURVE SMOOTH",
"227 565 OFFCURVE",
"255 600 OFFCURVE",
"306 600 CURVE SMOOTH",
"344 600 OFFCURVE",
"376 590 OFFCURVE",
"406 577 CURVE SMOOTH",
"434 565 OFFCURVE",
"452 550 OFFCURVE",
"465 550 CURVE SMOOTH",
"485 550 OFFCURVE",
"498 588 OFFCURVE",
"498 626 CURVE SMOOTH",
"498 674 OFFCURVE",
"454 696 OFFCURVE",
"331 696 CURVE SMOOTH",
"173 696 OFFCURVE",
"63 624 OFFCURVE",
"63 500 CURVE SMOOTH",
"63 410 OFFCURVE",
"131 353 OFFCURVE",
"197 309 CURVE SMOOTH",
"275 257 LINE SMOOTH",
"323 225 OFFCURVE",
"337 196 OFFCURVE",
"337 159 CURVE SMOOTH",
"337 121 OFFCURVE",
"314 82 OFFCURVE",
"242 82 CURVE SMOOTH",
"147 82 OFFCURVE",
"82 170 OFFCURVE",
"51 170 CURVE SMOOTH",
"30 170 OFFCURVE",
"16 146 OFFCURVE",
"16 90 CURVE SMOOTH",
"16 21 OFFCURVE",
"102 -13 OFFCURVE",
"223 -13 CURVE SMOOTH"
);
}
);
width = 537;
}
);
leftKerningGroup = S;
rightKerningGroup = S;
unicode = 0053;
},
{
glyphname = Schwa;
lastChange = "2022-01-18 09:13:17 +0000";
layers = (
{
anchors = (
{
name = bottom;
position = "{333, 0}";
},
{
name = top;
position = "{405, 680}";
}
);
layerId = "B0B60A8F-2DEB-4A58-A43B-60A0DADABD8F";
paths = (
{
closed = 1;
nodes = (
"479 -16 OFFCURVE",
"634 158 OFFCURVE",
"634 397 CURVE SMOOTH",
"634 594 OFFCURVE",
"525 696 OFFCURVE",
"355 696 CURVE SMOOTH",
"220 696 OFFCURVE",
"112 624 OFFCURVE",
"111 546 CURVE SMOOTH",
"111 525 OFFCURVE",
"123 520 OFFCURVE",
"137 520 CURVE SMOOTH",
"175 520 OFFCURVE",
"228 616 OFFCURVE",
"330 616 CURVE SMOOTH",
"424 616 OFFCURVE",
"501 538 OFFCURVE",
"501 379 CURVE SMOOTH",
"501 188 OFFCURVE",
"404 64 OFFCURVE",
"288 64 CURVE SMOOTH",
"213 64 OFFCURVE",
"160 105 OFFCURVE",
"160 177 CURVE SMOOTH",
"160 256 OFFCURVE",
"215 314 OFFCURVE",
"393 317 CURVE SMOOTH",
"515 319 LINE",
"515 389 LINE",
"376 389 LINE SMOOTH",
"148 389 OFFCURVE",
"27 281 OFFCURVE",
"27 156 CURVE SMOOTH",
"27 48 OFFCURVE",
"99 -16 OFFCURVE",
"241 -16 CURVE SMOOTH"
);
}
);
width = 655;
},
{
anchors = (
{
name = bottom;
position = "{348, 0}";
},
{
name = top;
position = "{420, 680}";
}
);
background = {
paths = (
{
closed = 1;
nodes = (
"42 48 OFFCURVE",
"114 -16 OFFCURVE",
"256 -16 CURVE SMOOTH",
"494 -16 OFFCURVE",
"649 158 OFFCURVE",
"649 397 CURVE SMOOTH",
"649 594 OFFCURVE",
"540 696 OFFCURVE",
"370 696 CURVE SMOOTH",
"235 696 OFFCURVE",
"127 624 OFFCURVE",
"126 546 CURVE SMOOTH",
"126 525 OFFCURVE",
"138 520 OFFCURVE",
"152 520 CURVE SMOOTH",
"190 520 OFFCURVE",
"243 616 OFFCURVE",
"345 616 CURVE SMOOTH",
"439 616 OFFCURVE",
"516 538 OFFCURVE",
"516 379 CURVE SMOOTH",
"516 188 OFFCURVE",
"419 64 OFFCURVE",
"303 64 CURVE SMOOTH",
"228 64 OFFCURVE",
"175 105 OFFCURVE",
"175 177 CURVE SMOOTH",
"175 256 OFFCURVE",
"230 314 OFFCURVE",
"408 317 CURVE SMOOTH",
"530 319 LINE",
"530 389 LINE",
"391 389 LINE SMOOTH",
"163 389 OFFCURVE",
"42 281 OFFCURVE",
"42 156 CURVE SMOOTH"
);
}
);
};
layerId = "42CFE912-843B-4D25-82F4-9ABC3064997D";
paths = (
{
closed = 1;
nodes = (
"504 -16 OFFCURVE",
"669 158 OFFCURVE",
"669 397 CURVE SMOOTH",
"669 594 OFFCURVE",
"540 696 OFFCURVE",
"370 696 CURVE SMOOTH",
"220 696 OFFCURVE",
"109 621 OFFCURVE",
"109 546 CURVE SMOOTH",
"109 519 OFFCURVE",
"129 502 OFFCURVE",
"150 502 CURVE SMOOTH",
"205 502 OFFCURVE",
"243 601 OFFCURVE",
"345 601 CURVE SMOOTH",
"424 601 OFFCURVE",
"491 538 OFFCURVE",
"491 379 CURVE SMOOTH",
"491 188 OFFCURVE",
"419 74 OFFCURVE",
"303 74 CURVE SMOOTH",
"248 74 OFFCURVE",
"200 105 OFFCURVE",
"200 177 CURVE SMOOTH",
"200 256 OFFCURVE",
"280 305 OFFCURVE",
"408 307 CURVE SMOOTH",
"530 309 LINE",
"530 399 LINE",
"391 399 LINE SMOOTH",
"163 399 OFFCURVE",
"22 281 OFFCURVE",
"22 156 CURVE SMOOTH",
"22 48 OFFCURVE",
"104 -16 OFFCURVE",
"256 -16 CURVE SMOOTH"
);
}
);
width = 685;
}
);
leftKerningGroup = O;
leftMetricsKey = O;
rightKerningGroup = O;
rightMetricsKey = O;
unicode = 018F;
},
{
glyphname = T;
lastChange = "2022-01-18 09:13:17 +0000";
layers = (
{
anchors = (
{
name = bottom;
position = "{251, 0}";
},
{
name = center;
position = "{267, 340}";
},
{
name = top;
position = "{303, 680}";
}
);
background = {
paths = (
{
closed = 1;
nodes = (
"392 680 LINE",
"392 635 LINE",
"518 635 LINE",
"518 680 LINE"
);
},
{
closed = 1;
nodes = (
"345 680 LINE",
"345 593 LINE",
"353 593 LINE",
"357 631 OFFCURVE",
"367 635 OFFCURVE",
"400 635 CURVE",
"400 680 LINE"
);
},
{
closed = 1;
nodes = (
"591 630 OFFCURVE",
"593 631 OFFCURVE",
"595 638 CURVE SMOOTH",
"597 645 OFFCURVE",
"601 659 OFFCURVE",
"604 670 CURVE SMOOTH",
"606 679 OFFCURVE",
"601 680 OFFCURVE",
"595 680 CURVE SMOOTH",
"579 680 OFFCURVE",
"504 680 OFFCURVE",
"490 680 CURVE",
"490 635 LINE",
"540 635 OFFCURVE",
"576 630 OFFCURVE",
"584 630 CURVE"
);
},
{
closed = 1;
nodes = (
"329 680 OFFCURVE",
"279 680 OFFCURVE",
"267 680 CURVE",
"259 680 OFFCURVE",
"245 678 OFFCURVE",
"243 656 CURVE SMOOTH",
"233 518 OFFCURVE",
"207 246 OFFCURVE",
"186 75 CURVE SMOOTH",
"180 28 OFFCURVE",
"174 0 OFFCURVE",
"214 0 CURVE SMOOTH",
"223 0 OFFCURVE",
"240 0 OFFCURVE",
"276 0 CURVE SMOOTH",
"303 0 OFFCURVE",
"299 28 OFFCURVE",
"303 71 CURVE SMOOTH",
"317 242 OFFCURVE",
"343 516 OFFCURVE",
"361 660 CURVE SMOOTH",
"363 678 OFFCURVE",
"354 680 OFFCURVE",
"345 680 CURVE"
);
},
{
closed = 1;
nodes = (
"96 635 LINE",
"202 635 LINE",
"202 680 LINE",
"96 680 LINE"
);
},
{
closed = 1;
nodes = (
"194 635 LINE",
"235 635 OFFCURVE",
"242 632 OFFCURVE",
"238 591 CURVE",
"267 591 LINE",
"267 680 LINE",
"194 680 LINE"
);
},
{
closed = 1;
nodes = (
"36 630 OFFCURVE",
"74 635 OFFCURVE",
"124 635 CURVE",
"124 680 LINE",
"110 680 OFFCURVE",
"33 680 OFFCURVE",
"17 680 CURVE SMOOTH",
"11 680 OFFCURVE",
"6 679 OFFCURVE",
"8 670 CURVE SMOOTH",
"11 659 OFFCURVE",
"15 645 OFFCURVE",
"17 638 CURVE SMOOTH",
"19 631 OFFCURVE",
"21 630 OFFCURVE",
"28 630 CURVE"
);
}
);
};
hints = (
{
origin = "{0, 0}";
type = Corner;
name = _corner.serifUC;
}
);
layerId = "B0B60A8F-2DEB-4A58-A43B-60A0DADABD8F";
paths = (
{
closed = 1;
nodes = (
"287 -8 LINE",
"353 596 LINE",
"448 583 LINE SMOOTH",
"472 580 OFFCURVE",
"492 576 OFFCURVE",
"501 576 CURVE SMOOTH",
"522 576 OFFCURVE",
"547 631 OFFCURVE",
"545 671 CURVE SMOOTH",
"544 687 OFFCURVE",
"539 691 OFFCURVE",
"526 691 CURVE SMOOTH",
"504 691 OFFCURVE",
"461 680 OFFCURVE",
"308 680 CURVE SMOOTH",
"93 680 LINE SMOOTH",
"69 680 OFFCURVE",
"49 635 OFFCURVE",
"47 586 CURVE SMOOTH",
"46 573 OFFCURVE",
"52 562 OFFCURVE",
"67 562 CURVE SMOOTH",
"72 562 OFFCURVE",
"84 564 OFFCURVE",
"100 567 CURVE SMOOTH",
"234 596 LINE",
"191 216 LINE SMOOTH",
"182 138 OFFCURVE",
"177 100 OFFCURVE",
"177 64 CURVE SMOOTH",
"177 28 OFFCURVE",
"186 -8 OFFCURVE",
"207 -8 CURVE SMOOTH"
);
}
);
width = 511;
},
{
anchors = (
{
name = bottom;
position = "{271, 0}";
},
{
name = center;
position = "{287, 340}";
},
{
name = top;
position = "{323, 680}";
}
);
background = {
anchors = (
{
name = bottom;
position = "{271, 0}";
},
{
name = center;
position = "{287, 340}";
},
{
name = top;
position = "{323, 680}";
}
);
hints = (
{
origin = "{0, 14}";
type = Corner;
name = _corner.serifUC;
}
);
paths = (
{
closed = 1;
nodes = (
"66 573 OFFCURVE",
"72 562 OFFCURVE",
"87 562 CURVE SMOOTH",
"92 562 OFFCURVE",
"104 564 OFFCURVE",
"120 567 CURVE SMOOTH",
"254 596 LINE",
"211 216 LINE SMOOTH",
"202 138 OFFCURVE",
"197 100 OFFCURVE",
"197 64 CURVE SMOOTH",
"197 28 OFFCURVE",
"206 -8 OFFCURVE",
"227 -8 CURVE SMOOTH",
"307 -8 LINE",
"373 596 LINE",
"468 583 LINE SMOOTH",
"492 580 OFFCURVE",
"512 576 OFFCURVE",
"521 576 CURVE SMOOTH",
"542 576 OFFCURVE",
"567 631 OFFCURVE",
"565 671 CURVE SMOOTH",
"564 687 OFFCURVE",
"559 691 OFFCURVE",
"546 691 CURVE SMOOTH",
"524 691 OFFCURVE",
"481 680 OFFCURVE",
"328 680 CURVE SMOOTH",
"113 680 LINE SMOOTH",
"89 680 OFFCURVE",
"69 635 OFFCURVE",
"67 586 CURVE SMOOTH"
);
}
);
};
hints = (
{
origin = "{0, 0}";
type = Corner;
name = _corner.serifUC;
}
);
layerId = "42CFE912-843B-4D25-82F4-9ABC3064997D";
paths = (
{
closed = 1;
nodes = (
"331 -8 LINE",
"397 586 LINE",
"464 574 LINE SMOOTH",
"498 568 OFFCURVE",
"530 560 OFFCURVE",
"541 560 CURVE SMOOTH",
"562 560 OFFCURVE",
"593 631 OFFCURVE",
"591 671 CURVE SMOOTH",
"590 687 OFFCURVE",
"585 691 OFFCURVE",
"572 691 CURVE SMOOTH",
"550 691 OFFCURVE",
"481 680 OFFCURVE",
"328 680 CURVE SMOOTH",
"92 680 LINE SMOOTH",
"69 680 OFFCURVE",
"49 628 OFFCURVE",
"47 589 CURVE SMOOTH",
"46 558 OFFCURVE",
"59 549 OFFCURVE",
"72 549 CURVE SMOOTH",
"85 549 OFFCURVE",
"109 555 OFFCURVE",
"125 559 CURVE SMOOTH",
"231 586 LINE",
"189 216 LINE SMOOTH",
"180 138 OFFCURVE",
"175 100 OFFCURVE",
"175 64 CURVE SMOOTH",
"175 28 OFFCURVE",
"190 -8 OFFCURVE",
"218 -8 CURVE SMOOTH"
);
}
);
width = 556;
}
);
leftKerningGroup = T;
rightKerningGroup = T;
rightMetricsKey = "=|";
unicode = 0054;
},
{
glyphname = Tbar;
lastChange = "2022-01-18 09:13:17 +0000";
layers = (
{
components = (
{
name = T;
}
);
layerId = "B0B60A8F-2DEB-4A58-A43B-60A0DADABD8F";
paths = (
{
closed = 1;
nodes = (
"414 301 LINE SMOOTH",
"442 301 OFFCURVE",
"461 354 OFFCURVE",
"461 363 CURVE SMOOTH",
"461 373 OFFCURVE",
"459 376 OFFCURVE",
"443 376 CURVE SMOOTH",
"119 377 LINE SMOOTH",
"99 377 OFFCURVE",
"72 343 OFFCURVE",
"72 315 CURVE SMOOTH",
"72 305 OFFCURVE",
"76 301 OFFCURVE",
"90 301 CURVE SMOOTH"
);
}
);
width = 511;
},
{
components = (
{
name = T;
}
);
layerId = "42CFE912-843B-4D25-82F4-9ABC3064997D";
paths = (
{
closed = 1;
nodes = (
"431 291 LINE SMOOTH",
"470 291 OFFCURVE",
"497 356 OFFCURVE",
"497 373 CURVE SMOOTH",
"497 383 OFFCURVE",
"492 386 OFFCURVE",
"476 386 CURVE SMOOTH",
"139 387 LINE SMOOTH",
"115 387 OFFCURVE",
"80 333 OFFCURVE",
"80 305 CURVE SMOOTH",
"80 295 OFFCURVE",
"84 291 OFFCURVE",
"98 291 CURVE SMOOTH"
);
}
);
width = 556;
}
);
leftKerningGroup = T;
leftMetricsKey = T;
rightKerningGroup = T;
rightMetricsKey = T;
unicode = 0166;
},
{
glyphname = U;
lastChange = "2022-01-18 09:13:17 +0000";
layers = (
{
anchors = (
{
name = bottom;
position = "{307, 0}";
},
{
name = ogonek;
position = "{443, 10}";
},
{
name = top;
position = "{379, 680}";
},
{
name = topright;
position = "{690, 680}";
}
);
background = {
paths = (
{
closed = 1;
nodes = (
"167 680 OFFCURVE",
"117 680 OFFCURVE",
"105 680 CURVE",
"97 680 OFFCURVE",
"83 678 OFFCURVE",
"81 656 CURVE SMOOTH",
"71 518 OFFCURVE",
"45 246 OFFCURVE",
"24 75 CURVE SMOOTH",
"18 28 OFFCURVE",
"12 0 OFFCURVE",
"52 0 CURVE SMOOTH",
"61 0 OFFCURVE",
"78 0 OFFCURVE",
"114 0 CURVE SMOOTH",
"141 0 OFFCURVE",
"137 28 OFFCURVE",
"141 71 CURVE SMOOTH",
"155 242 OFFCURVE",
"181 516 OFFCURVE",
"199 660 CURVE SMOOTH",
"201 678 OFFCURVE",
"192 680 OFFCURVE",
"183 680 CURVE"
);
},
{
closed = 1;
nodes = (
"614 680 OFFCURVE",
"564 680 OFFCURVE",
"552 680 CURVE",
"544 680 OFFCURVE",
"535 678 OFFCURVE",
"534 660 CURVE SMOOTH",
"524 516 OFFCURVE",
"497 240 OFFCURVE",
"475 71 CURVE SMOOTH",
"469 28 OFFCURVE",
"463 0 OFFCURVE",
"490 0 CURVE SMOOTH",
"499 0 OFFCURVE",
"530 0 OFFCURVE",
"566 0 CURVE SMOOTH",
"593 0 OFFCURVE",
"590 28 OFFCURVE",
"593 71 CURVE SMOOTH",
"606 248 OFFCURVE",
"633 518 OFFCURVE",
"650 656 CURVE SMOOTH",
"653 678 OFFCURVE",
"636 680 OFFCURVE",
"626 680 CURVE"
);
},
{
closed = 1;
nodes = (
"183 342 LINE",
"502 342 LINE",
"502 395 LINE",
"183 395 LINE"
);
},
{
closed = 1;
nodes = (
"172 441 LINE",
"156 308 LINE",
"162 308 LINE",
"165 344 OFFCURVE",
"178 342 OFFCURVE",
"211 342 CURVE",
"211 395 LINE",
"179 395 OFFCURVE",
"171 404 OFFCURVE",
"175 441 CURVE"
);
},
{
closed = 1;
nodes = (
"512 408 OFFCURVE",
"507 395 OFFCURVE",
"471 395 CURVE",
"471 342 LINE",
"503 342 OFFCURVE",
"506 340 OFFCURVE",
"502 304 CURVE",
"508 304 LINE",
"519 447 LINE",
"516 447 LINE"
);
}
);
};
hints = (
{
origin = "{0, 30}";
type = Corner;
name = _corner.serifUC;
}
);
layerId = "B0B60A8F-2DEB-4A58-A43B-60A0DADABD8F";
paths = (
{
closed = 1;
nodes = (
"488 -16 OFFCURVE",
"580 31 OFFCURVE",
"602 238 CURVE SMOOTH",
"633 524 LINE SMOOTH",
"638 566 OFFCURVE",
"643 611 OFFCURVE",
"643 634 CURVE SMOOTH",
"643 660 OFFCURVE",
"633 694 OFFCURVE",
"604 694 CURVE SMOOTH",
"572 694 OFFCURVE",
"515 673 OFFCURVE",
"515 649 CURVE SMOOTH",
"515 613 OFFCURVE",
"545 572 OFFCURVE",
"529 424 CURVE SMOOTH",
"508 230 LINE SMOOTH",
"495 112 OFFCURVE",
"426 64 OFFCURVE",
"341 64 CURVE SMOOTH",
"217 64 OFFCURVE",
"177 126 OFFCURVE",
"192 262 CURVE SMOOTH",
"214 466 LINE SMOOTH",
"224 560 OFFCURVE",
"232 601 OFFCURVE",
"232 649 CURVE SMOOTH",
"232 685 OFFCURVE",
"224 695 OFFCURVE",
"197 695 CURVE SMOOTH",
"117 695 LINE",
"68 226 LINE SMOOTH",
"49 43 OFFCURVE",
"122 -16 OFFCURVE",
"317 -16 CURVE SMOOTH"
);
}
);
width = 658;
},
{
anchors = (
{
name = bottom;
position = "{319, 0}";
},
{
name = ogonek;
position = "{455, 10}";
},
{
name = top;
position = "{391, 680}";
},
{
name = topright;
position = "{702, 680}";
}
);
background = {
anchors = (
{
name = bottom;
position = "{319, 0}";
},
{
name = ogonek;
position = "{455, 10}";
},
{
name = top;
position = "{391, 680}";
},
{
name = topright;
position = "{702, 680}";
}
);
hints = (
{
origin = "{0, 33}";
type = Corner;
name = _corner.serifUC;
}
);
paths = (
{
closed = 1;
nodes = (
"63 63 OFFCURVE",
"134 -16 OFFCURVE",
"329 -16 CURVE SMOOTH",
"500 -16 OFFCURVE",
"593 41 OFFCURVE",
"614 238 CURVE SMOOTH",
"645 524 LINE SMOOTH",
"650 566 OFFCURVE",
"655 611 OFFCURVE",
"655 634 CURVE SMOOTH",
"655 660 OFFCURVE",
"645 694 OFFCURVE",
"616 694 CURVE SMOOTH",
"587 694 OFFCURVE",
"530 673 OFFCURVE",
"530 649 CURVE SMOOTH",
"530 613 OFFCURVE",
"560 572 OFFCURVE",
"544 424 CURVE SMOOTH",
"523 230 LINE SMOOTH",
"510 112 OFFCURVE",
"438 64 OFFCURVE",
"353 64 CURVE",
"229 64 OFFCURVE",
"189 126 OFFCURVE",
"204 262 CURVE SMOOTH",
"226 466 LINE SMOOTH",
"236 560 OFFCURVE",
"244 601 OFFCURVE",
"244 649 CURVE SMOOTH",
"244 685 OFFCURVE",
"236 695 OFFCURVE",
"209 695 CURVE SMOOTH",
"129 695 LINE",
"80 226 LINE SMOOTH"
);
}
);
};
hints = (
{
origin = "{0, 30}";
type = Corner;
name = _corner.serifUC;
}
);
layerId = "42CFE912-843B-4D25-82F4-9ABC3064997D";
paths = (
{
closed = 1;
nodes = (
"500 -16 OFFCURVE",
"603 41 OFFCURVE",
"624 238 CURVE SMOOTH",
"655 524 LINE SMOOTH",
"660 566 OFFCURVE",
"665 607 OFFCURVE",
"665 630 CURVE SMOOTH",
"665 656 OFFCURVE",
"651 696 OFFCURVE",
"619 696 CURVE SMOOTH",
"579 696 OFFCURVE",
"508 674 OFFCURVE",
"508 649 CURVE SMOOTH",
"508 613 OFFCURVE",
"540 572 OFFCURVE",
"524 424 CURVE SMOOTH",
"503 230 LINE SMOOTH",
"490 112 OFFCURVE",
"427 74 OFFCURVE",
"353 74 CURVE SMOOTH",
"245 74 OFFCURVE",
"214 126 OFFCURVE",
"229 262 CURVE SMOOTH",
"251 466 LINE SMOOTH",
"261 560 OFFCURVE",
"269 601 OFFCURVE",
"269 649 CURVE SMOOTH",
"269 685 OFFCURVE",
"242 695 OFFCURVE",
"220 695 CURVE SMOOTH",
"109 695 LINE",
"60 226 LINE SMOOTH",
"43 63 OFFCURVE",
"124 -16 OFFCURVE",
"329 -16 CURVE SMOOTH"
);
}
);
width = 675;
}
);
leftKerningGroup = U;
leftMetricsKey = H;
rightKerningGroup = U;
unicode = 0055;
},
{
glyphname = V;
lastChange = "2022-01-18 09:13:17 +0000";
layers = (
{
anchors = (
{
name = bottom;
position = "{305, 0}";
},
{
name = top;
position = "{377, 680}";
}
);
layerId = "B0B60A8F-2DEB-4A58-A43B-60A0DADABD8F";
paths = (
{
closed = 1;
nodes = (
"325 -14 OFFCURVE",
"366 23 OFFCURVE",
"381 52 CURVE SMOOTH",
"685 651 LINE SMOOTH",
"691 662 OFFCURVE",
"693 670 OFFCURVE",
"693 677 CURVE SMOOTH",
"693 689 OFFCURVE",
"684 694 OFFCURVE",
"666 694 CURVE SMOOTH",
"642 694 OFFCURVE",
"543 661 OFFCURVE",
"537 611 CURVE SMOOTH",
"532 571 OFFCURVE",
"528 548 OFFCURVE",
"500 491 CURVE SMOOTH",
"301 81 LINE",
"342 93 LINE",
"251 510 LINE SMOOTH",
"221 648 OFFCURVE",
"198 692 OFFCURVE",
"165 692 CURVE SMOOTH",
"133 692 OFFCURVE",
"42 668 OFFCURVE",
"42 641 CURVE SMOOTH",
"42 629 OFFCURVE",
"61 617 OFFCURVE",
"76 597 CURVE SMOOTH",
"91 577 OFFCURVE",
"102 556 OFFCURVE",
"120 493 CURVE SMOOTH",
"162 345 OFFCURVE",
"209 168 OFFCURVE",
"232 15 CURVE SMOOTH",
"236 -10 OFFCURVE",
"247 -14 OFFCURVE",
"258 -14 CURVE SMOOTH"
);
}
);
width = 657;
},
{
anchors = (
{
name = bottom;
position = "{325, 0}";
},
{
name = top;
position = "{397, 680}";
}
);
background = {
anchors = (
{
name = bottom;
position = "{325, 0}";
},
{
name = top;
position = "{397, 680}";
}
);
paths = (
{
closed = 1;
nodes = (
"714 662 OFFCURVE",
"716 670 OFFCURVE",
"716 677 CURVE SMOOTH",
"716 689 OFFCURVE",
"707 694 OFFCURVE",
"689 694 CURVE SMOOTH",
"665 694 OFFCURVE",
"566 661 OFFCURVE",
"560 611 CURVE SMOOTH",
"555 571 OFFCURVE",
"551 548 OFFCURVE",
"523 491 CURVE SMOOTH",
"321 81 LINE",
"362 93 LINE",
"262 510 LINE SMOOTH",
"229 647 OFFCURVE",
"209 692 OFFCURVE",
"176 692 CURVE SMOOTH",
"144 692 OFFCURVE",
"65 668 OFFCURVE",
"65 641 CURVE SMOOTH",
"65 629 OFFCURVE",
"85 617 OFFCURVE",
"99 597 CURVE SMOOTH",
"112 577 OFFCURVE",
"125 556 OFFCURVE",
"143 493 CURVE SMOOTH",
"185 345 OFFCURVE",
"229 168 OFFCURVE",
"252 15 CURVE SMOOTH",
"256 -10 OFFCURVE",
"267 -14 OFFCURVE",
"278 -14 CURVE SMOOTH",
"345 -14 OFFCURVE",
"386 23 OFFCURVE",
"401 52 CURVE SMOOTH",
"708 651 LINE SMOOTH"
);
}
);
};
layerId = "42CFE912-843B-4D25-82F4-9ABC3064997D";
paths = (
{
closed = 1;
nodes = (
"331 -14 OFFCURVE",
"396 23 OFFCURVE",
"411 52 CURVE SMOOTH",
"718 647 LINE SMOOTH",
"726 662 OFFCURVE",
"729 670 OFFCURVE",
"729 677 CURVE SMOOTH",
"729 689 OFFCURVE",
"720 696 OFFCURVE",
"696 696 CURVE SMOOTH",
"661 696 OFFCURVE",
"547 661 OFFCURVE",
"541 611 CURVE SMOOTH",
"536 571 OFFCURVE",
"536 548 OFFCURVE",
"510 491 CURVE SMOOTH",
"324 81 LINE",
"391 93 LINE",
"293 510 LINE SMOOTH",
"261 647 OFFCURVE",
"242 696 OFFCURVE",
"197 696 CURVE SMOOTH",
"142 696 OFFCURVE",
"41 657 OFFCURVE",
"41 627 CURVE SMOOTH",
"41 615 OFFCURVE",
"60 603 OFFCURVE",
"75 583 CURVE SMOOTH",
"90 563 OFFCURVE",
"103 539 OFFCURVE",
"118 493 CURVE SMOOTH",
"168 345 OFFCURVE",
"215 168 OFFCURVE",
"237 22 CURVE SMOOTH",
"242 -10 OFFCURVE",
"253 -14 OFFCURVE",
"264 -14 CURVE SMOOTH"
);
}
);
width = 693;
}
);
leftKerningGroup = V;
leftMetricsKey = "=|A";
rightKerningGroup = V;
rightMetricsKey = "=|A";
unicode = 0056;
},
{
glyphname = W;
lastChange = "2022-01-18 09:13:17 +0000";
layers = (
{
anchors = (
{
name = bottom;
position = "{393, 0}";
},
{
name = top;
position = "{465, 680}";
}
);
background = {
paths = (
{
closed = 1;
nodes = (
"-75 680 OFFCURVE",
"-87 678 OFFCURVE",
"-82 660 CURVE SMOOTH",
"-64 600 OFFCURVE",
"60 159 OFFCURVE",
"90 49 CURVE SMOOTH",
"101 9 OFFCURVE",
"108 0 OFFCURVE",
"129 0 CURVE SMOOTH",
"154 0 OFFCURVE",
"203 17 OFFCURVE",
"231 52 CURVE",
"187 87 LINE",
"183 87 OFFCURVE",
"181 87 OFFCURVE",
"177 87 CURVE",
"176 114 OFFCURVE",
"176 142 OFFCURVE",
"165 185 CURVE SMOOTH",
"153 235 OFFCURVE",
"63 593 OFFCURVE",
"49 652 CURVE SMOOTH",
"45 670 OFFCURVE",
"37 680 OFFCURVE",
"15 680 CURVE",
"-1 680 OFFCURVE",
"-50 680 OFFCURVE",
"-66 680 CURVE"
);
},
{
closed = 1;
nodes = (
"199 52 OFFCURVE",
"219 52 OFFCURVE",
"231 52 CURVE",
"247 72 OFFCURVE",
"282 162 OFFCURVE",
"293 190 CURVE SMOOTH",
"311 235 OFFCURVE",
"456 591 OFFCURVE",
"486 658 CURVE SMOOTH",
"493 674 OFFCURVE",
"488 680 OFFCURVE",
"477 680 CURVE SMOOTH",
"467 680 OFFCURVE",
"443 680 OFFCURVE",
"431 680 CURVE SMOOTH",
"407 680 OFFCURVE",
"396 677 OFFCURVE",
"378 615 CURVE SMOOTH",
"331 456 OFFCURVE",
"247 225 OFFCURVE",
"187 87 CURVE",
"187 52 LINE"
);
}
);
};
layerId = "B0B60A8F-2DEB-4A58-A43B-60A0DADABD8F";
paths = (
{
closed = 1;
nodes = (
"565 -14 OFFCURVE",
"604 23 OFFCURVE",
"616 52 CURVE SMOOTH",
"868 651 LINE SMOOTH",
"873 662 OFFCURVE",
"876 670 OFFCURVE",
"876 677 CURVE SMOOTH",
"876 689 OFFCURVE",
"867 694 OFFCURVE",
"849 694 CURVE SMOOTH",
"825 694 OFFCURVE",
"729 661 OFFCURVE",
"723 611 CURVE SMOOTH",
"718 571 OFFCURVE",
"726 550 OFFCURVE",
"703 491 CURVE SMOOTH",
"546 81 LINE",
"580 93 LINE",
"532 510 LINE SMOOTH",
"517 640 OFFCURVE",
"495 692 OFFCURVE",
"461 692 CURVE SMOOTH",
"429 692 OFFCURVE",
"364 673 OFFCURVE",
"364 646 CURVE SMOOTH",
"364 634 OFFCURVE",
"370 623 OFFCURVE",
"381 603 CURVE SMOOTH",
"392 583 OFFCURVE",
"400 556 OFFCURVE",
"411 491 CURVE",
"424 418 LINE",
"472 15 LINE",
"476 -10 OFFCURVE",
"487 -14 OFFCURVE",
"498 -14 CURVE SMOOTH"
);
},
{
closed = 1;
nodes = (
"241 -14 OFFCURVE",
"282 18 OFFCURVE",
"294 47 CURVE SMOOTH",
"444 403 LINE",
"433 558 LINE",
"218 81 LINE",
"257 93 LINE",
"217 510 LINE SMOOTH",
"204 650 OFFCURVE",
"177 692 OFFCURVE",
"147 692 CURVE SMOOTH",
"112 692 OFFCURVE",
"42 666 OFFCURVE",
"42 639 CURVE SMOOTH",
"42 627 OFFCURVE",
"52 616 OFFCURVE",
"63 595 CURVE SMOOTH",
"75 572 OFFCURVE",
"86 551 OFFCURVE",
"98 444 CURVE SMOOTH",
"148 15 LINE",
"152 -10 OFFCURVE",
"163 -14 OFFCURVE",
"174 -14 CURVE SMOOTH"
);
}
);
width = 840;
},
{
anchors = (
{
name = bottom;
position = "{393, 0}";
},
{
name = top;
position = "{465, 680}";
}
);
background = {
anchors = (
{
name = bottom;
position = "{393, 0}";
},
{
name = top;
position = "{465, 680}";
}
);
paths = (
{
closed = 1;
nodes = (
"214 81 LINE",
"257 93 LINE",
"217 510 LINE SMOOTH",
"204 650 OFFCURVE",
"177 692 OFFCURVE",
"147 692 CURVE SMOOTH",
"112 692 OFFCURVE",
"42 666 OFFCURVE",
"42 639 CURVE SMOOTH",
"42 627 OFFCURVE",
"52 616 OFFCURVE",
"63 595 CURVE SMOOTH",
"75 572 OFFCURVE",
"86 551 OFFCURVE",
"98 444 CURVE SMOOTH",
"148 15 LINE",
"152 -10 OFFCURVE",
"163 -14 OFFCURVE",
"174 -14 CURVE SMOOTH",
"241 -14 OFFCURVE",
"276 23 OFFCURVE",
"289 52 CURVE SMOOTH",
"444 403 LINE",
"437 558 LINE"
);
},
{
closed = 1;
nodes = (
"873 662 OFFCURVE",
"876 670 OFFCURVE",
"876 677 CURVE SMOOTH",
"876 689 OFFCURVE",
"867 694 OFFCURVE",
"849 694 CURVE SMOOTH",
"825 694 OFFCURVE",
"729 661 OFFCURVE",
"723 611 CURVE SMOOTH",
"718 571 OFFCURVE",
"726 550 OFFCURVE",
"703 491 CURVE SMOOTH",
"546 81 LINE",
"584 93 LINE",
"528 510 LINE SMOOTH",
"511 640 OFFCURVE",
"491 692 OFFCURVE",
"457 692 CURVE SMOOTH",
"425 692 OFFCURVE",
"354 673 OFFCURVE",
"354 646 CURVE SMOOTH",
"354 634 OFFCURVE",
"366 623 OFFCURVE",
"377 603 CURVE SMOOTH",
"388 583 OFFCURVE",
"400 556 OFFCURVE",
"411 491 CURVE",
"424 418 LINE",
"472 15 LINE",
"476 -10 OFFCURVE",
"487 -14 OFFCURVE",
"498 -14 CURVE SMOOTH",
"565 -14 OFFCURVE",
"604 23 OFFCURVE",
"616 52 CURVE SMOOTH",
"868 651 LINE SMOOTH"
);
},
{
closed = 1;
nodes = (
"726 662 OFFCURVE",
"729 670 OFFCURVE",
"729 677 CURVE SMOOTH",
"729 689 OFFCURVE",
"720 696 OFFCURVE",
"696 696 CURVE SMOOTH",
"661 696 OFFCURVE",
"547 661 OFFCURVE",
"541 611 CURVE SMOOTH",
"536 571 OFFCURVE",
"530 548 OFFCURVE",
"504 491 CURVE SMOOTH",
"318 81 LINE",
"367 93 LINE",
"287 510 LINE SMOOTH",
"260 649 OFFCURVE",
"236 696 OFFCURVE",
"197 696 CURVE SMOOTH",
"142 696 OFFCURVE",
"41 657 OFFCURVE",
"41 627 CURVE SMOOTH",
"41 615 OFFCURVE",
"60 603 OFFCURVE",
"75 583 CURVE SMOOTH",
"90 563 OFFCURVE",
"103 539 OFFCURVE",
"118 493 CURVE SMOOTH",
"168 345 OFFCURVE",
"219 168 OFFCURVE",
"241 22 CURVE SMOOTH",
"246 -10 OFFCURVE",
"257 -14 OFFCURVE",
"268 -14 CURVE SMOOTH",
"335 -14 OFFCURVE",
"396 23 OFFCURVE",
"411 52 CURVE SMOOTH",
"718 647 LINE SMOOTH"
);
}
);
};
layerId = "42CFE912-843B-4D25-82F4-9ABC3064997D";
paths = (
{
closed = 1;
nodes = (
"557 -14 OFFCURVE",
"624 23 OFFCURVE",
"637 52 CURVE SMOOTH",
"896 647 LINE SMOOTH",
"902 662 OFFCURVE",
"906 670 OFFCURVE",
"906 678 CURVE SMOOTH",
"906 689 OFFCURVE",
"898 696 OFFCURVE",
"878 696 CURVE SMOOTH",
"836 696 OFFCURVE",
"718 661 OFFCURVE",
"712 611 CURVE SMOOTH",
"707 571 OFFCURVE",
"715 548 OFFCURVE",
"694 491 CURVE SMOOTH",
"539 74 LINE",
"592 84 LINE",
"565 510 LINE SMOOTH",
"556 650 OFFCURVE",
"544 696 OFFCURVE",
"505 696 CURVE SMOOTH",
"450 696 OFFCURVE",
"352 657 OFFCURVE",
"352 627 CURVE SMOOTH",
"352 615 OFFCURVE",
"364 609 OFFCURVE",
"375 589 CURVE SMOOTH",
"386 569 OFFCURVE",
"395 545 OFFCURVE",
"405 490 CURVE",
"418 418 LINE",
"463 22 LINE",
"467 -10 OFFCURVE",
"479 -14 OFFCURVE",
"490 -14 CURVE SMOOTH"
);
},
{
closed = 1;
nodes = (
"245 -14 OFFCURVE",
"292 17 OFFCURVE",
"308 52 CURVE SMOOTH",
"449 369 LINE",
"439 561 LINE",
"215 81 LINE",
"273 93 LINE",
"256 510 LINE SMOOTH",
"250 650 OFFCURVE",
"236 696 OFFCURVE",
"197 696 CURVE SMOOTH",
"142 696 OFFCURVE",
"41 657 OFFCURVE",
"41 627 CURVE SMOOTH",
"41 615 OFFCURVE",
"51 609 OFFCURVE",
"61 589 CURVE SMOOTH",
"71 569 OFFCURVE",
"82 539 OFFCURVE",
"92 447 CURVE SMOOTH",
"139 15 LINE",
"142 -10 OFFCURVE",
"154 -14 OFFCURVE",
"174 -14 CURVE SMOOTH"
);
}
);
width = 870;
}
);
leftKerningGroup = W;
leftMetricsKey = V;
rightKerningGroup = W;
rightMetricsKey = V;
unicode = 0057;
},
{
glyphname = X;
lastChange = "2022-01-18 09:13:17 +0000";
layers = (
{
anchors = (
{
name = bottom;
position = "{276, 0}";
},
{
name = top;
position = "{348, 680}";
}
);
background = {
paths = (
{
closed = 1;
nodes = (
"482 490 OFFCURVE",
"578 598 OFFCURVE",
"627 658 CURVE SMOOTH",
"639 673 OFFCURVE",
"630 680 OFFCURVE",
"619 680 CURVE SMOOTH",
"609 680 OFFCURVE",
"556 680 OFFCURVE",
"542 680 CURVE SMOOTH",
"526 680 OFFCURVE",
"518 672 OFFCURVE",
"499 641 CURVE SMOOTH",
"459 577 OFFCURVE",
"411 516 OFFCURVE",
"378 474 CURVE SMOOTH",
"369 462 OFFCURVE",
"365 449 OFFCURVE",
"365 438 CURVE",
"359 438 LINE",
"359 416 OFFCURVE",
"359 382 OFFCURVE",
"359 363 CURVE",
"388 363 LINE"
);
}
);
};
hints = (
{
horizontal = 1;
origin = "{0, 15}";
target = "{0, 9}";
type = Stem;
},
{
horizontal = 1;
place = "{-13, 138}";
type = Stem;
},
{
horizontal = 1;
origin = "{1, 12}";
target = down;
type = TopGhost;
}
);
layerId = "B0B60A8F-2DEB-4A58-A43B-60A0DADABD8F";
paths = (
{
closed = 1;
nodes = (
"184 -13 OFFCURVE",
"264 150 OFFCURVE",
"340 306 CURVE",
"360 321 LINE",
"447 483 OFFCURVE",
"526 557 OFFCURVE",
"554 557 CURVE SMOOTH",
"578 557 OFFCURVE",
"588 549 OFFCURVE",
"602 549 CURVE SMOOTH",
"624 549 OFFCURVE",
"655 594 OFFCURVE",
"655 646 CURVE SMOOTH",
"655 674 OFFCURVE",
"640 694 OFFCURVE",
"608 694 CURVE SMOOTH",
"503 694 OFFCURVE",
"428 600 OFFCURVE",
"305 375 CURVE",
"288 360 LINE",
"185 176 OFFCURVE",
"111 114 OFFCURVE",
"85 114 CURVE SMOOTH",
"56 114 OFFCURVE",
"36 124 OFFCURVE",
"16 124 CURVE SMOOTH",
"-4 124 OFFCURVE",
"-11 106 OFFCURVE",
"-11 83 CURVE SMOOTH",
"-11 28 OFFCURVE",
"12 -13 OFFCURVE",
"60 -13 CURVE SMOOTH"
);
},
{
closed = 1;
nodes = (
"534 -8 OFFCURVE",
"607 26 OFFCURVE",
"607 49 CURVE SMOOTH",
"607 63 OFFCURVE",
"582 78 OFFCURVE",
"563 95 CURVE SMOOTH",
"525 128 OFFCURVE",
"463 205 OFFCURVE",
"371 395 CURVE",
"359 419 LINE",
"268 646 OFFCURVE",
"223 696 OFFCURVE",
"164 696 CURVE SMOOTH",
"130 696 OFFCURVE",
"53 669 OFFCURVE",
"53 636 CURVE SMOOTH",
"53 623 OFFCURVE",
"61 619 OFFCURVE",
"81 613 CURVE SMOOTH",
"141 594 OFFCURVE",
"198 499 OFFCURVE",
"292 306 CURVE",
"308 272 LINE",
"402 63 OFFCURVE",
"436 -8 OFFCURVE",
"500 -8 CURVE SMOOTH"
);
}
);
width = 632;
},
{
anchors = (
{
name = bottom;
position = "{289, 0}";
},
{
name = top;
position = "{361, 680}";
}
);
background = {
anchors = (
{
name = bottom;
position = "{289, 0}";
},
{
name = top;
position = "{361, 680}";
}
);
paths = (
{
closed = 1;
nodes = (
"2 28 OFFCURVE",
"24 -13 OFFCURVE",
"69 -13 CURVE SMOOTH",
"186 -13 OFFCURVE",
"261 150 OFFCURVE",
"333 306 CURVE",
"355 321 LINE",
"437 483 OFFCURVE",
"510 567 OFFCURVE",
"536 567 CURVE SMOOTH",
"559 567 OFFCURVE",
"568 559 OFFCURVE",
"581 559 CURVE SMOOTH",
"602 559 OFFCURVE",
"620 588 OFFCURVE",
"620 646 CURVE SMOOTH",
"620 674 OFFCURVE",
"606 694 OFFCURVE",
"576 694 CURVE SMOOTH",
"477 694 OFFCURVE",
"387 536 OFFCURVE",
"300 375 CURVE",
"284 360 LINE",
"187 176 OFFCURVE",
"117 114 OFFCURVE",
"92 114 CURVE SMOOTH",
"65 114 OFFCURVE",
"46 124 OFFCURVE",
"27 124 CURVE SMOOTH",
"9 124 OFFCURVE",
"2 106 OFFCURVE",
"2 83 CURVE SMOOTH"
);
},
{
closed = 1;
nodes = (
"62 623 OFFCURVE",
"70 619 OFFCURVE",
"89 613 CURVE SMOOTH",
"145 594 OFFCURVE",
"199 499 OFFCURVE",
"288 306 CURVE",
"303 272 LINE",
"371 111 OFFCURVE",
"424 -8 OFFCURVE",
"488 -8 CURVE SMOOTH",
"520 -8 OFFCURVE",
"589 26 OFFCURVE",
"589 49 CURVE SMOOTH",
"589 63 OFFCURVE",
"565 78 OFFCURVE",
"547 95 CURVE SMOOTH",
"509 131 OFFCURVE",
"454 205 OFFCURVE",
"367 395 CURVE",
"356 419 LINE",
"291 590 OFFCURVE",
"228 696 OFFCURVE",
"167 696 CURVE SMOOTH",
"135 696 OFFCURVE",
"62 669 OFFCURVE",
"62 636 CURVE SMOOTH"
);
}
);
};
hints = (
{
horizontal = 1;
origin = "{0, 31}";
target = "{0, 22}";
type = Stem;
},
{
horizontal = 1;
place = "{516, 180}";
type = Stem;
}
);
layerId = "42CFE912-843B-4D25-82F4-9ABC3064997D";
paths = (
{
closed = 1;
nodes = (
"193 -13 OFFCURVE",
"268 149 OFFCURVE",
"359 305 CURVE",
"395 321 LINE",
"479 477 OFFCURVE",
"543 539 OFFCURVE",
"586 537 CURVE SMOOTH",
"612 536 OFFCURVE",
"632 527 OFFCURVE",
"646 527 CURVE SMOOTH",
"678 527 OFFCURVE",
"702 585 OFFCURVE",
"702 643 CURVE SMOOTH",
"702 679 OFFCURVE",
"681 696 OFFCURVE",
"638 696 CURVE SMOOTH",
"521 696 OFFCURVE",
"420 537 OFFCURVE",
"330 376 CURVE",
"301 360 LINE",
"184 176 OFFCURVE",
"146 137 OFFCURVE",
"110 137 CURVE SMOOTH",
"81 137 OFFCURVE",
"45 152 OFFCURVE",
"25 152 CURVE SMOOTH",
"2 152 OFFCURVE",
"-1 123 OFFCURVE",
"-1 85 CURVE SMOOTH",
"-1 32 OFFCURVE",
"26 -13 OFFCURVE",
"86 -13 CURVE SMOOTH"
);
},
{
closed = 1;
nodes = (
"576 -8 OFFCURVE",
"661 26 OFFCURVE",
"661 49 CURVE SMOOTH",
"661 63 OFFCURVE",
"625 88 OFFCURVE",
"605 105 CURVE SMOOTH",
"565 141 OFFCURVE",
"529 189 OFFCURVE",
"423 395 CURVE",
"411 419 LINE",
"341 590 OFFCURVE",
"279 696 OFFCURVE",
"196 696 CURVE SMOOTH",
"136 696 OFFCURVE",
"47 669 OFFCURVE",
"47 636 CURVE SMOOTH",
"47 623 OFFCURVE",
"55 619 OFFCURVE",
"76 613 CURVE SMOOTH",
"146 594 OFFCURVE",
"208 499 OFFCURVE",
"303 306 CURVE",
"319 272 LINE",
"392 111 OFFCURVE",
"455 -8 OFFCURVE",
"526 -8 CURVE SMOOTH"
);
}
);
width = 686;
},
{
anchors = (
{
name = bottom;
position = "{276, 0}";
},
{
name = top;
position = "{348, 680}";
}
);
associatedMasterId = "B0B60A8F-2DEB-4A58-A43B-60A0DADABD8F";
background = {
paths = (
{
closed = 1;
nodes = (
"482 490 OFFCURVE",
"578 598 OFFCURVE",
"627 658 CURVE SMOOTH",
"639 673 OFFCURVE",
"630 680 OFFCURVE",
"619 680 CURVE SMOOTH",
"609 680 OFFCURVE",
"556 680 OFFCURVE",
"542 680 CURVE SMOOTH",
"526 680 OFFCURVE",
"518 672 OFFCURVE",
"499 641 CURVE SMOOTH",
"459 577 OFFCURVE",
"411 516 OFFCURVE",
"378 474 CURVE SMOOTH",
"369 462 OFFCURVE",
"365 449 OFFCURVE",
"365 438 CURVE",
"359 438 LINE",
"359 416 OFFCURVE",
"359 382 OFFCURVE",
"359 363 CURVE",
"388 363 LINE"
);
}
);
};
layerId = "3AF3BBCE-7DEF-49AF-9179-6BB34DBC6E94";
name = "Apr 29 21, 09:19";
paths = (
{
closed = 1;
nodes = (
"-11 28 OFFCURVE",
"11 -13 OFFCURVE",
"56 -13 CURVE SMOOTH",
"173 -13 OFFCURVE",
"248 150 OFFCURVE",
"320 306 CURVE",
"342 321 LINE",
"424 483 OFFCURVE",
"497 567 OFFCURVE",
"523 567 CURVE SMOOTH",
"546 567 OFFCURVE",
"555 559 OFFCURVE",
"568 559 CURVE SMOOTH",
"589 559 OFFCURVE",
"607 588 OFFCURVE",
"607 646 CURVE SMOOTH",
"607 674 OFFCURVE",
"593 694 OFFCURVE",
"563 694 CURVE SMOOTH",
"464 694 OFFCURVE",
"402 600 OFFCURVE",
"287 375 CURVE",
"271 360 LINE",
"174 176 OFFCURVE",
"104 114 OFFCURVE",
"79 114 CURVE SMOOTH",
"52 114 OFFCURVE",
"33 124 OFFCURVE",
"14 124 CURVE SMOOTH",
"-4 124 OFFCURVE",
"-11 106 OFFCURVE",
"-11 83 CURVE SMOOTH"
);
},
{
closed = 1;
nodes = (
"49 623 OFFCURVE",
"57 619 OFFCURVE",
"76 613 CURVE SMOOTH",
"132 594 OFFCURVE",
"182 499 OFFCURVE",
"271 306 CURVE",
"286 272 LINE",
"374 63 OFFCURVE",
"411 -8 OFFCURVE",
"475 -8 CURVE SMOOTH",
"507 -8 OFFCURVE",
"576 26 OFFCURVE",
"576 49 CURVE SMOOTH",
"576 63 OFFCURVE",
"552 78 OFFCURVE",
"534 95 CURVE SMOOTH",
"496 131 OFFCURVE",
"441 205 OFFCURVE",
"354 395 CURVE",
"343 419 LINE",
"257 646 OFFCURVE",
"215 696 OFFCURVE",
"154 696 CURVE SMOOTH",
"122 696 OFFCURVE",
"49 669 OFFCURVE",
"49 636 CURVE SMOOTH"
);
}
);
width = 601;
},
{
anchors = (
{
name = bottom;
position = "{298, 0}";
},
{
name = top;
position = "{370, 680}";
}
);
associatedMasterId = "42CFE912-843B-4D25-82F4-9ABC3064997D";
background = {
anchors = (
{
name = bottom;
position = "{298, 0}";
},
{
name = top;
position = "{370, 680}";
}
);
paths = (
{
closed = 1;
nodes = (
"11 28 OFFCURVE",
"33 -13 OFFCURVE",
"78 -13 CURVE SMOOTH",
"195 -13 OFFCURVE",
"270 150 OFFCURVE",
"342 306 CURVE",
"364 321 LINE",
"446 483 OFFCURVE",
"519 567 OFFCURVE",
"545 567 CURVE SMOOTH",
"568 567 OFFCURVE",
"577 559 OFFCURVE",
"590 559 CURVE SMOOTH",
"611 559 OFFCURVE",
"629 588 OFFCURVE",
"629 646 CURVE SMOOTH",
"629 674 OFFCURVE",
"615 694 OFFCURVE",
"585 694 CURVE SMOOTH",
"486 694 OFFCURVE",
"396 536 OFFCURVE",
"309 375 CURVE",
"293 360 LINE",
"196 176 OFFCURVE",
"126 114 OFFCURVE",
"101 114 CURVE SMOOTH",
"74 114 OFFCURVE",
"55 124 OFFCURVE",
"36 124 CURVE SMOOTH",
"18 124 OFFCURVE",
"11 106 OFFCURVE",
"11 83 CURVE SMOOTH"
);
},
{
closed = 1;
nodes = (
"71 623 OFFCURVE",
"79 619 OFFCURVE",
"98 613 CURVE SMOOTH",
"154 594 OFFCURVE",
"208 499 OFFCURVE",
"297 306 CURVE",
"312 272 LINE",
"380 111 OFFCURVE",
"433 -8 OFFCURVE",
"497 -8 CURVE SMOOTH",
"529 -8 OFFCURVE",
"598 26 OFFCURVE",
"598 49 CURVE SMOOTH",
"598 63 OFFCURVE",
"574 78 OFFCURVE",
"556 95 CURVE SMOOTH",
"518 131 OFFCURVE",
"463 205 OFFCURVE",
"376 395 CURVE",
"365 419 LINE",
"300 590 OFFCURVE",
"237 696 OFFCURVE",
"176 696 CURVE SMOOTH",
"144 696 OFFCURVE",
"71 669 OFFCURVE",
"71 636 CURVE SMOOTH"
);
}
);
};
layerId = "58A47DC0-871A-4F81-A3BF-622A975861D0";
name = "Apr 29 21, 09:21";
paths = (
{
closed = 1;
nodes = (
"-14 28 OFFCURVE",
"22 -13 OFFCURVE",
"78 -13 CURVE SMOOTH",
"200 -13 OFFCURVE",
"270 149 OFFCURVE",
"342 305 CURVE",
"372 321 LINE",
"454 477 OFFCURVE",
"519 539 OFFCURVE",
"545 539 CURVE SMOOTH",
"569 539 OFFCURVE",
"588 530 OFFCURVE",
"601 530 CURVE SMOOTH",
"627 530 OFFCURVE",
"649 588 OFFCURVE",
"649 646 CURVE SMOOTH",
"649 679 OFFCURVE",
"630 696 OFFCURVE",
"593 696 CURVE SMOOTH",
"484 696 OFFCURVE",
"399 537 OFFCURVE",
"312 376 CURVE",
"288 360 LINE",
"191 176 OFFCURVE",
"126 139 OFFCURVE",
"101 139 CURVE SMOOTH",
"74 139 OFFCURVE",
"40 154 OFFCURVE",
"21 154 CURVE SMOOTH",
"0 154 OFFCURVE",
"-14 121 OFFCURVE",
"-14 83 CURVE SMOOTH"
);
},
{
closed = 1;
nodes = (
"51 623 OFFCURVE",
"59 619 OFFCURVE",
"78 613 CURVE SMOOTH",
"134 594 OFFCURVE",
"188 499 OFFCURVE",
"277 306 CURVE",
"292 272 LINE",
"360 111 OFFCURVE",
"410 -8 OFFCURVE",
"485 -8 CURVE SMOOTH",
"541 -8 OFFCURVE",
"633 26 OFFCURVE",
"633 49 CURVE SMOOTH",
"633 63 OFFCURVE",
"609 78 OFFCURVE",
"591 95 CURVE SMOOTH",
"553 131 OFFCURVE",
"498 205 OFFCURVE",
"411 395 CURVE",
"400 419 LINE",
"335 590 OFFCURVE",
"277 696 OFFCURVE",
"200 696 CURVE SMOOTH",
"144 696 OFFCURVE",
"51 669 OFFCURVE",
"51 636 CURVE SMOOTH"
);
}
);
width = 650;
}
);
leftKerningGroup = X;
rightKerningGroup = X;
unicode = 0058;
},
{
glyphname = Y;
lastChange = "2022-01-18 09:13:17 +0000";
layers = (
{
anchors = (
{
name = bottom;
position = "{262, 0}";
},
{
name = top;
position = "{334, 680}";
},
{
name = topleft;
position = "{68, 680}";
}
);
hints = (
{
origin = "{1, 0}";
type = Corner;
name = _corner.serifUC;
}
);
layerId = "B0B60A8F-2DEB-4A58-A43B-60A0DADABD8F";
paths = (
{
closed = 1;
nodes = (
"332 261 LINE",
"584 619 LINE SMOOTH",
"602 644 OFFCURVE",
"614 664 OFFCURVE",
"614 678 CURVE SMOOTH",
"614 689 OFFCURVE",
"606 694 OFFCURVE",
"596 694 CURVE SMOOTH",
"564 694 OFFCURVE",
"445 666 OFFCURVE",
"439 619 CURVE SMOOTH",
"436 591 OFFCURVE",
"433 550 OFFCURVE",
"396 494 CURVE SMOOTH",
"296 340 LINE",
"326 362 LINE",
"252 570 LINE SMOOTH",
"225 646 OFFCURVE",
"190 694 OFFCURVE",
"136 694 CURVE SMOOTH",
"106 694 OFFCURVE",
"43 665 OFFCURVE",
"43 648 CURVE SMOOTH",
"43 634 OFFCURVE",
"51 627 OFFCURVE",
"84 600 CURVE SMOOTH",
"110 578 OFFCURVE",
"130 539 OFFCURVE",
"157 475 CURVE SMOOTH",
"247 261 LINE"
);
},
{
closed = 1;
nodes = (
"323 -8 LINE",
"359 321 LINE",
"240 339 LINE",
"213 96 LINE SMOOTH",
"211 79 OFFCURVE",
"210 64 OFFCURVE",
"210 51 CURVE SMOOTH",
"210 15 OFFCURVE",
"218 -8 OFFCURVE",
"242 -8 CURVE SMOOTH"
);
}
);
width = 578;
},
{
anchors = (
{
name = bottom;
position = "{270, 0}";
},
{
name = top;
position = "{342, 680}";
},
{
name = topleft;
position = "{76, 680}";
}
);
associatedMasterId = "B0B60A8F-2DEB-4A58-A43B-60A0DADABD8F";
hints = (
{
origin = "{1, 7}";
type = Corner;
name = _corner.serifUC;
}
);
layerId = "663EEAAD-3952-40B6-9FE1-A6E628A8C173";
name = "Apr 9 21, 17:17";
paths = (
{
closed = 1;
nodes = (
"610 644 OFFCURVE",
"622 664 OFFCURVE",
"622 678 CURVE SMOOTH",
"622 689 OFFCURVE",
"614 694 OFFCURVE",
"604 694 CURVE SMOOTH",
"572 694 OFFCURVE",
"453 666 OFFCURVE",
"447 619 CURVE SMOOTH",
"444 591 OFFCURVE",
"439 550 OFFCURVE",
"402 494 CURVE SMOOTH",
"302 340 LINE",
"350 362 LINE",
"283 510 LINE SMOOTH",
"223 643 OFFCURVE",
"183 694 OFFCURVE",
"145 694 CURVE SMOOTH",
"110 694 OFFCURVE",
"47 661 OFFCURVE",
"47 644 CURVE SMOOTH",
"47 630 OFFCURVE",
"55 623 OFFCURVE",
"88 596 CURVE SMOOTH",
"114 574 OFFCURVE",
"145 538 OFFCURVE",
"174 475 CURVE SMOOTH",
"274 261 LINE",
"340 261 LINE",
"592 619 LINE SMOOTH"
);
},
{
closed = 1;
nodes = (
"224 96 LINE SMOOTH",
"222 79 OFFCURVE",
"221 64 OFFCURVE",
"221 51 CURVE SMOOTH",
"221 15 OFFCURVE",
"229 -8 OFFCURVE",
"253 -8 CURVE SMOOTH",
"334 -8 LINE",
"370 321 LINE",
"251 339 LINE"
);
}
);
width = 581;
},
{
anchors = (
{
name = bottom;
position = "{283, 0}";
},
{
name = top;
position = "{355, 680}";
},
{
name = topleft;
position = "{89, 680}";
}
);
background = {
anchors = (
{
name = bottom;
position = "{283, 0}";
},
{
name = top;
position = "{355, 680}";
},
{
name = topleft;
position = "{89, 680}";
}
);
hints = (
{
origin = "{1, 7}";
type = Corner;
name = _corner.serifUC;
}
);
paths = (
{
closed = 1;
nodes = (
"623 644 OFFCURVE",
"635 664 OFFCURVE",
"635 678 CURVE SMOOTH",
"635 689 OFFCURVE",
"627 694 OFFCURVE",
"617 694 CURVE SMOOTH",
"585 694 OFFCURVE",
"466 666 OFFCURVE",
"460 619 CURVE SMOOTH",
"457 591 OFFCURVE",
"452 550 OFFCURVE",
"415 494 CURVE SMOOTH",
"315 340 LINE",
"363 362 LINE",
"297 510 LINE SMOOTH",
"238 643 OFFCURVE",
"200 694 OFFCURVE",
"158 694 CURVE SMOOTH",
"128 694 OFFCURVE",
"65 665 OFFCURVE",
"65 648 CURVE SMOOTH",
"65 634 OFFCURVE",
"73 627 OFFCURVE",
"106 600 CURVE SMOOTH",
"132 578 OFFCURVE",
"158 538 OFFCURVE",
"187 475 CURVE SMOOTH",
"287 261 LINE",
"353 261 LINE",
"605 619 LINE SMOOTH"
);
},
{
closed = 1;
nodes = (
"230 96 LINE SMOOTH",
"228 79 OFFCURVE",
"227 64 OFFCURVE",
"227 51 CURVE SMOOTH",
"227 15 OFFCURVE",
"235 -8 OFFCURVE",
"259 -8 CURVE SMOOTH",
"340 -8 LINE",
"376 321 LINE",
"257 339 LINE"
);
}
);
};
hints = (
{
origin = "{1, 0}";
type = Corner;
name = _corner.serifUC;
}
);
layerId = "42CFE912-843B-4D25-82F4-9ABC3064997D";
paths = (
{
closed = 1;
nodes = (
"363 261 LINE",
"625 619 LINE SMOOTH",
"643 644 OFFCURVE",
"655 664 OFFCURVE",
"655 678 CURVE SMOOTH",
"655 688 OFFCURVE",
"649 696 OFFCURVE",
"634 696 CURVE SMOOTH",
"583 696 OFFCURVE",
"455 680 OFFCURVE",
"449 615 CURVE SMOOTH",
"447 591 OFFCURVE",
"446 549 OFFCURVE",
"411 494 CURVE SMOOTH",
"301 319 LINE",
"385 341 LINE",
"305 524 LINE SMOOTH",
"253 644 OFFCURVE",
"222 696 OFFCURVE",
"175 696 CURVE SMOOTH",
"116 696 OFFCURVE",
"42 664 OFFCURVE",
"42 639 CURVE SMOOTH",
"42 625 OFFCURVE",
"51 617 OFFCURVE",
"81 590 CURVE SMOOTH",
"106 567 OFFCURVE",
"135 529 OFFCURVE",
"164 466 CURVE SMOOTH",
"264 249 LINE"
);
},
{
closed = 1;
nodes = (
"368 -8 LINE",
"404 333 LINE",
"249 359 LINE",
"222 121 LINE SMOOTH",
"220 104 OFFCURVE",
"219 83 OFFCURVE",
"219 59 CURVE SMOOTH",
"219 9 OFFCURVE",
"230 -8 OFFCURVE",
"264 -8 CURVE SMOOTH"
);
}
);
width = 619;
}
);
leftKerningGroup = Y;
leftMetricsKey = V;
rightKerningGroup = Y;
rightMetricsKey = V;
unicode = 0059;
},
{
glyphname = Z;
lastChange = "2022-01-18 09:13:17 +0000";
layers = (
{
anchors = (
{
name = bottom;
position = "{220, 0}";
},
{
name = center;
position = "{256, 340}";
},
{
name = top;
position = "{292, 680}";
}
);
background = {
paths = (
{
closed = 1;
nodes = (
"523 680 OFFCURVE",
"470 680 OFFCURVE",
"458 680 CURVE",
"450 680 OFFCURVE",
"435 678 OFFCURVE",
"421 656 CURVE SMOOTH",
"337 518 OFFCURVE",
"163 246 OFFCURVE",
"23 36 CURVE SMOOTH",
"11 17 OFFCURVE",
"12 0 OFFCURVE",
"41 0 CURVE SMOOTH",
"50 0 OFFCURVE",
"70 0 OFFCURVE",
"106 0 CURVE SMOOTH",
"133 0 OFFCURVE",
"144 28 OFFCURVE",
"171 71 CURVE SMOOTH",
"276 242 OFFCURVE",
"448 516 OFFCURVE",
"544 660 CURVE SMOOTH",
"552 672 OFFCURVE",
"548 680 OFFCURVE",
"539 680 CURVE"
);
},
{
closed = 1;
nodes = (
"421 55 LINE",
"106 55 LINE",
"106 0 LINE",
"421 0 LINE"
);
},
{
closed = 1;
nodes = (
"493 0 OFFCURVE",
"495 1 OFFCURVE",
"497 8 CURVE SMOOTH",
"499 15 OFFCURVE",
"505 41 OFFCURVE",
"508 52 CURVE SMOOTH",
"510 61 OFFCURVE",
"503 62 OFFCURVE",
"497 62 CURVE SMOOTH",
"481 62 OFFCURVE",
"437 55 OFFCURVE",
"395 55 CURVE",
"395 0 LINE",
"419 0 OFFCURVE",
"474 0 OFFCURVE",
"486 0 CURVE"
);
}
);
};
layerId = "B0B60A8F-2DEB-4A58-A43B-60A0DADABD8F";
paths = (
{
closed = 1;
nodes = (
"104 -6 OFFCURVE",
"172 0 OFFCURVE",
"342 0 CURVE SMOOTH",
"429 0 LINE SMOOTH",
"472 0 OFFCURVE",
"498 72 OFFCURVE",
"498 122 CURVE SMOOTH",
"498 132 OFFCURVE",
"492 136 OFFCURVE",
"486 136 CURVE SMOOTH",
"479 136 OFFCURVE",
"465 133 OFFCURVE",
"427 126 CURVE SMOOTH",
"74 63 LINE",
"130 40 LINE",
"242 218 OFFCURVE",
"390 397 OFFCURVE",
"502 575 CURVE SMOOTH",
"522 606 OFFCURVE",
"535 680 OFFCURVE",
"500 680 CURVE SMOOTH",
"322 680 LINE SMOOTH",
"207 680 OFFCURVE",
"141 691 OFFCURVE",
"112 691 CURVE SMOOTH",
"81 691 OFFCURVE",
"64 620 OFFCURVE",
"64 597 CURVE SMOOTH",
"64 573 OFFCURVE",
"69 566 OFFCURVE",
"87 566 CURVE SMOOTH",
"94 566 OFFCURVE",
"117 568 OFFCURVE",
"149 572 CURVE SMOOTH",
"424 608 LINE",
"419 643 LINE",
"324 488 OFFCURVE",
"189 342 OFFCURVE",
"29 106 CURVE SMOOTH",
"14 84 OFFCURVE",
"9 80 OFFCURVE",
"8 58 CURVE SMOOTH",
"7 32 OFFCURVE",
"19 -6 OFFCURVE",
"38 -6 CURVE SMOOTH"
);
}
);
width = 523;
},
{
anchors = (
{
name = bottom;
position = "{236, 0}";
},
{
name = center;
position = "{272, 340}";
},
{
name = top;
position = "{308, 680}";
}
);
background = {
anchors = (
{
name = bottom;
position = "{236, 0}";
},
{
name = center;
position = "{272, 340}";
},
{
name = top;
position = "{308, 680}";
}
);
paths = (
{
closed = 1;
nodes = (
"130 -10 OFFCURVE",
"178 0 OFFCURVE",
"338 0 CURVE SMOOTH",
"415 0 LINE SMOOTH",
"458 0 OFFCURVE",
"484 65 OFFCURVE",
"484 115 CURVE SMOOTH",
"484 125 OFFCURVE",
"478 129 OFFCURVE",
"472 129 CURVE SMOOTH",
"465 129 OFFCURVE",
"451 126 OFFCURVE",
"413 119 CURVE SMOOTH",
"100 63 LINE",
"156 40 LINE",
"268 218 OFFCURVE",
"406 397 OFFCURVE",
"518 575 CURVE SMOOTH",
"538 606 OFFCURVE",
"551 680 OFFCURVE",
"516 680 CURVE SMOOTH",
"338 680 LINE SMOOTH",
"223 680 OFFCURVE",
"157 691 OFFCURVE",
"128 691 CURVE SMOOTH",
"97 691 OFFCURVE",
"80 627 OFFCURVE",
"80 604 CURVE SMOOTH",
"80 580 OFFCURVE",
"85 573 OFFCURVE",
"103 573 CURVE SMOOTH",
"110 573 OFFCURVE",
"133 576 OFFCURVE",
"165 579 CURVE SMOOTH",
"440 608 LINE",
"428 643 LINE",
"333 488 OFFCURVE",
"215 338 OFFCURVE",
"55 102 CURVE SMOOTH",
"40 80 OFFCURVE",
"35 76 OFFCURVE",
"34 54 CURVE SMOOTH",
"33 28 OFFCURVE",
"45 -10 OFFCURVE",
"64 -10 CURVE SMOOTH"
);
}
);
};
layerId = "42CFE912-843B-4D25-82F4-9ABC3064997D";
paths = (
{
closed = 1;
nodes = (
"105 -10 OFFCURVE",
"213 0 OFFCURVE",
"373 0 CURVE SMOOTH",
"470 0 LINE SMOOTH",
"513 0 OFFCURVE",
"546 87 OFFCURVE",
"546 128 CURVE SMOOTH",
"546 143 OFFCURVE",
"541 152 OFFCURVE",
"529 152 CURVE SMOOTH",
"518 152 OFFCURVE",
"486 145 OFFCURVE",
"448 138 CURVE SMOOTH",
"100 70 LINE",
"176 40 LINE",
"288 218 OFFCURVE",
"426 397 OFFCURVE",
"538 575 CURVE SMOOTH",
"558 606 OFFCURVE",
"571 680 OFFCURVE",
"530 680 CURVE SMOOTH",
"338 680 LINE SMOOTH",
"223 680 OFFCURVE",
"150 691 OFFCURVE",
"118 691 CURVE SMOOTH",
"84 691 OFFCURVE",
"62 617 OFFCURVE",
"62 586 CURVE SMOOTH",
"62 562 OFFCURVE",
"74 553 OFFCURVE",
"93 553 CURVE SMOOTH",
"106 553 OFFCURVE",
"133 557 OFFCURVE",
"165 562 CURVE SMOOTH",
"440 603 LINE",
"403 643 LINE",
"308 488 OFFCURVE",
"190 338 OFFCURVE",
"37 112 CURVE SMOOTH",
"15 80 OFFCURVE",
"10 76 OFFCURVE",
"9 54 CURVE SMOOTH",
"8 28 OFFCURVE",
"20 -10 OFFCURVE",
"46 -10 CURVE SMOOTH"
);
}
);
width = 558;
}
);
leftKerningGroup = Z;
rightKerningGroup = Z;
unicode = 005A;
},
{
glyphname = a;
lastChange = "2022-01-18 09:13:17 +0000";
layers = (
{
anchors = (
{
name = bottom;
position = "{235, 0}";
},
{
name = ogonek;
position = "{447, 10}";
},
{
name = top;
position = "{285, 475}";
}
);
hints = (
{
origin = "{1, 0}";
type = Corner;
name = _corner.serif;
}
);
layerId = "B0B60A8F-2DEB-4A58-A43B-60A0DADABD8F";
paths = (
{
closed = 1;
nodes = (
"213 -16 OFFCURVE",
"305 67 OFFCURVE",
"413 308 CURVE",
"385 397 LINE",
"286 161 OFFCURVE",
"198 82 OFFCURVE",
"173 82 CURVE SMOOTH",
"148 82 OFFCURVE",
"137 123 OFFCURVE",
"137 200 CURVE SMOOTH",
"137 325 OFFCURVE",
"182 415 OFFCURVE",
"239 415 CURVE SMOOTH",
"266 415 OFFCURVE",
"350 386 OFFCURVE",
"404 350 CURVE",
"433 455 LINE",
"400 471 OFFCURVE",
"351 490 OFFCURVE",
"294 490 CURVE SMOOTH",
"147 490 OFFCURVE",
"24 351 OFFCURVE",
"24 157 CURVE SMOOTH",
"24 48 OFFCURVE",
"53 -16 OFFCURVE",
"128 -16 CURVE SMOOTH"
);
},
{
closed = 1;
nodes = (
"437 -10 LINE",
"458 213 LINE SMOOTH",
"471 348 OFFCURVE",
"519 466 OFFCURVE",
"519 477 CURVE SMOOTH",
"519 484 OFFCURVE",
"514 489 OFFCURVE",
"508 489 CURVE SMOOTH",
"494 489 OFFCURVE",
"450 466 OFFCURVE",
"387 456 CURVE",
"363 305 LINE",
"392 279 LINE",
"370 204 LINE SMOOTH",
"354 148 OFFCURVE",
"339 84 OFFCURVE",
"339 51 CURVE SMOOTH",
"339 21 OFFCURVE",
"340 -10 OFFCURVE",
"367 -10 CURVE SMOOTH"
);
}
);
width = 534;
},
{
associatedMasterId = "B0B60A8F-2DEB-4A58-A43B-60A0DADABD8F";
background = {
paths = (
{
closed = 1;
nodes = (
"-823 823 OFFCURVE",
"-726 721 OFFCURVE",
"-611 721 CURVE SMOOTH",
"-474 721 OFFCURVE",
"-358 834 OFFCURVE",
"-358 937 CURVE SMOOTH",
"-358 1027 OFFCURVE",
"-409 1173 OFFCURVE",
"-475 1173 CURVE SMOOTH",
"-499 1173 OFFCURVE",
"-538 1159 OFFCURVE",
"-572 1133 CURVE SMOOTH",
"-597 1114 OFFCURVE",
"-614 1086 OFFCURVE",
"-614 1076 CURVE SMOOTH",
"-614 1073 OFFCURVE",
"-613 1068 OFFCURVE",
"-607 1068 CURVE SMOOTH",
"-593 1068 OFFCURVE",
"-561 1085 OFFCURVE",
"-547 1085 CURVE SMOOTH",
"-511 1085 OFFCURVE",
"-475 974 OFFCURVE",
"-475 915 CURVE SMOOTH",
"-475 862 OFFCURVE",
"-544 805 OFFCURVE",
"-605 805 CURVE SMOOTH",
"-679 805 OFFCURVE",
"-719 907 OFFCURVE",
"-719 995 CURVE SMOOTH",
"-719 1080 OFFCURVE",
"-689 1122 OFFCURVE",
"-689 1150 CURVE SMOOTH",
"-689 1154 OFFCURVE",
"-691 1158 OFFCURVE",
"-697 1158 CURVE SMOOTH",
"-719 1158 OFFCURVE",
"-823 1050 OFFCURVE",
"-823 933 CURVE SMOOTH"
);
},
{
closed = 1;
nodes = (
"-381 873 LINE",
"-347 873 OFFCURVE",
"-298 823 OFFCURVE",
"-287 779 CURVE",
"-278 853 LINE",
"-276 903 OFFCURVE",
"-346 987 OFFCURVE",
"-381 987 CURVE"
);
},
{
closed = 1;
nodes = (
"-257 1225 LINE",
"-257 1225 OFFCURVE",
"-287 860 OFFCURVE",
"-304 740 CURVE SMOOTH",
"-309 704 OFFCURVE",
"-319 663 OFFCURVE",
"-293 663 CURVE SMOOTH",
"-247 663 OFFCURVE",
"-182 791 OFFCURVE",
"-178 858 CURVE SMOOTH",
"-167 1045 OFFCURVE",
"-144 1222 OFFCURVE",
"-144 1222 CURVE"
);
},
{
closed = 1;
nodes = (
"-868 1290 LINE",
"-897 1290 OFFCURVE",
"-910 1293 OFFCURVE",
"-917 1271 CURVE SMOOTH",
"-933 1218 LINE SMOOTH",
"-938 1203 OFFCURVE",
"-931 1196 OFFCURVE",
"-912 1196 CURVE SMOOTH",
"-90 1196 LINE",
"-61 1196 OFFCURVE",
"-48 1193 OFFCURVE",
"-41 1215 CURVE SMOOTH",
"-24 1268 LINE SMOOTH",
"-19 1283 OFFCURVE",
"-26 1290 OFFCURVE",
"-45 1290 CURVE SMOOTH"
);
},
{
closed = 1;
nodes = (
"-487 538 OFFCURVE",
"-510 361 OFFCURVE",
"-521 174 CURVE SMOOTH",
"-525 107 OFFCURVE",
"-587 -21 OFFCURVE",
"-628 -21 CURVE SMOOTH",
"-659 -21 OFFCURVE",
"-654 14 OFFCURVE",
"-648 56 CURVE SMOOTH",
"-634 162 OFFCURVE",
"-600 541 OFFCURVE",
"-600 541 CURVE",
"-487 538 LINE"
);
},
{
closed = 1;
nodes = (
"-155 606 OFFCURVE",
"-148 599 OFFCURVE",
"-153 584 CURVE SMOOTH",
"-170 531 LINE SMOOTH",
"-177 509 OFFCURVE",
"-190 512 OFFCURVE",
"-219 512 CURVE",
"-653 512 LINE SMOOTH",
"-672 512 OFFCURVE",
"-679 519 OFFCURVE",
"-674 534 CURVE SMOOTH",
"-658 587 LINE SMOOTH",
"-651 609 OFFCURVE",
"-638 606 OFFCURVE",
"-609 606 CURVE",
"-174 606 LINE SMOOTH"
);
},
{
closed = 1;
nodes = (
"-940 512 OFFCURVE",
"-945 514 OFFCURVE",
"-945 521 CURVE SMOOTH",
"-945 546 OFFCURVE",
"-859 608 OFFCURVE",
"-822 608 CURVE SMOOTH",
"-780 608 OFFCURVE",
"-721 547 OFFCURVE",
"-721 487 CURVE SMOOTH",
"-721 419 OFFCURVE",
"-797 366 OFFCURVE",
"-829 351 CURVE",
"-779 331 OFFCURVE",
"-737 277 OFFCURVE",
"-737 211 CURVE SMOOTH",
"-737 121 OFFCURVE",
"-824 27 OFFCURVE",
"-987 27 CURVE SMOOTH",
"-1108 27 OFFCURVE",
"-1195 97 OFFCURVE",
"-1195 183 CURVE SMOOTH",
"-1195 267 OFFCURVE",
"-1094 337 OFFCURVE",
"-1067 337 CURVE SMOOTH",
"-1038 337 OFFCURVE",
"-1088 278 OFFCURVE",
"-1088 199 CURVE SMOOTH",
"-1088 149 OFFCURVE",
"-1069 110 OFFCURVE",
"-996 110 CURVE SMOOTH",
"-916 110 OFFCURVE",
"-857 146 OFFCURVE",
"-857 226 CURVE SMOOTH",
"-857 248 OFFCURVE",
"-860 299 OFFCURVE",
"-907 299 CURVE SMOOTH",
"-929 299 OFFCURVE",
"-943 295 OFFCURVE",
"-960 295 CURVE SMOOTH",
"-972 295 OFFCURVE",
"-975 303 OFFCURVE",
"-975 320 CURVE SMOOTH",
"-975 373 OFFCURVE",
"-966 379 OFFCURVE",
"-944 379 CURVE SMOOTH",
"-882 379 OFFCURVE",
"-834 384 OFFCURVE",
"-834 440 CURVE SMOOTH",
"-834 477 OFFCURVE",
"-842 525 OFFCURVE",
"-868 525 CURVE SMOOTH",
"-882 525 OFFCURVE",
"-919 512 OFFCURVE",
"-933 512 CURVE SMOOTH"
);
},
{
closed = 1;
nodes = (
"-252 538 OFFCURVE",
"-275 361 OFFCURVE",
"-286 174 CURVE SMOOTH",
"-290 107 OFFCURVE",
"-352 -21 OFFCURVE",
"-393 -21 CURVE SMOOTH",
"-424 -21 OFFCURVE",
"-419 14 OFFCURVE",
"-413 56 CURVE SMOOTH",
"-399 162 OFFCURVE",
"-365 541 OFFCURVE",
"-365 541 CURVE",
"-252 538 LINE"
);
},
{
closed = 1;
nodes = (
"-790 393 LINE",
"-749 367 OFFCURVE",
"-676 345 OFFCURVE",
"-610 375 CURVE",
"-620 267 LINE",
"-719 270 OFFCURVE",
"-782 313 OFFCURVE",
"-829 351 CURVE"
);
},
{
closed = 1;
nodes = (
"381 475 OFFCURVE",
"350 475 OFFCURVE",
"338 475 CURVE",
"332 475 OFFCURVE",
"327 473 OFFCURVE",
"326 463 CURVE SMOOTH",
"321 411 OFFCURVE",
"304 235 OFFCURVE",
"294 98 CURVE SMOOTH",
"289 28 OFFCURVE",
"279 -2 OFFCURVE",
"305 -2 CURVE SMOOTH",
"329 -2 OFFCURVE",
"400 51 OFFCURVE",
"407 134 CURVE SMOOTH",
"419 282 OFFCURVE",
"431 411 OFFCURVE",
"437 464 CURVE SMOOTH",
"438 473 OFFCURVE",
"434 475 OFFCURVE",
"427 475 CURVE"
);
},
{
closed = 1;
nodes = (
"327 485 OFFCURVE",
"424 414 OFFCURVE",
"415 332 CURVE SMOOTH",
"392 112 LINE SMOOTH",
"391 102 OFFCURVE",
"394 93 OFFCURVE",
"407 93 CURVE SMOOTH",
"467 93 LINE SMOOTH",
"477 93 OFFCURVE",
"489 91 OFFCURVE",
"482 71 CURVE SMOOTH",
"479 61 OFFCURVE",
"469 30 OFFCURVE",
"465 18 CURVE SMOOTH",
"460 4 OFFCURVE",
"454 -1 OFFCURVE",
"440 -1 CURVE SMOOTH",
"401 -1 OFFCURVE",
"330 20 OFFCURVE",
"314 84 CURVE",
"293 124 LINE",
"308 268 OFFCURVE",
"311 308 OFFCURVE",
"317 377 CURVE SMOOTH",
"321 420 OFFCURVE",
"279 426 OFFCURVE",
"271 426 CURVE SMOOTH",
"209 426 OFFCURVE",
"123 345 OFFCURVE",
"97 345 CURVE SMOOTH",
"88 345 OFFCURVE",
"85 350 OFFCURVE",
"85 358 CURVE SMOOTH",
"85 376 OFFCURVE",
"90 408 OFFCURVE",
"99 428 CURVE SMOOTH",
"118 471 OFFCURVE",
"179 485 OFFCURVE",
"228 485 CURVE SMOOTH"
);
}
);
};
layerId = "AD57F8BB-8B07-4902-90E2-B97BD9304486";
name = "Mar 9 21, 11:01";
paths = (
{
closed = 1;
nodes = (
"215 -16 OFFCURVE",
"256 23 OFFCURVE",
"297 70 CURVE SMOOTH",
"377 162 LINE",
"379 366 LINE",
"358 192 OFFCURVE",
"259 64 OFFCURVE",
"199 64 CURVE SMOOTH",
"162 64 OFFCURVE",
"133 114 OFFCURVE",
"133 192 CURVE SMOOTH",
"133 309 OFFCURVE",
"181 440 OFFCURVE",
"271 440 CURVE SMOOTH",
"324 440 OFFCURVE",
"384 387 OFFCURVE",
"417 358 CURVE",
"489 443 LINE",
"423 464 OFFCURVE",
"355 490 OFFCURVE",
"285 490 CURVE SMOOTH",
"145 490 OFFCURVE",
"28 345 OFFCURVE",
"28 173 CURVE SMOOTH",
"28 64 OFFCURVE",
"75 -16 OFFCURVE",
"157 -16 CURVE SMOOTH"
);
},
{
closed = 1;
nodes = (
"339 8 OFFCURVE",
"348 -16 OFFCURVE",
"366 -16 CURVE SMOOTH",
"392 -16 OFFCURVE",
"448 24 OFFCURVE",
"448 58 CURVE SMOOTH",
"448 80 OFFCURVE",
"440 94 OFFCURVE",
"445 128 CURVE SMOOTH",
"489 443 LINE",
"389 448 LINE",
"357 201 LINE",
"358 185 LINE",
"351 127 LINE SMOOTH",
"346 87 OFFCURVE",
"339 50 OFFCURVE",
"339 31 CURVE SMOOTH"
);
}
);
width = 534;
},
{
associatedMasterId = "B0B60A8F-2DEB-4A58-A43B-60A0DADABD8F";
background = {
paths = (
{
closed = 1;
nodes = (
"-823 823 OFFCURVE",
"-726 721 OFFCURVE",
"-611 721 CURVE SMOOTH",
"-474 721 OFFCURVE",
"-358 834 OFFCURVE",
"-358 937 CURVE SMOOTH",
"-358 1027 OFFCURVE",
"-409 1173 OFFCURVE",
"-475 1173 CURVE SMOOTH",
"-499 1173 OFFCURVE",
"-538 1159 OFFCURVE",
"-572 1133 CURVE SMOOTH",
"-597 1114 OFFCURVE",
"-614 1086 OFFCURVE",
"-614 1076 CURVE SMOOTH",
"-614 1073 OFFCURVE",
"-613 1068 OFFCURVE",
"-607 1068 CURVE SMOOTH",
"-593 1068 OFFCURVE",
"-561 1085 OFFCURVE",
"-547 1085 CURVE SMOOTH",
"-511 1085 OFFCURVE",
"-475 974 OFFCURVE",
"-475 915 CURVE SMOOTH",
"-475 862 OFFCURVE",
"-544 805 OFFCURVE",
"-605 805 CURVE SMOOTH",
"-679 805 OFFCURVE",
"-719 907 OFFCURVE",
"-719 995 CURVE SMOOTH",
"-719 1080 OFFCURVE",
"-689 1122 OFFCURVE",
"-689 1150 CURVE SMOOTH",
"-689 1154 OFFCURVE",
"-691 1158 OFFCURVE",
"-697 1158 CURVE SMOOTH",
"-719 1158 OFFCURVE",
"-823 1050 OFFCURVE",
"-823 933 CURVE SMOOTH"
);
},
{
closed = 1;
nodes = (
"-381 873 LINE",
"-347 873 OFFCURVE",
"-298 823 OFFCURVE",
"-287 779 CURVE",
"-278 853 LINE",
"-276 903 OFFCURVE",
"-346 987 OFFCURVE",
"-381 987 CURVE"
);
},
{
closed = 1;
nodes = (
"-257 1225 LINE",
"-257 1225 OFFCURVE",
"-287 860 OFFCURVE",
"-304 740 CURVE SMOOTH",
"-309 704 OFFCURVE",
"-319 663 OFFCURVE",
"-293 663 CURVE SMOOTH",
"-247 663 OFFCURVE",
"-182 791 OFFCURVE",
"-178 858 CURVE SMOOTH",
"-167 1045 OFFCURVE",
"-144 1222 OFFCURVE",
"-144 1222 CURVE"
);
},
{
closed = 1;
nodes = (
"-868 1290 LINE",
"-897 1290 OFFCURVE",
"-910 1293 OFFCURVE",
"-917 1271 CURVE SMOOTH",
"-933 1218 LINE SMOOTH",
"-938 1203 OFFCURVE",
"-931 1196 OFFCURVE",
"-912 1196 CURVE SMOOTH",
"-90 1196 LINE",
"-61 1196 OFFCURVE",
"-48 1193 OFFCURVE",
"-41 1215 CURVE SMOOTH",
"-24 1268 LINE SMOOTH",
"-19 1283 OFFCURVE",
"-26 1290 OFFCURVE",
"-45 1290 CURVE SMOOTH"
);
},
{
closed = 1;
nodes = (
"-487 538 OFFCURVE",
"-510 361 OFFCURVE",
"-521 174 CURVE SMOOTH",
"-525 107 OFFCURVE",
"-587 -21 OFFCURVE",
"-628 -21 CURVE SMOOTH",
"-659 -21 OFFCURVE",
"-654 14 OFFCURVE",
"-648 56 CURVE SMOOTH",
"-634 162 OFFCURVE",
"-600 541 OFFCURVE",
"-600 541 CURVE",
"-487 538 LINE"
);
},
{
closed = 1;
nodes = (
"-155 606 OFFCURVE",
"-148 599 OFFCURVE",
"-153 584 CURVE SMOOTH",
"-170 531 LINE SMOOTH",
"-177 509 OFFCURVE",
"-190 512 OFFCURVE",
"-219 512 CURVE",
"-653 512 LINE SMOOTH",
"-672 512 OFFCURVE",
"-679 519 OFFCURVE",
"-674 534 CURVE SMOOTH",
"-658 587 LINE SMOOTH",
"-651 609 OFFCURVE",
"-638 606 OFFCURVE",
"-609 606 CURVE",
"-174 606 LINE SMOOTH"
);
},
{
closed = 1;
nodes = (
"-940 512 OFFCURVE",
"-945 514 OFFCURVE",
"-945 521 CURVE SMOOTH",
"-945 546 OFFCURVE",
"-859 608 OFFCURVE",
"-822 608 CURVE SMOOTH",
"-780 608 OFFCURVE",
"-721 547 OFFCURVE",
"-721 487 CURVE SMOOTH",
"-721 419 OFFCURVE",
"-797 366 OFFCURVE",
"-829 351 CURVE",
"-779 331 OFFCURVE",
"-737 277 OFFCURVE",
"-737 211 CURVE SMOOTH",
"-737 121 OFFCURVE",
"-824 27 OFFCURVE",
"-987 27 CURVE SMOOTH",
"-1108 27 OFFCURVE",
"-1195 97 OFFCURVE",
"-1195 183 CURVE SMOOTH",
"-1195 267 OFFCURVE",
"-1094 337 OFFCURVE",
"-1067 337 CURVE SMOOTH",
"-1038 337 OFFCURVE",
"-1088 278 OFFCURVE",
"-1088 199 CURVE SMOOTH",
"-1088 149 OFFCURVE",
"-1069 110 OFFCURVE",
"-996 110 CURVE SMOOTH",
"-916 110 OFFCURVE",
"-857 146 OFFCURVE",
"-857 226 CURVE SMOOTH",
"-857 248 OFFCURVE",
"-860 299 OFFCURVE",
"-907 299 CURVE SMOOTH",
"-929 299 OFFCURVE",
"-943 295 OFFCURVE",
"-960 295 CURVE SMOOTH",
"-972 295 OFFCURVE",
"-975 303 OFFCURVE",
"-975 320 CURVE SMOOTH",
"-975 373 OFFCURVE",
"-966 379 OFFCURVE",
"-944 379 CURVE SMOOTH",
"-882 379 OFFCURVE",
"-834 384 OFFCURVE",
"-834 440 CURVE SMOOTH",
"-834 477 OFFCURVE",
"-842 525 OFFCURVE",
"-868 525 CURVE SMOOTH",
"-882 525 OFFCURVE",
"-919 512 OFFCURVE",
"-933 512 CURVE SMOOTH"
);
},
{
closed = 1;
nodes = (
"-252 538 OFFCURVE",
"-275 361 OFFCURVE",
"-286 174 CURVE SMOOTH",
"-290 107 OFFCURVE",
"-352 -21 OFFCURVE",
"-393 -21 CURVE SMOOTH",
"-424 -21 OFFCURVE",
"-419 14 OFFCURVE",
"-413 56 CURVE SMOOTH",
"-399 162 OFFCURVE",
"-365 541 OFFCURVE",
"-365 541 CURVE",
"-252 538 LINE"
);
},
{
closed = 1;
nodes = (
"-790 393 LINE",
"-749 367 OFFCURVE",
"-676 345 OFFCURVE",
"-610 375 CURVE",
"-620 267 LINE",
"-719 270 OFFCURVE",
"-782 313 OFFCURVE",
"-829 351 CURVE"
);
},
{
closed = 1;
nodes = (
"381 475 OFFCURVE",
"350 475 OFFCURVE",
"338 475 CURVE",
"332 475 OFFCURVE",
"327 473 OFFCURVE",
"326 463 CURVE SMOOTH",
"321 411 OFFCURVE",
"304 235 OFFCURVE",
"294 98 CURVE SMOOTH",
"289 28 OFFCURVE",
"279 -2 OFFCURVE",
"305 -2 CURVE SMOOTH",
"329 -2 OFFCURVE",
"400 51 OFFCURVE",
"407 134 CURVE SMOOTH",
"419 282 OFFCURVE",
"431 411 OFFCURVE",
"437 464 CURVE SMOOTH",
"438 473 OFFCURVE",
"434 475 OFFCURVE",
"427 475 CURVE"
);
},
{
closed = 1;
nodes = (
"327 485 OFFCURVE",
"424 414 OFFCURVE",
"415 332 CURVE SMOOTH",
"392 112 LINE SMOOTH",
"391 102 OFFCURVE",
"394 93 OFFCURVE",
"407 93 CURVE SMOOTH",
"467 93 LINE SMOOTH",
"477 93 OFFCURVE",
"489 91 OFFCURVE",
"482 71 CURVE SMOOTH",
"479 61 OFFCURVE",
"469 30 OFFCURVE",
"465 18 CURVE SMOOTH",
"460 4 OFFCURVE",
"454 -1 OFFCURVE",
"440 -1 CURVE SMOOTH",
"401 -1 OFFCURVE",
"330 20 OFFCURVE",
"314 84 CURVE",
"293 124 LINE",
"308 268 OFFCURVE",
"311 308 OFFCURVE",
"317 377 CURVE SMOOTH",
"321 420 OFFCURVE",
"279 426 OFFCURVE",
"271 426 CURVE SMOOTH",
"209 426 OFFCURVE",
"123 345 OFFCURVE",
"97 345 CURVE SMOOTH",
"88 345 OFFCURVE",
"85 350 OFFCURVE",
"85 358 CURVE SMOOTH",
"85 376 OFFCURVE",
"90 408 OFFCURVE",
"99 428 CURVE SMOOTH",
"118 471 OFFCURVE",
"179 485 OFFCURVE",
"228 485 CURVE SMOOTH"
);
}
);
};
layerId = "96DC1021-6EB0-4FBD-9745-F4D01918C460";
name = "Apr 5 21, 11:21";
paths = (
{
closed = 1;
nodes = (
"28 64 OFFCURVE",
"75 -16 OFFCURVE",
"157 -16 CURVE SMOOTH",
"215 -16 OFFCURVE",
"256 23 OFFCURVE",
"297 70 CURVE SMOOTH",
"377 162 LINE",
"379 366 LINE",
"358 192 OFFCURVE",
"259 64 OFFCURVE",
"199 64 CURVE SMOOTH",
"162 64 OFFCURVE",
"133 114 OFFCURVE",
"133 192 CURVE SMOOTH",
"133 309 OFFCURVE",
"181 440 OFFCURVE",
"271 440 CURVE SMOOTH",
"308 440 OFFCURVE",
"349 414 OFFCURVE",
"381 388 CURVE",
"357 201 LINE",
"358 185 LINE",
"351 127 LINE SMOOTH",
"346 87 OFFCURVE",
"339 50 OFFCURVE",
"339 31 CURVE SMOOTH",
"339 8 OFFCURVE",
"348 -16 OFFCURVE",
"366 -16 CURVE SMOOTH",
"392 -16 OFFCURVE",
"448 24 OFFCURVE",
"448 58 CURVE SMOOTH",
"448 80 OFFCURVE",
"440 94 OFFCURVE",
"445 128 CURVE SMOOTH",
"479 376 LINE SMOOTH",
"488 439 OFFCURVE",
"484 444 OFFCURVE",
"436 460 CURVE SMOOTH",
"415 467 OFFCURVE",
"351 490 OFFCURVE",
"285 490 CURVE SMOOTH",
"145 490 OFFCURVE",
"28 345 OFFCURVE",
"28 173 CURVE SMOOTH"
);
}
);
width = 545;
},
{
anchors = (
{
name = bottom;
position = "{250, 0}";
},
{
name = ogonek;
position = "{462, 10}";
},
{
name = top;
position = "{300, 475}";
}
);
background = {
anchors = (
{
name = bottom;
position = "{250, 0}";
},
{
name = ogonek;
position = "{462, 10}";
},
{
name = top;
position = "{300, 475}";
}
);
hints = (
{
origin = "{0, 15}";
type = Corner;
name = _corner.serif;
}
);
paths = (
{
closed = 1;
nodes = (
"534 484 OFFCURVE",
"529 489 OFFCURVE",
"523 489 CURVE SMOOTH",
"509 489 OFFCURVE",
"465 466 OFFCURVE",
"402 456 CURVE",
"378 305 LINE",
"407 279 LINE",
"385 204 LINE SMOOTH",
"368 148 OFFCURVE",
"354 84 OFFCURVE",
"354 51 CURVE SMOOTH",
"354 21 OFFCURVE",
"355 -10 OFFCURVE",
"382 -10 CURVE SMOOTH",
"452 -10 LINE",
"473 213 LINE SMOOTH",
"486 348 OFFCURVE",
"534 466 OFFCURVE",
"534 477 CURVE SMOOTH"
);
},
{
closed = 1;
nodes = (
"228 -16 OFFCURVE",
"320 67 OFFCURVE",
"428 308 CURVE",
"400 397 LINE",
"301 161 OFFCURVE",
"213 82 OFFCURVE",
"188 82 CURVE SMOOTH",
"163 82 OFFCURVE",
"152 123 OFFCURVE",
"152 200 CURVE SMOOTH",
"152 325 OFFCURVE",
"197 415 OFFCURVE",
"254 415 CURVE SMOOTH",
"281 415 OFFCURVE",
"365 386 OFFCURVE",
"419 350 CURVE",
"448 455 LINE",
"415 471 OFFCURVE",
"366 490 OFFCURVE",
"309 490 CURVE SMOOTH",
"162 490 OFFCURVE",
"39 351 OFFCURVE",
"39 157 CURVE SMOOTH",
"39 48 OFFCURVE",
"68 -16 OFFCURVE",
"143 -16 CURVE SMOOTH"
);
}
);
};
hints = (
{
origin = "{1, 0}";
type = Corner;
name = _corner.serif;
}
);
layerId = "42CFE912-843B-4D25-82F4-9ABC3064997D";
paths = (
{
closed = 1;
nodes = (
"228 -16 OFFCURVE",
"319 56 OFFCURVE",
"427 297 CURVE",
"388 393 LINE",
"289 157 OFFCURVE",
"216 90 OFFCURVE",
"195 90 CURVE SMOOTH",
"178 90 OFFCURVE",
"172 134 OFFCURVE",
"172 193 CURVE SMOOTH",
"172 294 OFFCURVE",
"207 405 OFFCURVE",
"248 405 CURVE SMOOTH",
"289 405 OFFCURVE",
"367 357 OFFCURVE",
"419 321 CURVE",
"448 455 LINE",
"415 471 OFFCURVE",
"366 490 OFFCURVE",
"309 490 CURVE SMOOTH",
"162 490 OFFCURVE",
"24 351 OFFCURVE",
"24 157 CURVE SMOOTH",
"24 50 OFFCURVE",
"68 -16 OFFCURVE",
"143 -16 CURVE SMOOTH"
);
},
{
closed = 1;
nodes = (
"472 -10 LINE",
"494 217 LINE SMOOTH",
"507 348 OFFCURVE",
"554 450 OFFCURVE",
"554 469 CURVE SMOOTH",
"554 481 OFFCURVE",
"547 489 OFFCURVE",
"535 489 CURVE SMOOTH",
"513 489 OFFCURVE",
"450 466 OFFCURVE",
"387 456 CURVE",
"363 305 LINE",
"397 279 LINE",
"375 204 LINE SMOOTH",
"359 148 OFFCURVE",
"344 73 OFFCURVE",
"344 40 CURVE SMOOTH",
"344 10 OFFCURVE",
"355 -10 OFFCURVE",
"398 -10 CURVE SMOOTH"
);
}
);
width = 566;
}
);
leftKerningGroup = o;
leftMetricsKey = d;
rightKerningGroup = n;
unicode = 0061;
},
